<?xml version="1.0" encoding="utf-8"?>
<!-- Generator: Adobe Illustrator 24.0.0, SVG Export Plug-In . SVG Version: 6.00 Build 0)  -->
<svg version="1.1" id="Capa_1" xmlns="http://www.w3.org/2000/svg" xmlns:xlink="http://www.w3.org/1999/xlink" x="0px" y="0px"
	 viewBox="0 0 91.1 92.3" style="enable-background:new 0 0 91.1 92.3;" xml:space="preserve">
<style type="text/css">
	.st0{fill:#FFB714;}
	.st1{fill:#8E5207;}
</style>
<title>botonAceptar</title>
<g>
	
		<image style="overflow:visible;opacity:0.5;" width="105" height="104" xlink:href="2258FB85.png"  transform="matrix(1 0 0 1 -6.5039 -6.2039)">
	</image>
	<g>
		<circle class="st0" cx="43.1" cy="43.1" r="43.1"/>
	</g>
</g>
<g>
	<path class="st1" d="M43.9,68.8L43.9,68.8c-2.3,0-4.1-1.8-4.1-4.1V23.8c0-2.3,1.8-4.1,4.1-4.1l0,0c2.3,0,4.1,1.8,4.1,4.1v40.8
		C48,67,46.2,68.8,43.9,68.8z"/>
	<path class="st1" d="M19.4,44.3L19.4,44.3c0-2.3,1.8-4.1,4.1-4.1h40.8c2.3,0,4.1,1.8,4.1,4.1l0,0c0,2.3-1.8,4.1-4.1,4.1H23.6
		C21.3,48.4,19.4,46.6,19.4,44.3z"/>
</g>
</svg>
