<svg xmlns="http://www.w3.org/2000/svg" xmlns:xlink="http://www.w3.org/1999/xlink" width="166" height="167" viewBox="0 0 166 167">
  <defs>
    <filter id="Elipse_99" x="0" y="0" width="166" height="167" filterUnits="userSpaceOnUse">
      <feOffset dx="3" dy="9" input="SourceAlpha"/>
      <feGaussianBlur stdDeviation="3" result="blur"/>
      <feFlood flood-opacity="0.161"/>
      <feComposite operator="in" in2="blur"/>
      <feComposite in="SourceGraphic"/>
    </filter>
    <clipPath id="clip-path">
      <ellipse id="Elipse_115" data-name="Elipse 115" cx="70.178" cy="70.178" rx="70.178" ry="70.178" fill="none"/>
    </clipPath>
  </defs>
  <g id="agregarpaseador" transform="translate(6.048 0)">
    <g transform="matrix(1, 0, 0, 1, -6.05, 0)" filter="url(#Elipse_99)">
      <ellipse id="Elipse_99-2" data-name="Elipse 99" cx="74" cy="74.5" rx="74" ry="74.5" transform="translate(6)" fill="#ffb714"/>
    </g>
    <g id="Grupo_1773" data-name="Grupo 1773" transform="translate(21.894 49.838)">
      <path id="Trazado_219" data-name="Trazado 219" d="M1101.72,470.814A13.331,13.331,0,1,1,1115,484.157a13.373,13.373,0,0,1-13.283-13.343m13.333,11.306a11.294,11.294,0,1,0-11.3-11.312,11.33,11.33,0,0,0,11.3,11.312" transform="translate(-1079.325 -457.791)" fill="#8e5207"/>
      <path id="Trazado_220" data-name="Trazado 220" d="M1120.227,480.608c-.725,0-1.449.01-2.174,0-.667-.012-1.064-.377-1.068-.944a.943.943,0,0,1,1.053-.958c1.332-.013,2.667-.041,4,.01.681.026.947-.119.907-.87-.07-1.305-.024-2.617-.017-3.926,0-.731.343-1.139.927-1.154.612-.016.976.408.979,1.174.008,1.4.016,2.8-.005,4.207-.006.43.137.568.564.562,1.4-.021,2.8-.012,4.207-.005.764,0,1.189.369,1.172.98-.017.585-.424.922-1.156.926-1.286.008-2.571,0-3.857,0-.921,0-.922,0-.922.889,0,1.285,0,2.571,0,3.856,0,.769-.359,1.2-.963,1.191s-.941-.429-.945-1.21c-.005-1.379-.018-2.758.007-4.137.009-.461-.141-.618-.6-.6-.7.032-1.4.009-2.1.008" transform="translate(-1088.151 -466.619)" fill="#8e5207"/>
    </g>
    <g id="Grupo_1783" data-name="Grupo 1783" transform="translate(-1996.592 2316.812)">
      <path id="Trazado_1259" data-name="Trazado 1259" d="M2036.413-2220.113a3.577,3.577,0,0,0-1.334,2.063c-.762,2.5-1.61,4.982-2.368,7.487a4.927,4.927,0,0,0,1.315,5.3,4.928,4.928,0,0,0,1.186.844,1.953,1.953,0,0,1,1.041.982c.446,1.114.248,1.442-.928,1.371-.449-.027-.9-.1-1.343-.158-1.3-.163-2.5-.389-2.659-2.089a6.1,6.1,0,0,0-.77-1.658,11.259,11.259,0,0,1-1.209-6.373c.209-1.481,0-1.39-1.416-1.067a6.784,6.784,0,0,0-5.426,5.223c-.3,1.116-1.291,1.771-1.952,2.645-.255.336-.677.257-1,.018a1.319,1.319,0,0,1-.635-1.247,1.548,1.548,0,0,1,.266-.679,33.062,33.062,0,0,0,3.195-6.621,3.1,3.1,0,0,1,1.618-1.717,3.778,3.778,0,0,0,1.934-4.772c-.334-1.132-.963-2.16-.844-3.477.159-1.767,0-1.815-1.646-.8-3.413,2.1-9.839.869-11.63-3.537a3.022,3.022,0,0,1-.213-.441c-.091-.414-.913-.56-.53-1.06.3-.391.892-.283,1.392-.235a3.7,3.7,0,0,1,2.273,1.1,5.676,5.676,0,0,0,5.664,1.428,11.046,11.046,0,0,0,4.454-2.273c4.6-3.893,9.872-4.806,15.557-3.411,4.624,1.135,9.158.211,13.743-.046a24.465,24.465,0,0,0,7.461-1.444c1.421-.538,3.107-.453,4.673-.786,2.155-.458,5.515,1.714,6.357,3.765a5.177,5.177,0,0,0,.4.89c.2.3.443.691.844.593s.254-.555.3-.852c.3-2.108.569-4.22.853-6.33a1.979,1.979,0,0,0-.125-.96,10.306,10.306,0,0,1-.578-3.865,1.543,1.543,0,0,0-.065-.718c-.491-.944-.506-.936,0-1.883-.439.4-.729.677-1.024.941-.26.232-.5.657-.909.313-.3-.246-.184-.595-.012-.9.1-.169.19-.34.324-.578-.487-.039-.791.752-1.189.244-.289-.368.053-.777.25-1.125s.443-.681.7-1.068c-.42-.132-.691.6-1.047.171s.008-.785.229-1.1c.94-1.336,1.861-2.692,2.888-3.96a3.076,3.076,0,0,0,.867-2.329c-.482-4.633.643-9.116,1.253-13.647a2.15,2.15,0,0,1,.51-1.226,20.922,20.922,0,0,0,4.542-8.5c1.214-4.21,3.9-7.018,7.2-9.458a2.244,2.244,0,0,0,.942-2.758,26.4,26.4,0,0,1-.824-4.958,4.166,4.166,0,0,1,2.031-4.508,4.729,4.729,0,0,1,5.431.217,14.044,14.044,0,0,1,1.933,1.7c.453.461.9.985.4,1.722a.8.8,0,0,0-.037.584c.758,2.712.208,5.331-.376,8a1.688,1.688,0,0,1-1.764,1.584c-1.087.091-1.309.743-1.1,1.819.54,2.712,2.084,5.045,2.735,7.706.806,3.294.662,6.671.92,10.013a2.791,2.791,0,0,0,.64,1.777c2.137,2.434,4.309,4.833,6.642,7.081a8.4,8.4,0,0,0,1.455,1.122,4.787,4.787,0,0,1,1.852,6.269c-.246.469-.738.478-1.156.572a.606.606,0,0,1-.748-.624c-.02-1.454-1.058-2.277-2.013-3.006-1.215-.927-1.619-2.55-3.042-3.252-1.315-.649-2.605-1.347-4-2.073a18.536,18.536,0,0,0,.1,8.864c1.045,4.545,2.682,8.94,3.6,13.523a19.911,19.911,0,0,1,.222,5.37,28.821,28.821,0,0,0,1.846,12.4c.773,2.022,1.794,3.95,2.7,5.921.7,1.521.689,1.547-.85,2.423a5.232,5.232,0,0,0,2.893.747,26.973,26.973,0,0,0,4.412-.185c1.776-.116,2.224.58,1.645,2.225a4.117,4.117,0,0,1-3.106,2.833,35.973,35.973,0,0,1-4.715.821,19.021,19.021,0,0,0-5.251,1.173c-1.537.627-2.383.111-2.825-1.491a30.61,30.61,0,0,1-.4-3.66c-.065-.426-.031-.876-.673-.671s-.76-.247-.9-.694a4.584,4.584,0,0,1-.15-2.31,6.317,6.317,0,0,0-.472-3.831,32.77,32.77,0,0,1-2.673-9.542,12.283,12.283,0,0,1,.088-3.794c.309-1.353-.235-2.447-.864-3.74-.878,1.558-1.749,2.947-2.461,4.414a7.373,7.373,0,0,1-2.208,2.739,1.464,1.464,0,0,1-.194.15c-5.1,2.615-8.03,7.167-10.671,11.979-.273.5-.453,1.1-1.271,1.166-.546.042-.159.5,0,.7a9.77,9.77,0,0,0,2.9,2.02c.565.343,1.526.447,1.475,1.278-.055.9-1,1.1-1.705,1.387a4.128,4.128,0,0,1-3.12.049,8.878,8.878,0,0,1-2.012-.9,8.316,8.316,0,0,0-5.69-1.4c-2.37.155-3.448-1.291-2.4-3.406a23.756,23.756,0,0,1,3.289-5.7,126.47,126.47,0,0,1,14.652-14.168,1.738,1.738,0,0,0,.725-1.566c-.11-3.193-.168-6.388-.242-9.582a2.176,2.176,0,0,0-.423-1.371,15.387,15.387,0,0,1-2.3-4.321,2.806,2.806,0,0,0-1.832-1.955c-.8-.259-.922-.74-.585-1.5a28.92,28.92,0,0,0,1.681-5,6.017,6.017,0,0,0-.443-4.38,35.853,35.853,0,0,0-1.288,6.741c-.266,1.984-.621,3.954-.762,5.958-.083,1.186-1.081,2.082-1.218,3.315-.076.681-.6.157-.948-.006-.332,3.988-.656,7.9-.986,11.818a11.17,11.17,0,0,1-.176,1.338c-.3,1.437-.494,2.765,1.324,3.451.788.3.851,1.013.318,1.724-.837,1.118-1.393,2.6-3.249,2.3-.42-.07-.479.373-.639.641-.651,1.088-1.269,2.2-1.962,3.259a6.905,6.905,0,0,1-1.284,1.475c-1.747,1.479-3.2,1.2-4.314-.784-.141-.249-.262-.51-.381-.77-.63-1.378-1.143-1.65-2.594-1.453-1.285.174-1.581,1.129-1.562,2.142.039,2.124-1.3,3.277-2.849,4.273a2.5,2.5,0,0,0-1.206,1.823c-.483,2.525.072,4.983.365,7.45a3.392,3.392,0,0,0,3.053,2.409,2.21,2.21,0,0,1,1.049.271c.4.221.842.467.816.981-.031.615-.613.558-1.026.664-2.371.609-4.06.058-5.7-2.068a10.005,10.005,0,0,1-1.5-3.759c-.49-1.645-.817-3.339-1.195-5.016-.125-.554-.3-.938-.964-.6-.069.035-.166.014-.241.042-.577.208-1.378-.266-1.737.233-.422.586-.211,1.424-.222,2.157a12.727,12.727,0,0,0,.426,2.538c.423,2.252-.713,3.387-2.94,3a10.021,10.021,0,0,0-3.665.11c-.69.137-1.326.362-1.591-.629a1.609,1.609,0,0,1,.753-2,3.263,3.263,0,0,1,2.948-.331c.234.093.492.409.767.108.226-.249.066-.541-.007-.813-.523-1.979-.972-3.98-1.593-5.927a2.8,2.8,0,0,0-2.608-1.65,5.708,5.708,0,0,1-3.551-1.668C2037.737-2218.927,2036.767-2219.182,2036.413-2220.113Zm35.93-3.984c-2.443-1-4.346-.148-6.089,1.334a.542.542,0,0,1-.212.12c-1.126.266-.97.948-.568,1.72.188.362.332.75.544,1.1.866,1.415,1.908,1.6,3.113.478A15.661,15.661,0,0,0,2072.343-2224.1Zm3.128-19.825-.318-.009a9.283,9.283,0,0,0,.148,3.582Q2075.386-2242.135,2075.471-2243.921Z" fill="#8e5207"/>
    </g>
  </g>
</svg>
