<?xml version="1.0" encoding="utf-8"?>
<!-- Generator: Adobe Illustrator 24.0.0, SVG Export Plug-In . SVG Version: 6.00 Build 0)  -->
<svg version="1.1" id="Capa_1" xmlns="http://www.w3.org/2000/svg" xmlns:xlink="http://www.w3.org/1999/xlink" x="0px" y="0px"
	 viewBox="0 0 309 119" style="enable-background:new 0 0 309 119;" xml:space="preserve">
<style type="text/css">
	.st0{clip-path:url(#SVGID_2_);fill:#8E5207;}
	.st1{clip-path:url(#SVGID_6_);}
	.st2{fill:#FFB714;}
</style>
<g>
	<g>
		<defs>
			<rect id="SVGID_1_" width="309" height="119"/>
		</defs>
		<clipPath id="SVGID_2_">
			<use xlink:href="#SVGID_1_"  style="overflow:visible;"/>
		</clipPath>
		<rect class="st0" width="309" height="119"/>
	</g>
	<g>
		<defs>
			<rect id="SVGID_3_" width="309" height="119"/>
		</defs>
		<clipPath id="SVGID_4_">
			<use xlink:href="#SVGID_3_"  style="overflow:visible;"/>
		</clipPath>
	</g>
	<g>
		<defs>
			<rect id="SVGID_5_" width="309" height="119"/>
		</defs>
		<clipPath id="SVGID_6_">
			<use xlink:href="#SVGID_5_"  style="overflow:visible;"/>
		</clipPath>
		<g class="st1">
			<path class="st2" d="M-18,98.7c1.6-1.5,2.9-3.3,4.3-5c12.8-15.3,25.6-30.6,38.4-45.9c2-2.4,4.1-2.4,6.2-0.1
				c0.1,0.1,0.2,0.3,0.4,0.4c5.5,6.3,11,12.7,16.5,19C56.7,77.4,65.7,87.7,74.6,98c0.5,0.6,0.6,0.9-0.1,1.3c-0.9,0.6-1.7,1.3-2.5,2
				c-0.5,0.5-0.8,0.4-1.2-0.1c-3.5-4-7-8-10.5-12.1C49.7,77,39.1,64.8,28.4,52.5c-0.5-0.6-0.7-0.6-1.2,0
				C13.7,68.7,0.1,84.9-13.4,101.1c-0.5,0.6-0.8,0.8-1.5,0.2c-1-0.9-2.1-1.6-3.1-2.4C-18,98.8-18,98.7-18,98.7z"/>
			<path class="st2" d="M27,131c-8.3,0-16.6,0-24.9,0c-0.8,0-1.1-0.2-1.3-1c-2-11.3-4.1-22.6-6.2-33.9c-0.1-0.5,0-0.8,0.3-1.2
				c10.7-12.7,21.3-25.5,32-38.2c0.7-0.9,1.2-0.9,2,0c11,12.7,22.1,25.5,33.2,38.2c0.4,0.4,0.4,0.8,0.3,1.3
				c-3,11.3-6.1,22.6-9.1,33.9c-0.2,0.7-0.4,0.9-1.1,0.9C43.7,131,35.3,131,27,131z M36,122.6c3.3,0.1,5.8-1.5,6.4-4.1
				c0.5-2.1,0.1-4.2-1.1-6.1c-0.2-0.3-0.5-0.7-0.8-0.9c-1.5-1.2-1.5-1.2-1.7-2.9c-0.4-3.1-2.2-5.3-4.8-6.9c-1.7-1.1-3.6-1.7-5.8-1.4
				c-4.3,0.6-9,5.5-8.2,9.9c0.1,0.4-0.1,0.6-0.5,0.7c-1,0.2-1.7,0.7-2.3,1.5c-0.9,1.1-1.2,2.4-1.4,3.8c-0.5,3.8,2.3,6.8,6.3,6.5
				c2.2-0.2,4.2-0.9,6.3-1.7c0.6-0.2,1.1-0.2,1.6,0.1C31.9,122,33.9,122.6,36,122.6z M27,93.1c-0.2-3.9-1.9-7.1-5.5-9.1
				c-3.3-1.9-6.7-0.3-7.4,3.3c-0.9,4.3,2.2,9.5,6.4,11c2.2,0.8,4.4,0.1,5.6-1.7C26.8,95.6,27,94.4,27,93.1z M30.2,93
				c0,0.3,0,0.6,0,1c0.3,3.6,3.4,5.5,6.9,4.2c4.2-1.6,7-7,5.9-11.3c-0.7-2.8-3.5-4.2-6.3-3.2C33,84.9,30.2,89.1,30.2,93z
				 M17.7,103.8c0.1-3.6-2.2-7.4-5.4-9.2c-3.4-1.9-6.8-0.4-7.5,3.4c-0.8,4.3,2.2,9.4,6.4,10.9c2.2,0.8,4.4,0.1,5.6-1.7
				C17.4,106.1,17.7,104.9,17.7,103.8z M39.5,103.6c0,0.3,0,0.6,0,0.9c0.2,3.4,3.3,5.5,6.5,4.4c4.5-1.5,7.5-7,6.3-11.5
				c-0.8-3-3.5-4.3-6.5-3.2C42.3,95.6,39.5,99.7,39.5,103.6z"/>
		</g>
		<g class="st1">
			<path class="st2" d="M288.9,19c-2.3-2.3-4.2-4.8-3.6-8.3c0.3-1.8,0.4-3.6,0.5-5.5c0.1-1.9,0.1-3.8,0.3-5.6
				c0.2-2.6,1.2-5.1,2.7-7.3c1.3-1.9,3.6-3.1,5.9-3.2c2.9-0.1,5.8,0.7,8.3,2.2c0.9,0.5,1.4,1.5,1.3,2.5c-0.2,2.2,0.7,4.3,2.5,5.6
				c1.8,1.7,4,2.9,6.4,3.6c4.3,0.9,7.2,9.2,4.2,13.1c-1.4,1.8-3.3,3.1-5.5,3.6c-4.3,1.3-8.7,2.2-13.1,2.8
				C295.1,22.8,291.4,21.6,288.9,19z"/>
			<path class="st2" d="M293.2,39.7c-1.5,1.7-3.5,2.9-5.7,3.5c-3.4,0.9-5.9-0.8-6.2-4.1c-0.3-3.6,1.3-6.6,3.5-9.4
				c1.3-1.8,3.1-3.2,5.1-4c2.7-1.3,5.9-0.2,7.1,2.4c0.2,0.5,0.4,1.1,0.5,1.6c0.5,3.4-1,6.3-3.2,8.9C294,38.9,293.6,39.3,293.2,39.7z
				"/>
			<path class="st2" d="M281.8,26.8c-2.7,2.5-5.8,4.4-9.7,4.5c-3.9,0.1-6-2.4-5.2-6.1c0.4-1.6,1.1-3.1,2.2-4.4
				c1.9-2.5,4.5-4.4,7.6-5.2c1.7-0.5,3.5-0.3,5.1,0.3c2.8,1,4.1,4,3,6.7c0,0.1-0.1,0.2-0.1,0.3C284,24.4,283,25.7,281.8,26.8z"/>
			<path class="st2" d="M269.9,1.3c1.9-1.9,4.5-3.1,7.2-3.3c2.2-0.3,4.4,0.5,5.6,2.2c1.4,1.9,1.3,4.5-0.4,6.4
				c-2.7,3.5-6.4,5.5-11,5.5c-4-0.1-5.9-3-4.5-6.7C267.6,3.9,268.6,2.5,269.9,1.3z"/>
			<path class="st2" d="M304.7,25c1.2-1.3,2.9-2,4.7-2c2.4-0.2,4.5,1.3,5.1,3.5c1.1,3.9-1,10-4.4,12.6c-2.5,1.9-5.2,1.5-6.9-0.9
				C300.9,34.7,301.6,28,304.7,25z"/>
		</g>
	</g>
</g>
</svg>
