<svg xmlns="http://www.w3.org/2000/svg" xmlns:xlink="http://www.w3.org/1999/xlink" width="166" height="200.161" viewBox="0 0 166 200.161">
  <defs>
    <filter id="Elipse_99" x="0" y="0" width="166" height="167" filterUnits="userSpaceOnUse">
      <feOffset dx="3" dy="9" input="SourceAlpha"/>
      <feGaussianBlur stdDeviation="3" result="blur"/>
      <feFlood flood-opacity="0.161"/>
      <feComposite operator="in" in2="blur"/>
      <feComposite in="SourceGraphic"/>
    </filter>
    <clipPath id="clip-path">
      <ellipse id="Elipse_115" data-name="Elipse 115" cx="70.178" cy="70.178" rx="70.178" ry="70.178" fill="none"/>
    </clipPath>
  </defs>
  <g id="Componente_93_2" data-name="Componente 93 – 2" transform="translate(6)">
    <g id="Grupo_1989" data-name="Grupo 1989" transform="translate(0.048 0)">
      <g transform="matrix(1, 0, 0, 1, -6.05, 0)" filter="url(#Elipse_99)">
        <ellipse id="Elipse_99-2" data-name="Elipse 99" cx="74" cy="74.5" rx="74" ry="74.5" transform="translate(6 0)" fill="#ffb714"/>
      </g>
      <g id="Grupo_1772" data-name="Grupo 1772" transform="translate(-1098.265 2420.01)">
        <path id="Trazado_1257" data-name="Trazado 1257" d="M1147.18-2337a34.73,34.73,0,0,0,.318,15.617c.288,1.046-.391,1.71-.7,2.537-1.283,3.4.168,6.649,3.435,7.756a5.7,5.7,0,0,0,7.229-3.945,5.506,5.506,0,0,0-4.664-7.041c-2.132-.275-2.685-1.226-2.787-2.978-.105-1.82-.285-3.644-.241-5.462.183-7.613.209-7.612,7.425-9.738,4.161-1.226,4.766-3.434,1.694-6.393-1.755-1.69-3.531-3.562-3.969-5.876-.806-4.255-3.6-7.289-5.715-10.746-1.269-2.077-1.712-4.044.29-5.82.967-.858.845-1.725.639-2.763-.42-2.124-.667-4.288-1.19-6.384-.807-3.224.023-6.064,1.621-8.822,1.08-1.864,3.4-3.054,2.87-5.839-.167-.876,1.027-1.395,2-1.487.724-.069,1.421-.172,1.306-1.133-.431-3.606,2.028-3.446,4.406-3.422,6.153.063,12.3-.14,18.447.609,5.231.639,9.441,2.485,11.478,7.753.32.83.763,1.919,1.454,2.248,4.258,2.022,4.277,5.374,3.331,9.254-.511,2.095-.6,4.287-.985,6.417-.271,1.51-.4,2.75,1.05,3.933a3.213,3.213,0,0,1,.5,4.392,67.359,67.359,0,0,0-7.457,14.062c-.552,1.505-2.036,2.707-3.206,3.94-2.4,2.524-1.79,4.871,1.6,5.917.653.2,1.316.372,1.972.565,4.474,1.318,6.091,4.781,4.446,9.3a1.621,1.621,0,0,1-1.725,1.258c-3.193.062-5.2,1.961-6.863,4.438-1.653,2.46-3.389,4.863-5.083,7.3-1,1.431-1.375,2.911-.1,4.369.61.7,1.372,1.291,2.38.745a1.324,1.324,0,0,0,.676-1.987,1.749,1.749,0,0,1,.292-2.168c1.782-2.509,3.474-5.084,5.329-7.538a4.188,4.188,0,0,1,5.1-1.713,4.259,4.259,0,0,1,2.944,4.83c-.268,2.951-.667,5.89-1.006,8.834-.078.672-.029,1.427-.754,1.787-.969.481-1.874.96-1.389,2.291a1.658,1.658,0,0,0,1.629,1.012,2.738,2.738,0,0,0,2.87-1.44,5.967,5.967,0,0,0,.548-1.946c.455-3.159.907-6.319,1.278-9.488a8.93,8.93,0,0,0-.506-4.7c-2.37-5.473-2.352-5.48-2-12.4,6.143.936,10.779,3.6,13.127,9.82a171.157,171.157,0,0,1,6.3,22.345c.491,2.14-.648,2.8-2.23,3.5-26.834,11.82-53.867,12.409-81.029,1.278-7.16-2.934-5.872-1.435-4.406-8.818a103.094,103.094,0,0,1,5.888-19.605C1137.262-2333.864,1141.624-2335.76,1147.18-2337Zm18.588-36.2c-2.05,0-4.1.026-6.151-.006-2.968-.047-4.428,1.336-4.375,4.351.052,2.961-.04,5.925.02,8.886.164,8.068,7.421,16.8,15.319,18.4a10.123,10.123,0,0,0,3.394.08c7.152-1.035,15.3-9.734,15.708-16.964.238-4.2.189-8.43.063-12.641-.113-3.808-3.056-5.979-6.522-4.6C1177.567-2373.437,1171.7-2373.2,1165.768-2373.2Zm17.06,32.282c.068-2.375-1.007-2.176-2.64-1.089-4.936,3.287-9.931,3.413-15.015.245-.737-.458-1.6-1.834-2.562-.7a3.1,3.1,0,0,0-.165,3.254,8.16,8.16,0,0,0,1.308,1.976c2.593,2.849,5.369,6.975,8.889,6.778,3.619-.2,6.5-4.174,9.044-7.26A4,4,0,0,0,1182.828-2340.913ZM1153.3-2360.5c0-2.414,0-3.863,0-5.31,0-.838-.145-1.562-1.123-1.786a1.621,1.621,0,0,0-1.818.489,1.836,1.836,0,0,0,.134,2.19C1151.231-2363.712,1152.007-2362.531,1153.3-2360.5Zm38.432-.044c1.281-1.991,2.052-3.178,2.812-4.373a1.839,1.839,0,0,0,.15-2.194,1.618,1.618,0,0,0-1.822-.5c-.969.227-1.147.936-1.142,1.783C1191.738-2364.377,1191.733-2362.925,1191.733-2360.545Z" transform="translate(0 0)" fill="#8e5207"/>
        <path id="Trazado_1258" data-name="Trazado 1258" d="M1162-2282.047a2.281,2.281,0,0,1,2.318,2.424,2.281,2.281,0,0,1-2.7,2.395,2.226,2.226,0,0,1-2.169-2.568A2.3,2.3,0,0,1,1162-2282.047Z" transform="translate(-9.911 -36.872)" fill="#8e5207"/>
      </g>
      <g id="Grupo_1773" data-name="Grupo 1773" transform="translate(72.619 56.739)">
        <path id="Trazado_219" data-name="Trazado 219" d="M1101.72,470.814A13.331,13.331,0,1,1,1115,484.157a13.373,13.373,0,0,1-13.283-13.343m13.333,11.306a11.294,11.294,0,1,0-11.3-11.312,11.33,11.33,0,0,0,11.3,11.312" transform="translate(-1079.325 -457.791)" fill="#8e5207"/>
        <path id="Trazado_220" data-name="Trazado 220" d="M1120.227,480.608c-.725,0-1.449.01-2.174,0-.667-.012-1.064-.377-1.068-.944a.943.943,0,0,1,1.053-.958c1.332-.013,2.667-.041,4,.01.681.026.947-.119.907-.87-.07-1.305-.024-2.617-.017-3.926,0-.731.343-1.139.927-1.154.612-.016.976.408.979,1.174.008,1.4.016,2.8-.005,4.207-.006.43.137.568.564.562,1.4-.021,2.8-.012,4.207-.005.764,0,1.189.369,1.172.98-.017.585-.424.922-1.156.926-1.286.008-2.571,0-3.857,0-.921,0-.922,0-.922.889,0,1.285,0,2.571,0,3.856,0,.769-.359,1.2-.963,1.191s-.941-.429-.945-1.21c-.005-1.379-.018-2.758.007-4.137.009-.461-.141-.618-.6-.6-.7.032-1.4.009-2.1.008" transform="translate(-1088.151 -466.619)" fill="#8e5207"/>
      </g>
    </g>
    <g id="Grupo_1990" data-name="Grupo 1990" transform="translate(-38.999 -1087.839)">
      <text id="Veterinario" transform="translate(57 1262)" font-size="23" font-family="Montserrat-Regular, Montserrat" letter-spacing="-0.012em"><tspan x="0" y="0">Veterinario</tspan></text>
      <text id="Añadir_mi_perfil" data-name="Añadir mi perfil" transform="translate(50 1284)" fill="#919191" font-size="17" font-family="Montserrat-Regular, Montserrat" letter-spacing="-0.012em"><tspan x="0" y="0">Añadir mi perfil</tspan></text>
    </g>
  </g>
</svg>
