<svg xmlns="http://www.w3.org/2000/svg" width="58.954" height="58.946" viewBox="0 0 58.954 58.946">
  <g id="consultaLogo" transform="translate(0 0)">
    <path id="Trazado_1540" data-name="Trazado 1540" d="M656.547,447.206a6.257,6.257,0,0,1,1.339,5.536c-.245.954-.617,1.863-.95,2.787a5.363,5.363,0,0,0,.82,5.3c.653.872,1.085.972,2.042.5a38.887,38.887,0,0,0,7.509-4.767c1.363-1.125,1.532-1.7.695-3.264a22.959,22.959,0,0,0-8.43-9.021,15.8,15.8,0,0,0-6.466-1.715,16.606,16.606,0,0,0-5.932.236,5.772,5.772,0,0,0-2.52,1.312,11.059,11.059,0,0,1-8.952,3.022,8.445,8.445,0,0,0-2.38.026.962.962,0,0,0-.936,1.138,9.563,9.563,0,0,0,3.633,7.444c1.483,1.191,3.143,2.117,4.7,3.2.557.387,1.09.808,1.645,1.2a6,6,0,0,1,1.233,8.423c-2.4,3.08-3.209,6.706-3.622,10.469a44.134,44.134,0,0,0-.3,5.807,1.623,1.623,0,0,0,.669-.655,14.291,14.291,0,0,0,2-4.686A52.32,52.32,0,0,1,644.1,473.8a9.746,9.746,0,0,1,7.5-6.2c1.067-.214,1.436,0,1.261,1.062a2.325,2.325,0,0,0,1.71,2.957c2.287.88,3.306,2.86,3.763,5.148a1.336,1.336,0,0,0,.794,1.049c.4.193.778.43,1.164.651.711.407.855.732.554,1.5a6.375,6.375,0,0,1-4.861,4.027,9.863,9.863,0,0,1-1.922.144,21.258,21.258,0,0,1,.54,4.993c-.024.8-.129,1.583-.231,2.373-.057.446-.275.568-.681.6a29.479,29.479,0,1,1,26.259-33.477,28.923,28.923,0,0,1-6.655,23.178c-.363.441-.518.486-.967.038-4.488-4.481-6.68-10.136-8.315-16.083-.335-1.217-.641-2.443-.906-3.677-.12-.559-.28-.691-.809-.39a29.474,29.474,0,0,1-3.47,1.68c-.976.4-1.243.363-1.827-.521a8.722,8.722,0,0,1-.947-8.485,9.774,9.774,0,0,0,.493-7.166Zm-2.018,31.5a1.317,1.317,0,0,0,.038-2.634,1.317,1.317,0,1,0-.038,2.634Z" transform="translate(-621.307 -433.296)" fill="#8e5207"/>
    <path id="Trazado_1541" data-name="Trazado 1541" d="M706.65,486.568a1.384,1.384,0,0,1,1.4-1.422,1.4,1.4,0,0,1,1.428,1.405,1.418,1.418,0,0,1-1.412,1.428A1.4,1.4,0,0,1,706.65,486.568Z" transform="translate(-682.672 -470.578)" fill="#8e5207"/>
  </g>
</svg>
