<svg xmlns="http://www.w3.org/2000/svg" width="167.143" height="25.648" viewBox="0 0 167.143 25.648">
  <g id="estrellas" transform="translate(0 0)">
    <path id="Trazado_1243" data-name="Trazado 1243" d="M327.173,1307.131a.779.779,0,0,1-.391-.1l-7.437-4.281-7.437,4.281a.784.784,0,0,1-1.158-.841l1.774-8.4-6.266-5.749a.783.783,0,0,1,.442-1.36l8.429-.908,3.5-7.836a.817.817,0,0,1,1.431,0l3.5,7.836,8.481.908a.783.783,0,0,1,.442,1.36l-6.319,5.749,1.774,8.4a.784.784,0,0,1-.767.946Z" transform="translate(-306 -1281.514)" fill="#f1c40f"/>
    <path id="Trazado_1244" data-name="Trazado 1244" d="M612.3,1307.131a.779.779,0,0,1-.391-.1l-7.437-4.281-7.437,4.281a.783.783,0,0,1-1.158-.841l1.774-8.4-6.266-5.749a.783.783,0,0,1,.442-1.36l8.429-.908,3.5-7.836a.817.817,0,0,1,1.431,0l3.5,7.836,8.481.908a.783.783,0,0,1,.442,1.36l-6.319,5.749,1.774,8.4a.784.784,0,0,1-.767.946Z" transform="translate(-556.022 -1281.514)" fill="#f1c40f"/>
    <path id="Trazado_1245" data-name="Trazado 1245" d="M897.417,1307.131a.779.779,0,0,1-.391-.1l-7.437-4.281-7.437,4.281a.784.784,0,0,1-1.158-.841l1.774-8.4-6.266-5.749a.783.783,0,0,1,.442-1.36l8.429-.908,3.5-7.836a.817.817,0,0,1,1.431,0l3.5,7.836,8.481.908a.783.783,0,0,1,.442,1.36l-6.319,5.749,1.774,8.4a.784.784,0,0,1-.767.946Z" transform="translate(-806.044 -1281.514)" fill="#f1c40f"/>
    <path id="Trazado_1246" data-name="Trazado 1246" d="M1467.661,1307.131a.78.78,0,0,1-.391-.1l-7.437-4.281-7.437,4.281a.783.783,0,0,1-1.157-.841l1.774-8.4-6.266-5.749a.783.783,0,0,1,.442-1.36l8.429-.908,3.5-7.836a.817.817,0,0,1,1.431,0l3.5,7.836,8.481.908a.783.783,0,0,1,.442,1.36l-6.318,5.749,1.774,8.4a.783.783,0,0,1-.767.946Z" transform="translate(-1306.087 -1281.514)" fill="#b3b3b3"/>
    <path id="Trazado_1247" data-name="Trazado 1247" d="M1182.818,1307.374a.779.779,0,0,1-.391-.1l-7.437-4.281-7.437,4.281a.784.784,0,0,1-1.158-.841l1.774-8.4-6.266-5.749a.783.783,0,0,1,.442-1.36l8.429-.908,3.5-7.836a.817.817,0,0,1,1.431,0l3.5,7.836,8.481.908a.783.783,0,0,1,.442,1.36l-6.318,5.749,1.774,8.4a.784.784,0,0,1-.767.946Z" transform="translate(-1056.31 -1281.727)" fill="#b3b3b3"/>
    <path id="Trazado_1248" data-name="Trazado 1248" d="M1175,1281.76a.768.768,0,0,0-.743.422l-3.5,7.837-8.429.907a.783.783,0,0,0-.442,1.36l6.266,5.75-1.774,8.4a.784.784,0,0,0,1.158.841l7.437-4.281.027.015Z" transform="translate(-1056.298 -1281.729)" fill="#f1c40f"/>
  </g>
</svg>
