<svg xmlns="http://www.w3.org/2000/svg" xmlns:xlink="http://www.w3.org/1999/xlink" width="91" height="91" viewBox="0 0 91 91">
  <defs>
    <filter id="Elipse_7" x="0" y="0" width="91" height="91" filterUnits="userSpaceOnUse">
      <feOffset dx="3" dy="9" input="SourceAlpha"/>
      <feGaussianBlur stdDeviation="3" result="blur"/>
      <feFlood flood-opacity="0.161"/>
      <feComposite operator="in" in2="blur"/>
      <feComposite in="SourceGraphic"/>
    </filter>
  </defs>
  <g id="Fiestas" transform="translate(6)">
    <g transform="matrix(1, 0, 0, 1, -6, 0)" filter="url(#Elipse_7)">
      <circle id="Elipse_7-2" data-name="Elipse 7" cx="36.5" cy="36.5" r="36.5" transform="translate(6)" fill="#ffb714"/>
    </g>
    <g id="Grupo_1507" data-name="Grupo 1507" transform="translate(13.134 7.455)">
      <path id="Trazado_660" data-name="Trazado 660" d="M783.166,1192.532a2.42,2.42,0,0,1,.887,1.045q.718,1.268,1.43,2.539a2.865,2.865,0,0,1-.138,3.182.449.449,0,0,0-.006.617,2.915,2.915,0,0,1,.557,1.79c0,1.7.013,3.4-.012,5.1-.006.413.125.518.508.487a3.354,3.354,0,0,1,1.725.26,2.953,2.953,0,0,1,1.814,2.839q.025,5.253-.006,10.5c0,.45.111.57.554.548.789-.039,1.582-.014,2.373-.01a3.051,3.051,0,0,1,3.147,3.149.349.349,0,0,1,0,.051,1.259,1.259,0,0,0,.712,1.428,2.961,2.961,0,0,1-.317,5.11.61.61,0,0,0-.4.635q.023,4.975,0,9.949c0,.39.091.563.495.494a1.5,1.5,0,0,1,.252,0c.729,0,1.137.273,1.257.832q.159.734-.782,1.189H752.346q-.94-.454-.783-1.189c.121-.559.529-.829,1.257-.832a2.364,2.364,0,0,1,.353,0c.317.047.393-.087.392-.393q-.016-5.075,0-10.15a.461.461,0,0,0-.309-.489,3.007,3.007,0,0,1,.012-5.428.48.48,0,0,0,.293-.55,3.8,3.8,0,0,1,.586-2.545,2.977,2.977,0,0,1,2.405-1.259c.857-.028,1.717-.025,2.575,0,.385.012.508-.082.505-.491-.018-3.434-.01-6.868-.01-10.3a3.072,3.072,0,0,1,3.337-3.363c.7,0,.7,0,.7-.727,0-1.583.006-3.165,0-4.747a3.066,3.066,0,0,1,.583-1.933.393.393,0,0,0,.007-.537,2.868,2.868,0,0,1-.128-3.3c.511-.885,1.019-1.771,1.508-2.668a2.268,2.268,0,0,1,.762-.836H767a2.17,2.17,0,0,1,.762.836c.505.927,1.046,1.835,1.559,2.758a2.844,2.844,0,0,1-.151,3.177.421.421,0,0,0-.021.578,2.986,2.986,0,0,1,.582,1.883c-.009,1.33-.012,2.66,0,3.99.005.5-.222,1.18.1,1.444.306.251.964.049,1.463.095.4.037.464-.127.46-.484-.018-1.684,0-3.368-.011-5.051a2.968,2.968,0,0,1,.558-1.844.451.451,0,0,0,0-.62,2.859,2.859,0,0,1-.118-3.222c.495-.874,1-1.744,1.48-2.625a2.391,2.391,0,0,1,.811-.914h.606a2.189,2.189,0,0,1,.789.869q.727,1.321,1.477,2.629a2.872,2.872,0,0,1-.12,3.3.39.39,0,0,0,0,.537,3,3,0,0,1,.589,1.934c-.011,1.65.018,3.3-.017,4.95-.01.469.139.579.564.537a5.952,5.952,0,0,1,1.06,0c.337.027.421-.1.418-.423-.015-1.734,0-3.469-.009-5.2a2.839,2.839,0,0,1,.522-1.7.51.51,0,0,0,.011-.7,2.83,2.83,0,0,1-.124-3.135c.513-.923,1.045-1.835,1.554-2.761a2.148,2.148,0,0,1,.767-.833Zm10.812,41.588a1.031,1.031,0,0,0-.471.257,5.994,5.994,0,0,1-8.324-1.124c-.232-.305-.325-.367-.591-.016a6.036,6.036,0,0,1-9.543-.029c-.259-.345-.351-.244-.557.029a6.056,6.056,0,0,1-9.517.019c-.231-.306-.325-.365-.591-.021a6,6,0,0,1-7.466,1.691c-.462-.228-.843-.578-1.339-.833,0,2.6.011,5.136-.011,7.676,0,.419.136.486.511.485q18.689-.013,37.377-.007a1.117,1.117,0,0,1,.151,0c.277.039.377-.061.376-.357C793.974,1239.317,793.978,1236.741,793.978,1234.12Zm-19.2-10.667H758.257c-.539,0-1.078-.014-1.617,0a1.035,1.035,0,0,0-1.058,1.055c-.01.185.019.373-.007.555a.7.7,0,0,0,.451.813,2.969,2.969,0,0,1,.3,5.064c-.389.263-.3.456-.114.74a4.047,4.047,0,0,0,6.84-.038c.182-.285.243-.458-.129-.7a2.918,2.918,0,0,1-1.158-3.279,3.06,3.06,0,0,1,2.929-2.2,3.018,3.018,0,0,1,2.842,2.1,2.9,2.9,0,0,1-1.107,3.378c-.347.229-.334.389-.14.7a4.055,4.055,0,0,0,6.9-.049c.174-.286.183-.413-.127-.615a2.945,2.945,0,0,1-1.187-3.315,3.02,3.02,0,0,1,5.81,0,2.945,2.945,0,0,1-1.189,3.314c-.311.2-.3.331-.125.615a4.051,4.051,0,0,0,6.894.049c.185-.295.22-.465-.136-.7a2.9,2.9,0,0,1-1.109-3.376,3,3,0,0,1,5.731.006,2.894,2.894,0,0,1-1.117,3.374c-.367.239-.307.411-.128.7a4.062,4.062,0,0,0,6.922-.1c.144-.249.151-.361-.12-.542a2.967,2.967,0,0,1,.1-5.046,1.039,1.039,0,0,0,.582-1.095c-.029-1.1-.326-1.413-1.424-1.413Zm-.007-2.021h12.674c.246,0,.487.071.481-.356-.025-1.7-.015-3.4-.005-5.1a.491.491,0,0,0-.282-.479,1.452,1.452,0,0,0-1.963.556,3.4,3.4,0,0,1-5.527,0,1.453,1.453,0,0,0-2.547-.008,3.407,3.407,0,0,1-5.529.018,1.464,1.464,0,0,0-2.58.01,3.4,3.4,0,0,1-5.494,0,1.67,1.67,0,0,0-1.141-.749.969.969,0,0,0-1.215,1.042c0,1.5.016,3-.01,4.494-.008.443.087.588.566.586C766.389,1221.423,770.58,1221.432,774.771,1221.432Zm13.113-8.043a1.167,1.167,0,0,0,.027-.151q0-1.263,0-2.525c0-1.089-.32-1.407-1.416-1.407H763.064a4.266,4.266,0,0,0-.454.007.991.991,0,0,0-.944.9c-.037,1.067-.011,2.136-.011,3.213a3.462,3.462,0,0,1,3.839,1.3,1.458,1.458,0,0,0,2.551-.061,3.406,3.406,0,0,1,5.465-.028,1.474,1.474,0,0,0,2.639-.008,3.427,3.427,0,0,1,5.439,0c.8,1.013,1.738,1.108,2.473.2A3.6,3.6,0,0,1,787.885,1213.389Zm-4.011-9.033c0-.874.009-1.748,0-2.622a1.063,1.063,0,0,0-1-1.115,1.037,1.037,0,0,0-1.017,1.092c-.012,1.748,0,3.5-.01,5.244,0,.273.093.346.349.335a12.323,12.323,0,0,1,1.26,0c.324.02.435-.076.425-.415C783.857,1206.037,783.873,1205.2,783.873,1204.356Zm-18.189-.1c0,.487-.014.975,0,1.462.019.513-.231,1.216.107,1.487.321.257,1,.06,1.513.089.3.016.408-.057.4-.383-.017-1.714,0-3.428-.01-5.142a1.018,1.018,0,1,0-2.017.017C765.679,1202.606,765.685,1203.429,765.685,1204.253Zm10.1.068c0-.874.011-1.748,0-2.622a1.008,1.008,0,1,0-2.012,0c-.013,1.748,0,3.5-.009,5.243,0,.253.058.363.334.35.453-.021.908-.021,1.361,0,.275.012.339-.094.335-.349C775.781,1206.068,775.789,1205.194,775.789,1204.32Zm7.08-8.722c-.337.592-.636,1.094-.911,1.608a.912.912,0,0,0,.3,1.159.931.931,0,0,0,1.206,0,.9.9,0,0,0,.3-1.158C783.49,1196.694,783.2,1196.189,782.869,1195.6Zm-16.177.006c-.332.594-.633,1.108-.909,1.636a.864.864,0,0,0,.3,1.112.888.888,0,0,0,1.2.023.859.859,0,0,0,.348-1.1C767.363,1196.727,767.034,1196.209,766.692,1195.6Zm8.085-.006c-.321.571-.61,1.071-.883,1.579a.917.917,0,0,0,.292,1.194.935.935,0,0,0,1.239-.039.924.924,0,0,0,.244-1.169C775.4,1196.667,775.109,1196.179,774.777,1195.6Zm.019,33.917a1.085,1.085,0,0,0,.991-1.013,1.008,1.008,0,1,0-.991,1.013Zm-19.218-1.016a1.008,1.008,0,1,0-2.016.042,1.008,1.008,0,0,0,2.016-.042Zm9.115-1a1.008,1.008,0,1,0,.989,1.019A1.064,1.064,0,0,0,764.693,1227.5Zm20.172,2.014a1.007,1.007,0,1,0-.989-1.01A1.052,1.052,0,0,0,784.865,1229.512Zm10.123-2.014a1.071,1.071,0,0,0-1.007,1,1.056,1.056,0,0,0,1.034,1.017,1.008,1.008,0,0,0-.027-2.016Z" transform="translate(-751.541 -1192.532)" fill="#8e5207"/>
      <path id="Trazado_661" data-name="Trazado 661" d="M1056.633,1641.514c1.3,0,2.592-.006,3.888,0a1.012,1.012,0,0,1,1.076.8.951.951,0,0,1-.476,1.07,1.207,1.207,0,0,1-.678.152c-2.575,0-5.15,0-7.725,0a1.054,1.054,0,0,1-1.186-1.023c.011-.6.486-.993,1.215-1C1054.041,1641.512,1055.337,1641.514,1056.633,1641.514Z" transform="translate(-1021.216 -1596.143)" fill="#8e5207"/>
      <path id="Trazado_662" data-name="Trazado 662" d="M1013.542,1642.575a1.009,1.009,0,1,1-.977-1.027A1.058,1.058,0,0,1,1013.542,1642.575Z" transform="translate(-985.254 -1596.174)" fill="#8e5207"/>
    </g>
  </g>
</svg>
