<svg id="foto-perfil" xmlns="http://www.w3.org/2000/svg" xmlns:xlink="http://www.w3.org/1999/xlink" width="293.995" height="510.131" viewBox="0 0 293.995 510.131">
  <defs>
    <clipPath id="clip-path">
      <rect id="Rectángulo_647" data-name="Rectángulo 647" width="249.032" height="468.594" fill="#81623c"/>
    </clipPath>
  </defs>
  <g id="Grupo_1355" data-name="Grupo 1355" transform="translate(-183.61 -25.089)">
    <path id="Trazado_219" data-name="Trazado 219" d="M1101.72,490.429a32.963,32.963,0,1,1,32.845,32.992,33.067,33.067,0,0,1-32.845-32.992m32.967,27.955a27.927,27.927,0,1,0-27.93-27.971,28.015,28.015,0,0,0,27.93,27.971" transform="translate(-690.041 -29.739)" fill="#81623c"/>
    <path id="Trazado_220" data-name="Trazado 220" d="M1125.31,492.911c-1.862,0-3.722.026-5.582-.01-1.713-.032-2.733-.967-2.743-2.425a2.421,2.421,0,0,1,2.7-2.459c3.421-.034,6.847-.105,10.263.026,1.748.067,2.433-.306,2.329-2.235-.18-3.352-.063-6.72-.044-10.081.012-1.877.88-2.925,2.38-2.964,1.572-.042,2.505,1.048,2.515,3.015.02,3.6.041,7.2-.013,10.8-.016,1.1.351,1.459,1.449,1.443,3.6-.054,7.2-.032,10.8-.014,1.962.01,3.053.949,3.01,2.517-.043,1.5-1.089,2.367-2.97,2.378-3.3.02-6.6.006-9.9.007-2.365,0-2.367,0-2.367,2.283,0,3.3.01,6.6-.006,9.9-.01,1.974-.921,3.074-2.473,3.058s-2.417-1.1-2.426-3.108c-.014-3.541-.046-7.083.019-10.623.022-1.185-.362-1.588-1.543-1.534-1.8.082-3.6.022-5.4.02" transform="translate(-690.041 -29.739)" fill="#81623c"/>
  </g>
  <text id="Tu_foto_de_perfil" data-name="Tu foto de perfil" transform="translate(56.929 504.131)" fill="#81623c" font-size="25" font-family="Montserrat-SemiBold, Montserrat" font-weight="600" letter-spacing="-0.017em"><tspan x="0" y="0">Tu foto de perfil</tspan></text>
  <g id="Grupo_1354" data-name="Grupo 1354">
    <g id="Grupo_1353" data-name="Grupo 1353" clip-path="url(#clip-path)">
      <path id="Trazado_448" data-name="Trazado 448" d="M70.911,293.665c7.729-5.5,15.8-10.467,23.838-15.494,4.461-2.789,8.5-6.25,12.831-9.254,1.591-1.1,1.209-2.573,1.375-4a54.622,54.622,0,0,1,3.427-15.011A186.451,186.451,0,0,0,125.7,196.859c3.2-31.477,5.521-63.044,8.217-94.572a14.463,14.463,0,0,1,4.951-10.041A121.775,121.775,0,0,1,151.6,82.6c1.573-1.049,5.106-1.089,3.984-4.061-1.112-2.945-1.839-7.384-5.628-7.6-7.082-.4-7.327-4.579-8.528-10.179-1.9-8.87-2.129-17.788-2.312-26.63-.1-5.019-.537-10.538,1.69-15.521a13.909,13.909,0,0,0,1.074-3.31C143.86,3.6,147.128.206,158.9.009c15.876-.266,28.652,5.76,36.816,20.079,3.182,5.581-.253,9.776-2.36,14.381-3.988,8.718-8.375,17.313-8.84,27.2-.09,1.934-.211,4.049,1.484,4.986,4.369,2.416,7.717,6.281,12.471,8.174,12.151,4.838,22.815,11.584,29.47,23.458,2.783,4.967,5.588,10.1,6.743,15.5,3.35,15.649,8.317,30.8,13.34,45.914,2.8,8.421-.837,15.3-3.459,22.476-3.616,9.9-10.215,17.918-17.7,25.131-3.552,3.423-5.181,6.963-4.181,11.944.91,4.527-.318,9.356,1.454,13.8,1.982,4.976,4.425,9.788,6.109,14.857,1.205,3.629,2.842,7.044,3.475,11.012,2.467,15.473.064,31.156,2.505,46.591a15.7,15.7,0,0,1-.535,7.906c-.713,1.954-1.819,3.687-4.292,3.455-2.513-.235-3.15-2.154-3.43-4.241-.6-4.47,1.437-8.476,2.277-12.7,2.458-12.339,2.023-24.672.136-37.048-.646-4.242-4.875-6.069-6.512-9.931,0,9.369-.334,18.754.1,28.1.373,8.005-.308,15.966-.2,23.95a35.455,35.455,0,0,0,.16,5.45c.419,2.494,2.573,5.829-2.753,5.616-.991-.04-1,1.18-1,1.983.013,2.159-.265,4.4.23,6.458,1.021,4.24-.416,6.554-4.7,6.759-3.81.182-4.089,1.767-3.2,5.124,2.837,10.76,6.546,21.419,5.492,32.834-.293,3.175,2.586,2.967,4.189,4.114,1.336.957,3.39,1.608,3.381,3.373-.011,2.227-2.509,1.935-3.869,2.194-3.63.689-4.524,2.746-4.837,6.176-1.149,12.605-2.548,25.191-4.069,37.758-.82,6.785.784,11.884,7.416,15.137,4.133,2.027,3.9,2.6-.057,4.849-1.038.588-1.387,7.7-.447,9.107,4.169,6.234,2.974,10.751-4.249,12.5-17.122,4.138-34.487,5.556-52,2.518-1.591-.276-3.686-.3-4.218-2.106-.575-1.956.962-2.891,2.734-3.457,1.156-.369,1.151-1.517,1.019-2.521-.179-1.352-1.363-1.228-2.295-1.4a19.126,19.126,0,0,0-8.39.519c-12.491,3.16-25.031,2.309-37.538.064-1.5-.269-3.568-.244-3.953-2.4-.433-2.432,1.8-2.725,3.152-3.853,2.772-2.314,5.705-3.942,9.382-4.129,1.667-.085,2.536-1.105,3.1-2.746,1.082-3.177,3.764-4.008,6.794-3.788,6.154.449,12.311-4.391,13.65-10.462.41-1.854,1.568-3.861,3.908-4.075,3.06-.28,2.872-1.963,2.225-4.181a51.064,51.064,0,0,0-6.825-14.884c-6.474-9.448-13.2-18.8-15.716-30.387-1.039-4.788-3.682-6.083-8-3.5-11.653,6.972-25.169,8.755-37.4,14.041a4.757,4.757,0,0,1-2.364.69c-6.538-1.19-6.455,3.324-6.548,7.568-.286,12.978-1.089,25.947-1.576,38.908-.274,7.28-2.157,14.632-1.846,22.127.1,2.315-1.481,3.6-3.884,3.611-3.161.019-6.33.184-9.479-.005-1.866-.112-4.851,1.935-5.355-1.41-.405-2.689.147-6.12,3.028-7.318,3.825-1.59,4.892-4.533,4.851-7.923-.175-14.637,1.275-29.323-1.148-43.9-1.038-6.242-3.343-8.759-8.008-9.291-2.235-.256-3.593.074-3.548,2.64.22,12.638-2.974,25.193-.932,37.876.026.163.175.44.145.458-5.231,3.11-.975,9.385-4.372,13.1a6.106,6.106,0,0,0-1.178,1.516c-4.39,9.923-4.812,10.214-14.958,7.414-2.455-.677-6.59-1.679-6.426-3.652.291-3.52,3.9-6.236,7.4-6.281,5.6-.072,7.327-3.29,7.937-7.7,1.475-10.662.034-21.253-1.44-31.79a82.5,82.5,0,0,0-13.662-35c-4.284-6.383-4.263-14.512-5.54-21.971-.616-3.6-.82-6.947-3.228-10.121-3.563-4.694-2.82-11.212-5.961-16.269-.852-1.372-.937-2.966-2.99-1.393-2.583,1.98-3.772.416-3.873-1.984-.354-8.38-.14-16.576,5.164-23.884,6.357-8.76,23.781-11.573,32.7-5.279,3.321,2.343,5.893,4.709,6.943,8.781.472,1.828,2.1,3.342,3.114,5.051,1.444,2.433,2.85,3.392,5.295.87,1.475-1.521,3.573-2.476,5.568-.361l.1-.105a12.62,12.62,0,0,0-3.361.343c-1.689.647-3.444,1.549-2.217,3.931,1.013,1.969,2.093,3.89,4.653,1.712-2.122,3.329-1.369,4.661,2.7,5.536a105.938,105.938,0,0,0,33.154,2.223,119.826,119.826,0,0,1,18.465-.133c15.147.8,15.015.8,14.71-14.787a178.457,178.457,0,0,1,1.492-29.809c.543-3.65-.782-4-3.805-3.094-4.917,1.47-9.062,5.539-14.841,4.305-.813-.173-2.111.958-2.885,1.771-1.658,1.743-3.864,2.525-5.789,3.78-5.948,3.877-12.317,7.443-17.274,12.383-3.1,3.094-6.11,5.359-10.1,6.644Zm124.65,119.882a50.922,50.922,0,0,0-.927-16.409c-1.577-6.788-3.589-13.525-3.876-20.533-.2-4.882-2.415-8.353-6.3-11.081-7.923,26.655-5.91,35.748,11.105,48.023m-17.635,3.706c.378,4.366-1.643,8.194,3.324,11.175a5.773,5.773,0,0,1,.787,8.793c-2.994,2.92-.51,6.315-1.323,9.38a1.1,1.1,0,0,0,1.224,1.241c2.295-.364,3.714-2.1,5.033-3.771.854-1.083,2.545-2.632,1.181-3.854-2.86-2.559-2.03-4.847-.338-7.406a2.792,2.792,0,0,0,.077-3.259c-2.738-4.248-5.025-8.864-9.965-12.3M232.67,299.711c-1.427,3.834-2.954,7.563-2.882,11.623.026,1.469.225,3.321,2.13,3.4,1.638.072,1.888-1.634,2.126-2.919a19.648,19.648,0,0,0-1.374-12.108" fill="#81623c"/>
      <path id="Trazado_449" data-name="Trazado 449" d="M70.91,293.665l2.98,3.806c-5.111,2.4-10.706,4.076-13.964,9.269.223-1.48-1.623-2.486-.934-4.074l-.1.106c4.823-.285,6.948-4.418,10.038-7.14.675-.594.818-1.79,1.978-1.967" fill="#81623c"/>
    </g>
  </g>
</svg>
