<svg xmlns="http://www.w3.org/2000/svg" xmlns:xlink="http://www.w3.org/1999/xlink" width="91" height="91" viewBox="0 0 91 91">
  <defs>
    <filter id="Elipse_7" x="0" y="0" width="91" height="91" filterUnits="userSpaceOnUse">
      <feOffset dx="3" dy="9" input="SourceAlpha"/>
      <feGaussianBlur stdDeviation="3" result="blur"/>
      <feFlood flood-opacity="0.161"/>
      <feComposite operator="in" in2="blur"/>
      <feComposite in="SourceGraphic"/>
    </filter>
  </defs>
  <g id="Funeraria" transform="translate(6)">
    <g transform="matrix(1, 0, 0, 1, -6, 0)" filter="url(#Elipse_7)">
      <circle id="Elipse_7-2" data-name="Elipse 7" cx="36.5" cy="36.5" r="36.5" transform="translate(6)" fill="#ffb714"/>
    </g>
    <g id="Grupo_1509" data-name="Grupo 1509" transform="translate(12.394 7.44)">
      <path id="Trazado_665" data-name="Trazado 665" d="M1556.025,1708.532a26.819,26.819,0,0,1,3.387.614,16.806,16.806,0,0,1,11.835,12.628,17.66,17.66,0,0,1,.365,3.674q.006,11.906-.009,23.812c0,.446.127.534.54.529,1.7-.022,3.408-.01,5.113-.009a1.473,1.473,0,0,1,1.682,1.664c0,1.77,0,3.539,0,5.308a1.462,1.462,0,0,1-1.684,1.653l-44.6,0a1.464,1.464,0,0,1-1.675-1.663q-.009-2.678,0-5.356a1.443,1.443,0,0,1,1.6-1.6c1.753-.007,3.506-.012,5.259.009.388,0,.479-.113.478-.492-.011-7.84.005-15.679-.016-23.519a17.05,17.05,0,0,1,2.729-9.681,16.587,16.587,0,0,1,6.365-5.729,16.336,16.336,0,0,1,6.27-1.776,1.242,1.242,0,0,0,.232-.065Zm-1.063,41.253q6.646,0,13.291,0c.279,0,.478.022.478-.387q-.02-12.05-.01-24.1a13.074,13.074,0,0,0-1.705-6.708,13.491,13.491,0,0,0-11.878-7.15,12.872,12.872,0,0,0-8.12,2.518,13.557,13.557,0,0,0-5.833,11.548c-.006,7.92.005,15.839-.01,23.759,0,.451.137.527.546.526C1546.134,1749.78,1550.548,1749.785,1554.962,1749.785Z" transform="translate(-1530.967 -1708.532)" fill="#8e5207"/>
      <path id="Trazado_666" data-name="Trazado 666" d="M1725.008,1780c0-1.055-.021-2.111.01-3.165.012-.421-.127-.522-.522-.5-.615.031-1.233.008-1.85,0-1.025-.007-1.663-.558-1.667-1.435,0-.893.648-1.459,1.691-1.464.584,0,1.173-.039,1.752.015.525.05.615-.158.6-.623-.035-.859-.025-1.72,0-2.58a1.429,1.429,0,0,1,1.1-1.429,1.41,1.41,0,0,1,1.557.63,1.7,1.7,0,0,1,.233.931c0,.893.011,1.785-.006,2.678-.006.3.077.4.382.388.7-.022,1.4-.018,2.094-.007a1.455,1.455,0,0,1,1.559,1.448,1.434,1.434,0,0,1-1.556,1.446c-.682.014-1.364.025-2.045,0-.347-.013-.437.1-.435.439q.022,3.238.009,6.476a1.468,1.468,0,0,1-1.272,1.581,1.445,1.445,0,0,1-1.625-1.518c-.018-1.1,0-2.208,0-3.311Z" transform="translate(-1702.47 -1762.903)" fill="#8e5207"/>
      <path id="Trazado_667" data-name="Trazado 667" d="M1688.628,2028.861c-2.678,0-5.356,0-8.034,0a1.441,1.441,0,1,1,.021-2.875c1.152-.018,2.3-.007,3.457-.007h12.32a2.29,2.29,0,0,1,.91.117,1.433,1.433,0,0,1-.541,2.76c-1.7.014-3.409.006-5.113.006Z" transform="translate(-1664.641 -1995.051)" fill="#8e5207"/>
      <path id="Trazado_668" data-name="Trazado 668" d="M1688.676,2081.894c-2.677,0-5.355.005-8.032,0a1.415,1.415,0,0,1-1.511-1.43,1.365,1.365,0,0,1,1.263-1.411c.549-.045,1.1-.035,1.654-.035q7.254,0,14.507.005a1.737,1.737,0,0,1,1.149.311,1.439,1.439,0,0,1,.464,1.576,1.412,1.412,0,0,1-1.413.982q-4.04.008-8.081,0Z" transform="translate(-1664.7 -2042.925)" fill="#8e5207"/>
      <path id="Trazado_669" data-name="Trazado 669" d="M1688.676,1975.953c-2.677,0-5.355.005-8.033,0a1.433,1.433,0,1,1-.03-2.861c1.185-.017,2.369-.007,3.554-.007l12.22,0a2.559,2.559,0,0,1,.915.094,1.472,1.472,0,0,1,.916,1.6,1.405,1.405,0,0,1-1.314,1.167c-.6.028-1.2.016-1.8.016h-6.427Z" transform="translate(-1664.687 -1947.308)" fill="#8e5207"/>
    </g>
  </g>
</svg>
