<svg xmlns="http://www.w3.org/2000/svg" xmlns:xlink="http://www.w3.org/1999/xlink" width="91" height="91" viewBox="0 0 91 91">
  <defs>
    <filter id="Elipse_7" x="0" y="0" width="91" height="91" filterUnits="userSpaceOnUse">
      <feOffset dx="3" dy="9" input="SourceAlpha"/>
      <feGaussianBlur stdDeviation="3" result="blur"/>
      <feFlood flood-opacity="0.161"/>
      <feComposite operator="in" in2="blur"/>
      <feComposite in="SourceGraphic"/>
    </filter>
  </defs>
  <g id="Gimnasio" transform="translate(6)">
    <g transform="matrix(1, 0, 0, 1, -6, 0)" filter="url(#Elipse_7)">
      <circle id="Elipse_7-2" data-name="Elipse 7" cx="36.5" cy="36.5" r="36.5" transform="translate(6)" fill="#ffb714"/>
    </g>
    <g id="Grupo_1510" data-name="Grupo 1510" transform="translate(7.331 8.506)">
      <path id="Trazado_670" data-name="Trazado 670" d="M2244.092,2718.359a4.047,4.047,0,0,1-.876.915c-.5.362-.855.212-.91-.4a2.442,2.442,0,0,1,.522-1.926,6.024,6.024,0,0,0-1.411.238c-1.758.345-3.5.745-5.272,1.045a1.024,1.024,0,0,1-1.057-.386c-.028-.034-.069-.061-.087-.1-.421-.885-1.093-.936-1.954-.7a6.789,6.789,0,0,1-4.27-.312,9.877,9.877,0,0,0-7.684.519,1.407,1.407,0,0,0-.318.237c-.484.414-.971.825-1.448,1.248a8.158,8.158,0,0,1-5.774,1.912,6.1,6.1,0,0,0-4.521,2.006,14.917,14.917,0,0,0-1.093,1.041,2.984,2.984,0,0,1-2.959.87,2.818,2.818,0,0,1-.6-.149c-.484-.176-.523-.418-.123-.757a2.169,2.169,0,0,1,1.318-.582,2.636,2.636,0,0,0,2.2-1.375c.343-.536.646-1.09.98-1.726a5.635,5.635,0,0,0-1.5.547c-1.286.616-2.461,1.422-3.676,2.159a3.546,3.546,0,0,1-3.375-.186c-.292-.224-.279-.426.071-.655a2.52,2.52,0,0,1,1.653-.407,2.463,2.463,0,0,0,2.076-.9,16.273,16.273,0,0,0,1.313-1.623,2.055,2.055,0,0,1,1.026-.733,18.2,18.2,0,0,1,2.791-.728,3.281,3.281,0,0,0,2.5-1.784,3.815,3.815,0,0,1,1.182-1.531c.146-.1.152-.276.257-.479-.6.235-1.139.465-1.688.653a11.781,11.781,0,0,1-10.8-1.481,16.431,16.431,0,0,1-3.439-2.924,3.641,3.641,0,0,1-.414-.681c-.061-.114-.115-.267.011-.368.111-.089.222.02.323.071,1.308.66,2.627,1.3,3.985,1.853a15.834,15.834,0,0,0,5.7,1.4,6.713,6.713,0,0,0,2.8-.565,6.914,6.914,0,0,1,4.994-.065.506.506,0,0,0,.5-.016,8.5,8.5,0,0,1,3.835-1.146,63.179,63.179,0,0,0,6.91-.917,12.932,12.932,0,0,0,4.634-2.05,12.609,12.609,0,0,1,3.094-1.537c.306-.1.586-.23.633-.671a.706.706,0,0,1,.7-.582.623.623,0,0,0,.489-.208,18.835,18.835,0,0,1,4.737-3.185.865.865,0,0,0,.375-.419,29.487,29.487,0,0,1,1.755-2.828,2.213,2.213,0,0,1,.2-.24c.281-.276.444-.238.553.141a5.883,5.883,0,0,1,.159,1.719c0,.068,0,.136,0,.314a20.968,20.968,0,0,1,1.4-1.822,4.2,4.2,0,0,1-.02,1.712c-.055.529-.167,1.052-.256,1.578-.02.114-.088.238.06.312a1.367,1.367,0,0,1,.589.806,1.318,1.318,0,0,0,.818.75,17.6,17.6,0,0,0,2.92,1.039,3.764,3.764,0,0,1,.464.147c.289.1.392.282.176.53-.253.291-.361.683-.668.934a1.98,1.98,0,0,1-1.289.33c.086.157.216.118.317.141.436.094.506.287.211.622a1.244,1.244,0,0,1-.924.362,10.376,10.376,0,0,1-2.348-.149c-1.546-.254-2.7.557-3.895,1.3-.094.059-.177.1-.058.268a.63.63,0,0,1-.073.9c-.01.01-.036.014-.036.02,0,.614-.016,1.228.007,1.841,0,.1.206.083.318.106q1.719.35,3.44.692c.589.118.75.284.769.889a7.827,7.827,0,0,1-.047,1.02c-.022.223.057.308.272.359.792.189.9.3.857,1.117-.071,1.2-.172,2.394-.313,3.585a3.432,3.432,0,0,1-1.6,2.3c-.4.3-.7.14-.781-.363a2.384,2.384,0,0,1,.392-1.861A1.624,1.624,0,0,0,2244.092,2718.359Z" transform="translate(-2196.659 -2697.575)" fill="#8e5207"/>
      <path id="Trazado_671" data-name="Trazado 671" d="M2270.146,2785.09c1.227-.7,2.368-1.357,3.507-2.013,3.106-1.787,6.207-3.582,9.321-5.354a.89.89,0,0,0,.542-.929c-.042-.857,0-1.718-.019-2.578-.006-.293.092-.376.382-.379.929-.008.927-.02.927.887q0,9.047,0,18.092c0,.575,0,.575.569.574h.134c.643,0,.63,0,.635.664,0,.238-.019.332-.3.328-1.126-.018-2.252-.02-3.378.012-.536.016-.337-.346-.377-.6-.047-.292.039-.429.371-.416s.77.156.98-.066.061-.65.062-.987q.012-3.291.008-6.58c0-.117-.011-.233-.017-.353-.19-.024-.275.12-.383.205q-6.314,5.016-12.629,10.03a.79.79,0,0,0-.341.7q.015,5.8,0,11.6c0,.321.064.459.412.432.367-.029.738,0,1.107-.006.187,0,.268.051.257.253a4.988,4.988,0,0,0,.012.8c.036.329-.107.392-.4.39q-2.579-.018-5.156,0c-.259,0-.357-.045-.36-.336-.016-1.1-.029-1.1,1.06-1.1.931,0,.931,0,.931-.925q.007-10.98.012-21.96c0-1.882,0-3.764-.019-5.646,0-.356.1-.464.451-.442a10.307,10.307,0,0,0,1.288,0c.332-.02.427.092.424.426-.017,1.614-.007,3.229-.007,4.843C2270.146,2784.773,2270.146,2784.888,2270.146,2785.09Zm0,9.126c.155-.107.229-.154.3-.208q6.414-5.1,12.832-10.194a.681.681,0,0,0,.244-.621c-.006-1.259-.008-2.518-.015-3.777a.821.821,0,0,0-.041-.43.509.509,0,0,0-.325.123q-6.328,3.645-12.658,7.286a.585.585,0,0,0-.34.592c.013,2.163.007,4.325.007,6.488Z" transform="translate(-2247.356 -2753.329)" fill="#8e5207"/>
    </g>
  </g>
</svg>
