<svg xmlns="http://www.w3.org/2000/svg" xmlns:xlink="http://www.w3.org/1999/xlink" width="1920.479" height="1080.574" viewBox="0 0 1920.479 1080.574">
  <defs>
    <clipPath id="clip-path">
      <rect id="Rectángulo_163" data-name="Rectángulo 163" width="1920.479" height="1080.574" transform="translate(0 -0.004)" fill="none"/>
    </clipPath>
  </defs>
  <g id="Grupo_281" data-name="Grupo 281" transform="translate(0 0.004)" clip-path="url(#clip-path)">
    <g id="Grupo_2010" data-name="Grupo 2010" transform="translate(-12 10)">
      <path id="Trazado_144" data-name="Trazado 144" d="M1588.18,304.007a109.762,109.762,0,1,1-109.762-109.792A109.777,109.777,0,0,1,1588.18,304.007" fill="#81623c"/>
      <path id="Trazado_145" data-name="Trazado 145" d="M1494.3,420.225c-.783,6.832,3.19,9.675,7.037,12.648,4.654,3.6,7.995,7.743,6.114,14.168-.561,1.916-1.221,3.764-3.321,3.955-7.505.683-15.072,1.813-22.538,1.4-4.593-.254-6.55-4.952-6.958-9.285-.776-8.227-1.19-16.487-1.778-25.088-10.483,2.945-20.717,2.01-32.952-.462,4.022,3.57,6.684,4.879,10.07,4.8a17.376,17.376,0,0,1,3.457.236c9.884,1.787,12.235,7.176,6.737,15.368-5.737,8.548-14.874,10.418-21.97,4.434a8.5,8.5,0,0,1-2.658-3.137c-4.119-11.287-14.369-15.021-24.208-19.312a6.781,6.781,0,0,0-4.07-.126,106.256,106.256,0,0,1-45.724-2.631c-2.9-.8-5.911-1.855-5.563-5.133.416-3.929,4.225-2.983,6.8-2.9,10.657.337,20.916-1.719,31.136-4.347,2.253-.579,4.081-.806,3.382-3.8-3.894-16.672.737-32.069,8.523-46.482,8.686-16.079,14.2-33.551,23.349-49.381a11.71,11.71,0,0,1,.934-1.851c7.5-8.728,11.6-19.05,15.758-29.609,4.677-11.886,12.873-22.318,14.4-35.6.547-4.758,1.534-9.481,1.876-14.313.257-3.622-.8-5.756-3.951-7.88-9.138-6.17-9.924-10.44-4.143-19.551,3.466-5.461,7.076-10.849,10.907-16.066,2.212-3.012,5.347-6.373,9.259-5.139,8.485,2.675,15.565-1.268,22.955-3.61,3.8-1.205,7.067-2.124,10.378.789,2.38,2.1,4.9,1.066,7.16-.211,5.662-3.2,11.339-6.389,16.816-9.877,5.547-3.533,10.786-2.881,12.086,3.241,1.461,6.883,3.833,14.186.927,21.415-1.385,3.447-3.1,6.736-6.184,9.064-3.574,2.7-5.941,6.512-9.127,9.512-4.1,3.862-5.02,7-1.482,12.165,5.055,7.379,3.8,10.167-4.424,13.931-1.5.688-2.094,1.315-2.228,2.9a91.446,91.446,0,0,0,4.634,36c1.944,5.992,8.258,10.033,9.528,17.207,2.9,16.372-1.472,31.581-6.632,46.624-3.313,9.662-4.443,19.283-2.331,29.107a261.536,261.536,0,0,0,7.7,29.381c2.586,7.6,1.8,15.467,3.608,23.043.977,4.092,2.478,7.529,7.742,7.181a10.893,10.893,0,0,1,2.722.628c4.292.907,7.873,3.6,7.913,7.6.045,4.54-4.214,7.775-8.432,7.929-6.143.225-12.881,4.271-18.581-1.554-.99-1.013-2.223-.328-3.266.109-4.132,1.727-7.536.4-9.858-2.92-5.243-7.494-14.323-8.856-21.533-14.565m16.325-42.933c1.28,7.765-.791,14.8-3.713,21.947-4.39,10.742-2.012,14.1,9.471,16.929,5.8,1.429,6.872-.861,5.862-5.523-2.478-11.437-5.856-22.6-11.62-33.353m-3.462-9.139c-1.587-3.447-1.006-6.919-.926-11.414-2.691,1.926-6.038,3.232-6.032,4.522.019,3.818,4.208,4.855,6.958,6.892" fill="#ffb714"/>
    </g>
  </g>
</svg>
