<svg xmlns="http://www.w3.org/2000/svg" xmlns:xlink="http://www.w3.org/1999/xlink" width="74" height="74" viewBox="0 0 74 74">
  <defs>
    <filter id="Trazado_1566" x="0" y="0" width="74" height="74" filterUnits="userSpaceOnUse">
      <feOffset dx="3" dy="9" input="SourceAlpha"/>
      <feGaussianBlur stdDeviation="3" result="blur"/>
      <feFlood flood-opacity="0.161"/>
      <feComposite operator="in" in2="blur"/>
      <feComposite in="SourceGraphic"/>
    </filter>
  </defs>
  <g id="Grupo_2170" data-name="Grupo 2170" transform="translate(-1150 -38)">
    <g transform="matrix(1, 0, 0, 1, 1150, 38)" filter="url(#Trazado_1566)">
      <path id="Trazado_1566-2" data-name="Trazado 1566" d="M28,0A28,28,0,1,1,0,28,28,28,0,0,1,28,0Z" transform="translate(6)" fill="#ffb714"/>
    </g>
    <g id="Grupo_2169" data-name="Grupo 2169" transform="translate(884.162 4308.674)">
      <path id="Trazado_1567" data-name="Trazado 1567" d="M339.557-4171.833c2.249.048,4.386.369,5.846,2.371a29.262,29.262,0,0,0,2.481,2.868c.89.937,1.794,1.866,2.619,2.859a10.324,10.324,0,0,1,2.323,4.8,4.744,4.744,0,0,1-1.271,4.271,9.714,9.714,0,0,1-5.029,2.749,1.717,1.717,0,0,1-1.822-.6,4.424,4.424,0,0,0-3.98-1.578,10.567,10.567,0,0,0-4.858,1.223c-2.5,1.51-8.036-1.128-8.512-4.371a6.434,6.434,0,0,1,.86-4.3,55.351,55.351,0,0,1,4.91-7.354A7.733,7.733,0,0,1,339.557-4171.833Z" transform="translate(-38.582 -73.378)" fill="#8e5207"/>
      <path id="Trazado_1568" data-name="Trazado 1568" d="M327.22-4249.293a7.566,7.566,0,0,1,1-4.283,3.084,3.084,0,0,1,4.994-.866,9.06,9.06,0,0,1,2.95,6.152,7.945,7.945,0,0,1-.467,4.3,3.558,3.558,0,0,1-5.584,1.554c-1.959-1.406-2.629-3.493-2.888-5.764A9.7,9.7,0,0,1,327.22-4249.293Z" transform="translate(-38.518 -3.953)" fill="#8e5207"/>
      <path id="Trazado_1569" data-name="Trazado 1569" d="M397.1-4252.256a9.336,9.336,0,0,1,2.434-6.627,3.315,3.315,0,0,1,5.5.52,7.084,7.084,0,0,1,1.127,3.143,8.891,8.891,0,0,1-1.087,6.008,5.113,5.113,0,0,1-2.6,2.178,3.614,3.614,0,0,1-4.848-2.087A7.5,7.5,0,0,1,397.1-4252.256Z" transform="translate(-96.613)" fill="#8e5207"/>
      <path id="Trazado_1570" data-name="Trazado 1570" d="M462.873-4200.6a7.46,7.46,0,0,1-1.777,4.9,3.987,3.987,0,0,1-3.817,1.508,3.53,3.53,0,0,1-2.978-3.242,8.307,8.307,0,0,1,2.547-7.67c1.949-1.8,4.318-1.266,5.439,1.143A7.44,7.44,0,0,1,462.873-4200.6Z" transform="translate(-144.065 -44.837)" fill="#8e5207"/>
      <path id="Trazado_1571" data-name="Trazado 1571" d="M290.435-4180.984a4.231,4.231,0,0,1-1.242,3.124,3.314,3.314,0,0,1-4.156.662,9.305,9.305,0,0,1-4.134-8.092,2.931,2.931,0,0,1,3.739-2.731C287.462-4187.444,290.423-4183.848,290.435-4180.984Z" transform="translate(0 -59.854)" fill="#8e5207"/>
    </g>
  </g>
</svg>
