<svg id="guardar" xmlns="http://www.w3.org/2000/svg" width="37.869" height="37.866" viewBox="0 0 37.869 37.866">
  <path id="Trazado_1235" data-name="Trazado 1235" d="M-1646.116-3926.119a18.887,18.887,0,0,1,18.9,19.128,18.909,18.909,0,0,1-19.126,18.738,18.908,18.908,0,0,1-18.742-19.014A18.906,18.906,0,0,1-1646.116-3926.119Zm-17.691,18.9a17.717,17.717,0,0,0,17.615,17.7,17.708,17.708,0,0,0,17.717-17.708,17.714,17.714,0,0,0-17.695-17.624A17.735,17.735,0,0,0-1663.806-3907.218Z" transform="translate(1665.08 3926.119)" fill="#8e5207"/>
  <g id="Grupo_1737" data-name="Grupo 1737" transform="translate(11.601 9.008)">
    <path id="Trazado_1249" data-name="Trazado 1249" d="M804.98-3852.936q0-4.464,0-8.929c0-.923.057-.978.96-.978q6.362,0,12.724,0c.9,0,.953.057.954.984q0,8.929,0,17.858c0,.357.114.8-.341.97-.4.149-.628-.19-.88-.422-1.9-1.749-3.8-3.487-5.68-5.253-.333-.313-.509-.3-.835.005-1.862,1.749-3.747,3.472-5.627,5.2-.266.244-.5.635-.934.464-.484-.192-.333-.67-.334-1.047C804.976-3847.033,804.98-3849.984,804.98-3852.936Zm1.006,8.276c2-1.837,3.855-3.515,5.673-5.236.5-.47.821-.437,1.3.013,1.7,1.6,3.423,3.17,5.143,4.745.13.119.219.352.473.257a.656.656,0,0,0,.035-.145c0-5.411-.005-10.822.018-16.233,0-.567-.268-.58-.681-.579-3.748.007-7.5.018-11.244-.01-.614,0-.729.205-.727.765.019,5.213.011,10.425.011,15.637Z" transform="translate(-804.963 3862.844)" fill="#8e5207" stroke="#8e5207" stroke-width="0.8"/>
  </g>
</svg>
