<svg xmlns="http://www.w3.org/2000/svg" xmlns:xlink="http://www.w3.org/1999/xlink" width="187.219" height="176" viewBox="0 0 187.219 176">
  <defs>
    <filter id="Elipse_13" x="0" y="0" width="176" height="176" filterUnits="userSpaceOnUse">
      <feOffset dx="3" dy="9" input="SourceAlpha"/>
      <feGaussianBlur stdDeviation="3" result="blur"/>
      <feFlood flood-opacity="0.161"/>
      <feComposite operator="in" in2="blur"/>
      <feComposite in="SourceGraphic"/>
    </filter>
  </defs>
  <g id="historia6" transform="translate(-1015)">
    <g id="Grupo_1905" data-name="Grupo 1905" transform="translate(411)">
      <g transform="matrix(1, 0, 0, 1, 604, 0)" filter="url(#Elipse_13)">
        <circle id="Elipse_13-2" data-name="Elipse 13" cx="79" cy="79" r="79" transform="translate(6)" fill="#fff"/>
      </g>
      <circle id="Elipse_133" data-name="Elipse 133" cx="74" cy="74" r="74" transform="translate(616 5)" fill="#e3e3e3"/>
      <g id="Grupo_1906" data-name="Grupo 1906" transform="translate(440.28 1538.319)">
        <path id="Trazado_1346" data-name="Trazado 1346" d="M225.976-1485.441a55.2,55.2,0,0,1-5.422,4.647c-3.083,2.462-6.029,5.04-7.212,9.242-1.339-1.362-2.494-2.6-3.723-3.77-1.124-1.063-2.3-2.08-3.5-3.05-2.429-1.951-2.453-1.935-1.571-4.974a29.9,29.9,0,0,1,3.529-8.221c2.952-4.493,7.027-6.53,12.424-5.68.3.047.6.055,1.06.094-3.812-2.365-10.094-1.449-13.543,1.875-2.484,2.393-3.866,5.452-5.1,8.585-1.155,2.928-2.234,5.885-3.379,8.816a22.544,22.544,0,0,1-3.122,5.329,3.8,3.8,0,0,1-1.507,1.3,1.36,1.36,0,0,1-2.027-1.424,8.172,8.172,0,0,1,1.515-4.018c1.866-2.708,2.058-5.668,1.53-8.761-.381-2.238-.89-4.456-1.222-6.7-.551-3.741.577-5.859,3.956-7.548a39.178,39.178,0,0,1,11.994-3.993c4.024-.572,7.781.472,11.435,2.052,3.706,1.6,7.125,3.745,10.68,5.632a2.115,2.115,0,0,0,2.4-.073,14.026,14.026,0,0,1,6.376-2.208,3.437,3.437,0,0,1,3.56,1.856c2.432,4.06,3.315,8.531,3.827,13.123a58.689,58.689,0,0,1-.363,16.364c-.223,1.32-.728,1.485-1.829,1.135a61.908,61.908,0,0,0-11.448-2.612,69.327,69.327,0,0,0-17.3.306c-.668.087-1.577.636-2.024-.02a3.8,3.8,0,0,1-.677-3.088,9.455,9.455,0,0,1,1.6-3.158c1.839-2.573,4.142-4.742,6.213-7.113A17.786,17.786,0,0,0,225.976-1485.441Z" fill="#afafad"/>
        <path id="Trazado_1347" data-name="Trazado 1347" d="M274.431-1499.4c.225-.342.433-.7.678-1.023,2.01-2.682,4.535-2.93,7.01-.7a16.216,16.216,0,0,1,3.909,6.065c1.533,3.676,2.445,7.554,3.663,11.332a27.923,27.923,0,0,0,3.257,7.33.893.893,0,0,1-.041,1.308c-2.687,3.316-2.661,3.326-5.527.292-.779-.825-1.6-1.618-2.418-2.4-1.946-1.85-3.937-3.653-5.852-5.534a31.854,31.854,0,0,1-4.822-6.2,12.577,12.577,0,0,0,2.142,5.043,50.241,50.241,0,0,0,7.247,8.242c1.279,1.275,2.516,2.595,3.81,3.855a1.486,1.486,0,0,1,.335,2.023c-1.153,2.285-1.108,2.33-3.661,1.832a53.923,53.923,0,0,0-26.027,1.39c-1.319.392-1.669.194-1.53-1.214a90.069,90.069,0,0,0-1.189-24.2c-.278-1.62-.242-3.293-.4-4.937-.087-.885.237-1.154,1.116-1.17a45.76,45.76,0,0,1,12,.978c.9.224,1.236.085,1.507-.853a17.875,17.875,0,0,1,3.946-7.284c3.422-3.732,8.987-4.089,12.386-1a12.525,12.525,0,0,0,5.58,2.528c2.4.62,4.8,1.224,7.184,1.886a18.862,18.862,0,0,1,2.759,1c4.493,2.045,5.761,3.694,4.745,9.663-.5,2.932-2.205,5.433-3.433,8.1a13.127,13.127,0,0,0-1.428,8.092,9.466,9.466,0,0,0,.662,1.885,1.153,1.153,0,0,1-.05,1.313c-.423.47-.945.325-1.431.127a9.74,9.74,0,0,1-3.347-2.453,23.178,23.178,0,0,1-4.738-8.446c-1.392-3.884-2.629-7.825-4.056-11.7a19.308,19.308,0,0,0-5.145-8.173,5.264,5.264,0,0,0-5.458-1.237A4.662,4.662,0,0,0,274.431-1499.4Z" fill="#afafad"/>
        <path id="Trazado_1348" data-name="Trazado 1348" d="M228.124-1467.178a55.4,55.4,0,0,1,16.917,2.618,18.525,18.525,0,0,0,11.769.057c9.338-3.143,18.721-3.342,28.282-1.609a26.44,26.44,0,0,0,4.923.5c1.617-.015,2.116.627,1.94,2.122-.09.766-.058,1.548-.074,2.322-.026,1.23-.2,2.255-1.619,2.805-1.273.491-1.367,1.843-1.415,3.05a22.971,22.971,0,0,1-1.6,7.85,14.516,14.516,0,0,1-14.339,9.573,26.939,26.939,0,0,1-5.847-.573c-7.477-1.707-12.318-7.4-13.295-15.63a6.909,6.909,0,0,0-.832-2.953,2.472,2.472,0,0,0-4.343-.231,6.225,6.225,0,0,0-1.081,2.706,38.1,38.1,0,0,1-2.187,7.573c-2.61,6.108-7.535,8.782-13.88,9.252-8.312.616-14.258-3.264-17.147-11.09a27.371,27.371,0,0,1-1.541-6.778c-.125-1.252-.468-2.343-1.786-2.819a.97.97,0,0,1-.635-.8c-.074-.354-.166-.7-.225-1.061-.781-4.731-.782-4.744,3.844-5.5A83.957,83.957,0,0,1,228.124-1467.178Zm57.415,11.435c-.012-.275-.025-.895-.072-1.512-.274-3.609-1.472-5.14-4.933-6.24a14.747,14.747,0,0,0-2.408-.556,45.494,45.494,0,0,0-16.59,1.131,5.326,5.326,0,0,0-4.364,5.624,32.03,32.03,0,0,0,.32,4.629c.861,6.284,4.694,10.509,10.648,11.787a20.021,20.021,0,0,0,7.236.141,10.649,10.649,0,0,0,8.668-6.646A21.207,21.207,0,0,0,285.539-1455.743Zm-55.024-8.532c-1.083,0-2.17-.059-3.249.012a18.928,18.928,0,0,0-7.626,1.766,5.512,5.512,0,0,0-3.22,4.577,20.542,20.542,0,0,0,.191,4.314c.947,9.344,6.352,14.044,15.021,13.125,6.165-.653,10.1-4.064,11.646-10.075a22.808,22.808,0,0,0,.6-6.137c-.064-3.736-1.263-5.421-4.806-6.635A22.152,22.152,0,0,0,230.515-1464.275Z" fill="#afafad"/>
        <path id="Trazado_1349" data-name="Trazado 1349" d="M240.6-1412.211a8.228,8.228,0,0,0,3.876.345c.525-.134,1.029-.338,1.091-.938a1.165,1.165,0,0,0-.8-1.208,21.3,21.3,0,0,0-2.217-.661c-.845-.226-1.725-.349-2.543-.646-2.744-1-3.241-3.761-1.053-5.716a7.866,7.866,0,0,1,3.127-1.646,24.682,24.682,0,0,1,14.629.188,7.007,7.007,0,0,1,2.44,1.309,2.985,2.985,0,0,1-.437,5.139,19.026,19.026,0,0,1-2.577,1.032c-.867.328-1.76.594-2.608.964a1.446,1.446,0,0,0-.987,1.589c.126.735.811.9,1.425.982a12.218,12.218,0,0,0,2.005.1c1.036-.027,1.012.4.54,1.094a9.712,9.712,0,0,1-2.9,2.25c-2.749,1.9-5.421,2.155-8.2.076-.9-.673-2-1.081-2.925-1.721A4.092,4.092,0,0,1,240.6-1412.211Zm10.39-9.554a31.545,31.545,0,0,0-6.289-.051,6.68,6.68,0,0,0-3.05,1c-.292.2-.612.453-.519.871s.453.52.817.585a5.77,5.77,0,0,0,2.736-.235C246.8-1420.241,248.8-1421.2,250.994-1421.765Z" fill="#afafad"/>
        <path id="Trazado_1350" data-name="Trazado 1350" d="M278.822-1437.07c-.825,1.493-1.5,2.684-2.146,3.89a18.342,18.342,0,0,0-2.526,8.017,16.145,16.145,0,0,1-2.264,7.469,44.758,44.758,0,0,0-6.8-19.431C269.727-1436.193,274.126-1435.632,278.822-1437.07Z" fill="#afafad"/>
        <path id="Trazado_1351" data-name="Trazado 1351" d="M228.721-1411.152a19.623,19.623,0,0,0,10.989,6.435,19.347,19.347,0,0,0,8.294-.043,6.667,6.667,0,0,1,3.026.034,21.119,21.119,0,0,0,15.4-2.247,17.718,17.718,0,0,0,3.187-2.448,10.461,10.461,0,0,1-3.517,3.575,23.557,23.557,0,0,1-10.745,3.642c-7.824.819-15.36-.053-22.215-4.286A11.439,11.439,0,0,1,228.721-1411.152Z" fill="#afafad"/>
        <path id="Trazado_1352" data-name="Trazado 1352" d="M226.705-1423.853c-.151-4.695-1.684-8.935-3.874-13.324a24.177,24.177,0,0,0,11.387.8A38.528,38.528,0,0,0,226.705-1423.853Z" fill="#afafad"/>
        <path id="Trazado_1353" data-name="Trazado 1353" d="M236.427-1404.065a37.868,37.868,0,0,0,25.08,1.245C256.58-1397.524,241.749-1398.223,236.427-1404.065Z" fill="#afafad"/>
        <path id="Trazado_1354" data-name="Trazado 1354" d="M272.893-1462.732a22.154,22.154,0,0,1,7.229.851c2.72.858,3.575,2.015,3.687,4.824a20.985,20.985,0,0,1-1.044,8.393,9.216,9.216,0,0,1-8.351,6.365,20.439,20.439,0,0,1-5.253-.093c-5.881-.987-9.387-4.88-10.125-11.246a33.3,33.3,0,0,1-.224-3.4c-.033-2.49,1.2-3.912,3.824-4.459A64.723,64.723,0,0,1,272.893-1462.732Zm1.571,6.811a2.333,2.333,0,0,0,.9-1.3,1.652,1.652,0,0,0-.152-2.116,2.51,2.51,0,0,0-2.52-1.068,1.317,1.317,0,0,0-1.094.955,1.328,1.328,0,0,0,.475,1.518,1.344,1.344,0,0,0,1.459.1c.318-.138.375-.666.931-.526Zm-7.964,3.774a7.073,7.073,0,0,1-1.5-3.231C264.1-1452.769,264.3-1452.276,266.5-1452.147Z" fill="#afafad"/>
        <path id="Trazado_1355" data-name="Trazado 1355" d="M229.74-1462.66a24.5,24.5,0,0,1,8.429.805c3.2.992,4.028,2.142,4.068,5.475a20.515,20.515,0,0,1-.858,6.413c-1.645,5.277-5.9,8.043-12.219,7.946-5.149-.08-8.806-3.02-10.245-8.242a29.476,29.476,0,0,1-.871-6.578,4.239,4.239,0,0,1,2.892-4.443C223.766-1462.475,226.748-1462.577,229.74-1462.66Zm1.291,5.14a1.272,1.272,0,0,0,1.328-1.35,1.227,1.227,0,0,0-1.274-1.4,1.217,1.217,0,0,0-1.348,1.326A1.288,1.288,0,0,0,231.031-1457.52Zm-6.242.481a8.073,8.073,0,0,1,1.561-4.312C223.77-1460.144,223.609-1459.662,224.789-1457.039Zm8.505,4.548c.673-.025,1.39.211,1.552-.441a2.989,2.989,0,0,0-.549-2.584A6.312,6.312,0,0,1,233.294-1452.491Z" fill="#afafad"/>
      </g>
    </g>
    <path id="Icon_awesome-check-circle" data-name="Icon awesome-check-circle" d="M35.438,18A17.438,17.438,0,1,1,18,.563,17.437,17.437,0,0,1,35.438,18ZM15.983,27.233,28.921,14.3a1.125,1.125,0,0,0,0-1.591L27.33,11.114a1.125,1.125,0,0,0-1.591,0L15.188,21.665l-4.926-4.926a1.125,1.125,0,0,0-1.591,0L7.079,18.329a1.125,1.125,0,0,0,0,1.591l7.313,7.313a1.125,1.125,0,0,0,1.591,0Z" transform="translate(1166.781 117.248)" fill="#beb9b5"/>
  </g>
</svg>
