<svg xmlns="http://www.w3.org/2000/svg" xmlns:xlink="http://www.w3.org/1999/xlink" width="91" height="91" viewBox="0 0 91 91">
  <defs>
    <filter id="Elipse_7" x="0" y="0" width="91" height="91" filterUnits="userSpaceOnUse">
      <feOffset dx="3" dy="9" input="SourceAlpha"/>
      <feGaussianBlur stdDeviation="3" result="blur"/>
      <feFlood flood-opacity="0.161"/>
      <feComposite operator="in" in2="blur"/>
      <feComposite in="SourceGraphic"/>
    </filter>
  </defs>
  <g id="Hotel" transform="translate(6)">
    <g transform="matrix(1, 0, 0, 1, -6, 0)" filter="url(#Elipse_7)">
      <circle id="Elipse_7-2" data-name="Elipse 7" cx="36.5" cy="36.5" r="36.5" transform="translate(6)" fill="#ffb714"/>
    </g>
    <g id="Grupo_1504" data-name="Grupo 1504" transform="translate(6.309 9.095)">
      <path id="Trazado_643" data-name="Trazado 643" d="M1034.356,439.624c-6.442.425-6.423.425-6.448-5.778-.021-5.222-.065-10.445-.161-15.666a2.774,2.774,0,0,1,1.163-2.561q9.291-6.919,18.518-13.922a1.545,1.545,0,0,1,2.23.033q8.977,6.974,18.013,13.874a2.7,2.7,0,0,1,1.149,2.368c0,6.654.014,13.308.084,19.961.013,1.2-.347,1.754-1.575,1.625-.283-.03-.572,0-.858,0-1.288,0-2.728.352-3.825-.108-1.4-.589-.131-2.269-.657-3.357-.613-1.27-.489-3.018-2.5-3.359-.843-.143-2.637-7.872-2.1-8.608a1.943,1.943,0,0,1,.705-.467,3.123,3.123,0,0,0,1.7-3.95,2.076,2.076,0,0,1,.188-1.651c.453-.755.948-1.165,1.4.047a3.758,3.758,0,0,0,.752,1.279,1.638,1.638,0,0,0,2.312.306c.827-.608.557-1.391.125-2.1a12,12,0,0,0-1.029-1.369c-2.224-2.694-2.246-2.709-4.52-.126-.5.569-.9.786-1.622.428a3.645,3.645,0,0,0-2.885-.468,3.753,3.753,0,0,1-4.141-.563,1.608,1.608,0,0,0-1.222-.2c-1.911.4-3.351,5.453-2,6.914.73.788,2.016.267,2.354-1.068a12.389,12.389,0,0,0,.121-2.347c.022-.411-.045-.921.615-.877.624.042.621.479.51.925-.55,2.2-.517,4.128,2.025,5.131.457.18.262.762.18,1.168q-.637,3.151-1.307,6.294a1.743,1.743,0,0,1-1.159,1.383,3.836,3.836,0,0,0-2.334,4.563c.511,2.4-.534,2.481-2.254,2.326-.492-.044-.991-.007-1.736-.007.97-2.433.031-4.491-.736-6.606-.826-2.278-1.535-4.6-2.249-6.915-.286-.927-.345-1.808.788-2.349,1.863-.89,2-2.379,1.358-4.151-.362-.994-.578-2.04-.94-3.356-.971.852-1.481,2.062-2.87,2.053-1.483-.01-1.861-1.346-2.973-2.323a12.2,12.2,0,0,1-1.164,4.261,2.128,2.128,0,0,0,.873,3.122,2.351,2.351,0,0,1,1.091,2.9c-.605,3.036-1.945,5.82-2.821,8.759C1034.081,436.591,1033.493,438.06,1034.356,439.624Z" transform="translate(-1018.094 -392.66)" fill="#8e5207"/>
      <path id="Trazado_644" data-name="Trazado 644" d="M1062.416,406.569c-.453-.311-.93-.614-1.38-.951-7.9-5.921-15.832-11.789-23.646-17.818-1.649-1.272-2.629-1.132-4.193.078-7.921,6.124-15.941,12.121-23.945,18.137-.439.33-.89,1.225-1.592.507a27.887,27.887,0,0,1-2.392-2.942,5.161,5.161,0,0,1,.891-.829c9.254-6.971,18.528-13.913,27.747-20.931,1.07-.814,1.688-.684,2.693.056q13.734,10.109,27.571,20.077c1.512,1.084,1.71,1.816.213,2.922C1063.71,405.373,1063.354,406.247,1062.416,406.569Z" transform="translate(-1005.268 -381.263)" fill="#8e5207"/>
    </g>
  </g>
</svg>
