<svg id="like" xmlns="http://www.w3.org/2000/svg" width="57.397" height="57.392" viewBox="0 0 57.397 57.392">
  <path id="Trazado_1261" data-name="Trazado 1261" d="M-1489.306-4156.532c2.233.047,4.355.366,5.8,2.353a29.115,29.115,0,0,0,2.464,2.848c.884.93,1.781,1.853,2.6,2.838a10.248,10.248,0,0,1,2.307,4.765,4.711,4.711,0,0,1-1.262,4.242,9.645,9.645,0,0,1-4.993,2.729,1.7,1.7,0,0,1-1.809-.6,4.394,4.394,0,0,0-3.952-1.567,10.494,10.494,0,0,0-4.823,1.215c-2.479,1.5-7.978-1.12-8.451-4.339a6.389,6.389,0,0,1,.854-4.266,54.957,54.957,0,0,1,4.875-7.3A7.676,7.676,0,0,1-1489.306-4156.532Z" transform="translate(1519.139 4182.707)" fill="#8e5207"/>
  <path id="Trazado_1262" data-name="Trazado 1262" d="M-1501.556-4234.037a7.51,7.51,0,0,1,.993-4.252,3.062,3.062,0,0,1,4.958-.859,8.992,8.992,0,0,1,2.928,6.107,7.893,7.893,0,0,1-.463,4.272,3.532,3.532,0,0,1-5.544,1.542c-1.945-1.4-2.61-3.467-2.868-5.723A9.69,9.69,0,0,1-1501.556-4234.037Z" transform="translate(1519.203 4252.233)" fill="#8e5207"/>
  <path id="Trazado_1263" data-name="Trazado 1263" d="M-1431.675-4237.011a9.272,9.272,0,0,1,2.417-6.581,3.292,3.292,0,0,1,5.465.517,7.034,7.034,0,0,1,1.119,3.12,8.828,8.828,0,0,1-1.079,5.966,5.08,5.08,0,0,1-2.579,2.162,3.587,3.587,0,0,1-4.813-2.072A7.439,7.439,0,0,1-1431.675-4237.011Z" transform="translate(1461.024 4256.192)" fill="#8e5207"/>
  <path id="Trazado_1264" data-name="Trazado 1264" d="M-1538.409-4165.733a4.2,4.2,0,0,1-1.233,3.1,3.289,3.289,0,0,1-4.126.657,9.238,9.238,0,0,1-4.1-8.034,2.91,2.91,0,0,1,3.713-2.712C-1541.361-4172.147-1538.422-4168.577-1538.409-4165.733Z" transform="translate(1557.777 4196.251)" fill="#8e5207"/>
  <path id="Trazado_1265" data-name="Trazado 1265" d="M-1365.965-4185.341a7.4,7.4,0,0,1-1.765,4.867,3.956,3.956,0,0,1-3.79,1.5,3.5,3.5,0,0,1-2.957-3.219,8.246,8.246,0,0,1,2.528-7.615c1.935-1.789,4.287-1.257,5.4,1.135A7.387,7.387,0,0,1-1365.965-4185.341Z" transform="translate(1413.503 4211.29)" fill="#8e5207"/>
  <path id="Trazado_1266" data-name="Trazado 1266" d="M-1578.048-4312.7a28.627,28.627,0,0,1,28.653,28.991,28.658,28.658,0,0,1-28.989,28.4,28.657,28.657,0,0,1-28.407-28.817A28.656,28.656,0,0,1-1578.048-4312.7Zm-26.813,28.648a26.853,26.853,0,0,0,26.7,26.83,26.838,26.838,0,0,0,26.853-26.839,26.85,26.85,0,0,0-26.819-26.712A26.881,26.881,0,0,0-1604.861-4284.057Z" transform="translate(1606.792 4312.705)" fill="#8e5207"/>
</svg>
