<svg id="logofacebook" xmlns="http://www.w3.org/2000/svg" width="18.413" height="35.024" viewBox="0 0 18.413 35.024">
  <path id="Trazado_443" data-name="Trazado 443" d="M13.811,0c.936,0,1.878.051,2.811.093.611.025,1.219.112,1.791.174L18.37,5.906h-.448c-.619,0-1.237-.008-1.856-.008-.464,0-.928.005-1.392.021-1.493.05-2.592.61-2.67,2.477-.047,1.344-.082,4.313-.084,4.469.078,0,1.554.006,3.04.006.743,0,1.471,0,1.976-.006h1.207c-.3,2.166-.58,4.245-.882,6.337H11.922L11.8,35.024H5.243l.121-15.847H0l.048-6.3H5.437l0-.474c.01-1.269-.007-2.539.04-3.809A15.746,15.746,0,0,1,5.687,6.18a7.164,7.164,0,0,1,2.874-4.7A8.236,8.236,0,0,1,13.288.006c.174,0,.348-.006.523-.006" fill="#363739"/>
</svg>
