<svg id="logotwitter" xmlns="http://www.w3.org/2000/svg" width="36.373" height="29.484" viewBox="0 0 36.373 29.484">
  <path id="Trazado_444" data-name="Trazado 444" d="M91.558,8.311a11.62,11.62,0,0,1-.844,1.142,14.153,14.153,0,0,1-2.721,2.577l-.128.236a20.155,20.155,0,0,1-.164,3.3A22.082,22.082,0,0,1,81.675,28.06,20.055,20.055,0,0,1,71.4,33.77a22.93,22.93,0,0,1-4.153.488q-.336.01-.67.01a20.85,20.85,0,0,1-11.21-3.213l-.18-.112a16.272,16.272,0,0,0,1.75.1,15.1,15.1,0,0,0,5.707-1.112,14.735,14.735,0,0,0,3.553-2.075,7.381,7.381,0,0,1-6.88-5.166,7.164,7.164,0,0,0,1.382.134A7.778,7.778,0,0,0,62.5,22.6l.112-.056a7.407,7.407,0,0,1-5.875-7.367,7.327,7.327,0,0,0,3.307.892,7.457,7.457,0,0,1-2.18-9.9A21.087,21.087,0,0,0,73.15,13.952c-.039-.307-.078-.557-.119-.822a7.22,7.22,0,0,1,1.137-4.86A7.175,7.175,0,0,1,79.234,4.9a8.237,8.237,0,0,1,1.355-.115,7.178,7.178,0,0,1,5.146,2.191.393.393,0,0,0,.272.128.506.506,0,0,0,.116-.016,14.746,14.746,0,0,0,4.343-1.658l.1-.056A7.337,7.337,0,0,1,87.4,9.426a14.412,14.412,0,0,0,4.157-1.114" transform="translate(-55.185 -4.784)" fill="#363739"/>
</svg>
