<?xml version="1.0" encoding="utf-8"?>
<!-- Generator: Adobe Illustrator 24.0.0, SVG Export Plug-In . SVG Version: 6.00 Build 0)  -->
<svg version="1.1" id="Capa_1" xmlns="http://www.w3.org/2000/svg" xmlns:xlink="http://www.w3.org/1999/xlink" x="0px" y="0px"
	 viewBox="0 0 241.8 96.4" style="enable-background:new 0 0 241.8 96.4;" xml:space="preserve">
<style type="text/css">
	.st0{fill:#8E5207;}
</style>
<title>botonAceptar</title>
<g>
	<path class="st0" d="M55,88.6c0.5,0,1,0,1.5,0c2.6-0.1,5.2-0.2,7.8,0c2.4,0.2,3.4,1,3.2,3.4c-0.1,1.2-1.1,1.7-1.6,1.7
		c-1.5,0.1-2.9,0.8-4.5,0.4c-3-0.9-6.1-0.5-9.2,0.1c-5.6,1.2-11,0.3-16.3-1.3c-1.6-0.5-1.9-1.3-1.3-3c0.6-1.4,1.7-2.6,1.7-4.3
		c0-0.5,0.3-1.3-0.3-1.5c-0.5-0.3-1,0.4-1.3,0.7c-2.9,3-6.1,5.3-10.3,6c-2,0.3-3.9,0.2-5.8-0.3c-1.8-0.5-3.7-1.1-5.6-0.7
		c-1.2,0.3-2.3,0.8-3.3,1.6c-0.5,0.4-1,1-1,1.6c0.2,2-1.1,1.4-2,1.1c-1.9-0.6-3.7-1.4-5-2.9c-1.6-1.6-1.4-3.3,0.4-4.6
		c1.7-1.3,3.7-1.9,5.7-2.5c5.6-1.7,11.3-2.8,16.9-4.3c5.8-1.5,9.8-4.9,11.9-10.4c0.6-1.5,1.2-3.1,1.7-4.6c1.6-5.4,4.5-10,7.8-14.5
		c3-4.1,6.9-7.1,11.2-9.6c1.3-0.7,2.5-1.4,3.8-2.1c3.8-2,5.7-5.3,6.2-9.5c0.4-3.7,0.2-7.5,1.4-10.9c1.6-4.7,1.1-9.1-0.2-13.7
		c-0.1-0.5-0.5-1.1,0-1.4c0.6-0.3,0.9,0.4,1.3,0.8c0.3,0.4,0.5,0.8,0.9,1.4c0.4-1.4,0.1-2.6,0.2-3.8c0-0.4-0.2-1,0.3-1.2
		c0.6-0.3,0.9,0.3,1.2,0.6c1.6,1.9,2.8,4,3.6,6.4c0.6,1.7,1.5,2.2,3.2,1.6c2.8-1.1,5.5-1.2,7.9,0.9c1.3,1.1,2.7,0.8,4,0.1
		c2.1-1.2,4.6-1.1,6.8-1.9c0.6-0.2,0.9,0.1,1.1,0.7c0.5,2.3,0.4,4.9-2.2,6.3c-1.5,0.9-3.1,1.3-4.7,1.8c-1.1,0.4-2.1,0.8-3.1,1.3
		c-0.3,0.2-0.6,0.3-0.6,0.6c0,0.5,0.4,0.6,0.8,0.7c2.8,0.6,5.5,0.6,8.1-1.1c0.4,0.5,0.8,1.1,1.6,1.3c0.6,0.2,0.6,0.9,0.3,1.4
		c-0.6,1.1-1.4,1.9-2.7,2.1c-1.3,0.2-2.6,0.4-3.9,0.7c-3.5,0.8-4.9,2.8-4.6,6.4c0.1,1.1,0.4,2.1,0.9,3.1c2,4.7,3.8,9.4,4.7,14.5
		c1,5.8-0.5,10.5-5.4,14c-1.1,0.8-1.6,1.9-1.6,3.1c0,4.1-0.3,8.3,0.8,12.4c0.5,2.1,0.6,4.2,0.9,6.3c0.4,3.2,0.8,3.6,4,4.1
		c1.8,0.3,2.6,1.2,2.9,3c0.1,0.9-0.1,1.3-1,1.3c-1.8,0-3.5,0.1-5.3,0.1c-0.8,0-1.2,0-0.9,1c0.3,1.1-0.3,1.8-2.2,1.7
		c-2.8-0.2-5.6,0.3-8.4-0.7c-2.6-0.9-3.3-1.9-3.1-4.6c0.1-1.3,0.1-2.6-0.6-3.8c-0.4-0.6-0.5-1.3-0.2-1.9c0.1-0.2,0.1-0.5,0.2-0.8
		c0.8-4.2-0.3-6-4.4-7.2c-0.3-0.1-0.7-0.2-1-0.3c-0.9-0.5-1.4-0.1-1.7,0.7c-0.5,1.2-1,2.4-1.4,3.7c-1.3,3.9-4.1,6.1-7.8,7.5
		c-0.7,0.3-1.5,0.6-2.2,0.8C55,88.4,55,88.5,55,88.6z M81.2,79.8c-0.3,1-0.6,1.9-0.8,2.9c-0.6,2-0.5,4,0.3,5.9
		c0.5,1.3,1.7,1.2,2.8,1.1c1.1-0.1,0.3-1.1,0.5-1.6c0.1-0.2,0-0.5,0-0.7c0.2-1.3-0.2-2.2-1.6-2.6c-0.8-0.2-0.8-0.9-0.8-1.5
		C81.7,82.1,81.7,80.9,81.2,79.8z"/>
</g>
<g>
	<path class="st0" d="M170.5,28.1c-0.2,0.1-0.4,0.2-0.7,0.2c-2.4,0.3-4.1,1.6-5.4,3.5c-0.9,1.4-1.6,2.8-2.5,4.3
		c-1.1,1.9-2.4,3.6-4,5.1c-2.7,2.4-5.8,3.2-9.3,2.5c-1.7-0.3-3.3-0.9-4.8-1.5c-3.3-1.3-6.8-1.5-10.3-1.4c-2.8,0.1-5.4,0.9-7.9,2.2
		c-1.3,0.7-2.7,1.4-4.1,1.9c-0.3,0.1-0.7,0.2-1.1,0.2c0.4-0.4,0.8-0.6,1.1-0.7c1.7-0.8,3.2-1.7,4.7-2.9c0.1-0.1,0.3-0.2,0.4-0.5
		c-3.5,1.6-7.3,1.4-11.1,1.7c0.2-0.3,0.5-0.3,0.7-0.4c2.2-0.6,4.5-1.1,6.7-1.7c1.2-0.4,2.3-0.8,3.4-1.5c0.2-0.1,0.3-0.2,0.5-0.4
		c-2.2,0-4.3,0.2-6.5,0.2c0-0.1,0-0.1,0-0.2c0.8-0.1,1.7-0.2,2.5-0.3c3.6-0.4,7.1-1.2,10.6-2.4c1.2-0.5,2.2-1.2,2.9-2.3
		c0.3-0.5,0.3-0.7-0.3-0.9c-0.3-0.1-0.7-0.2-1-0.3c-2.1-0.5-4.2-1.1-6.3-1.9c-0.1,0-0.1,0-0.2-0.1c-0.2-0.1-0.4-0.1-0.4-0.4
		c0-0.2,0.2-0.3,0.3-0.4c0.1-0.1,0.2-0.1,0.2-0.3c-0.9-0.3-1.8-0.7-2.8-1c-0.8-0.2-1.7-0.5-2.4-0.9c-0.4-0.2-0.7-0.5-0.7-1
		c0.1-0.5,0.5-0.7,0.9-0.8c0.4-0.1,0.8-0.2,1.2-0.4c0.9-0.4,0.9-1,0.2-1.6c-0.9-0.7-2-1.1-3-1.8c-0.6-0.4-1.2-0.9-1.7-1.4
		c-0.2-0.3-0.5-0.4-0.8-0.5c-1.9-0.8-3.9-1.5-5.8-2.3c-0.2-0.1-0.4-0.1-0.5-0.4c2.8-0.1,5.5,0.5,8.2,0.8c2.7,0.3,5.4,0.8,8.1,1.5
		c2.7,0.7,5.3,1.5,7.8,2.9c-0.1-0.7-0.4-1.3-0.6-1.8c-0.2-0.5-0.5-1-0.7-1.5c-0.3-0.8,0-1.2,0.9-1.2c0.1,0,0.2,0,0.4,0
		c1.2,0,1.5-0.2,1.5-1.5c0-2.7-0.1-5.5-0.2-8.2c0-1.5,0-2.9,0.1-4.4c0-0.1,0-0.3,0.1-0.4c0.1-0.3,0-0.8,0.4-0.8
		c0.4,0,0.4,0.5,0.5,0.9c0.1,0.5,0.1,1,0.1,1.5c0.1,3.9,1.3,7.5,3.1,10.8c1.5,2.8,3.6,5.1,5.9,7.2c0.9,0.8,1.8,1.7,2.5,2.6
		c0.3,0.4,0.5,0.5,0.9,0c1.1-1.1,2.2-2.2,3.6-3c2.7-1.5,5.5-2,8.4-0.9c1.8,0.7,3.2,1.9,3.9,3.8c0.3,0.8,0.7,1.3,1.4,1.8
		c0.3,0.2,0.7,0.4,1,0.6C170.5,27.9,170.5,28,170.5,28.1z"/>
</g>
<path class="st0" d="M237.8,67c-1.1,1.3-2.5,1.6-4,1.2c-1.5-0.4-3-0.8-4.5-1.1c-0.4-0.1-0.7-0.1-1.1-0.2c0,0.4,0.3,0.6,0.6,0.8
	c0.5,0.5,1.1,1,1.4,1.6c0.4,0.7,0.4,1.3,0,2c-0.4,0.6-1,0.7-1.7,0.6c-1.2-0.1-2.4-0.5-3.5-1.1c-2.6-1.5-5.5-1.9-8.5-2.2
	c-1.5-0.2-2.9-0.4-4.3-0.7c-1.4-0.4-2.8,0-4.2,0.2c-3.8,0.5-7.6,1.3-11.2,2.5c-1.1,0.4-2.1,1.1-3.2,1.6c-2.9,1.3-5.5,3-7.8,5
	c-1.3,1.2-3,1.6-4.8,1.5c-4.4-0.2-6.8,1.5-8.3,5.7c-0.2,0.6-0.4,1.3-0.6,1.9c-0.5,1.5-1,3-2.2,4.2c-1.2,1.2-2.3,1-2.9-0.6
	c-0.7-2-1-4-0.1-6.1c0.9-2.2,1.3-4.6,2.2-6.9c0.6-1.4,1.3-2.6,2.9-3c0.5-0.1,0.9-0.4,1.3-0.8c-2.5-0.5-4-2.2-5.1-4.3
	c-0.9-1.6-0.3-2.8,1.6-3.3c1.2-0.3,2.4-0.3,3.5-0.2c0.7,0.1,1.1-0.2,1.4-0.7c0.2-0.3,0.5-0.7,0.7-1c1-2.3,3.2-3.6,4.9-5.2
	c1.8-1.7,3.6-3.6,5.8-4.8c3.9-2.1,8-3.7,12.6-3.6c1,0,2-0.3,3-0.4c2.1-0.2,4.2,0.1,6.4,0.3c1.7,0.2,3.4,0.2,5.1-0.3
	c0.8-0.2,0.8-0.6,0.5-1.2c-0.5-1-1.2-1.7-1.9-2.4c-1.6-1.7-3.3-3.3-4.6-5.3c-1.4-2.3-2-4.6-1.2-7.3c0.1-0.3,0.2-0.5,0.3-0.8
	c0.4-0.7,0.8-0.8,1.5-0.3c0.7,0.5,1.1,1.2,1.6,1.9c0.3,0.4,0.6,0.7,1.1,0.3c0.5-0.4,1.1-0.4,1.6-0.3c2.2,0.3,4.1,1.1,5.4,3
	c1.5,2.2,2.7,4.5,3.7,7c0.5,1.2,1.2,2,2.5,2.4c2.5,0.7,4.7,2,6.2,4.2c1.3,1.8,2.5,3.6,2.6,5.9c0.1,2.2-0.8,3.1-2.9,3.3
	c-1.1,0.1-2.1,0.5-2.9,1.3c-0.7,0.7-0.5,1.5,0.4,1.7c2.1,0.4,4.1,1.3,6.1,2.1c0.6,0.3,1.4,0.1,2,0.1c1.1,0,2.1,0.2,2.5,1.5
	C237.8,66.5,237.8,66.8,237.8,67z"/>
</svg>
