<svg xmlns="http://www.w3.org/2000/svg" xmlns:xlink="http://www.w3.org/1999/xlink" width="74" height="74" viewBox="0 0 74 74">
  <defs>
    <filter id="Elipse_140" x="0" y="0" width="74" height="74" filterUnits="userSpaceOnUse">
      <feOffset dx="3" dy="9" input="SourceAlpha"/>
      <feGaussianBlur stdDeviation="3" result="blur"/>
      <feFlood flood-opacity="0.161"/>
      <feComposite operator="in" in2="blur"/>
      <feComposite in="SourceGraphic"/>
    </filter>
  </defs>
  <g id="Notificación" transform="translate(6)">
    <g transform="matrix(1, 0, 0, 1, -6, 0)" filter="url(#Elipse_140)">
      <circle id="Elipse_140-2" data-name="Elipse 140" cx="28" cy="28" r="28" transform="translate(6)" fill="#ffb714"/>
    </g>
    <g id="Grupo_1998" data-name="Grupo 1998" transform="translate(3975.801 2165.106)">
      <path id="Trazado_1161" data-name="Trazado 1161" d="M-3967.759-2140.252c0-1.184-.014-2.369,0-3.553a12.032,12.032,0,0,1,2.38-7.118,12.477,12.477,0,0,1,5.492-4.24,11.659,11.659,0,0,1,2.233-.645c.206-.039.239-.13.242-.313a5.281,5.281,0,0,1,.063-1.325,2.09,2.09,0,0,1,1.582-1.588,2.082,2.082,0,0,1,2.2.752,2.153,2.153,0,0,1,.482,1.4c0,.279.008.557,0,.836,0,.151.046.208.2.238a12.9,12.9,0,0,1,2.8.9c.208.094.293.176.239.439a7.119,7.119,0,0,0,.764,5.044,7.26,7.26,0,0,0,2.462,2.584,7.04,7.04,0,0,0,2.564.979,4.414,4.414,0,0,0,.849.07c.195,0,.246.084.278.251a11.986,11.986,0,0,1,.2,2.181c.008,2.177.017,4.355,0,6.532a4.1,4.1,0,0,0,1.136,2.9c.893.979,1.77,1.974,2.654,2.962.451.5.9,1,1.354,1.506a1.42,1.42,0,0,1,.3,1.591,1.406,1.406,0,0,1-1.341.941c-2.191.017-4.383.01-6.576.011-.817,0-1.635,0-2.452,0-4.937,0-9.873.01-14.81-.007-1.423,0-2.845.021-4.269,0-1.664-.028-3.33.007-5,.008a1.492,1.492,0,0,1-1.534-1.112,1.48,1.48,0,0,1,.365-1.447q2.112-2.351,4.213-4.707a3.689,3.689,0,0,0,.923-2.512C-3967.752-2137.882-3967.759-2139.067-3967.759-2140.252Z" transform="translate(7.44 1.336)" fill="#8e5207"/>
      <path id="Trazado_1163" data-name="Trazado 1163" d="M-3941.46-2079.982a5.065,5.065,0,0,1-5.024-3.842,4.731,4.731,0,0,1-.124-.9c-.007-.162.023-.251.207-.226a1.524,1.524,0,0,0,.206,0h9.462c.314,0,.314,0,.29.316a5.037,5.037,0,0,1-3.969,4.55A3.829,3.829,0,0,1-3941.46-2079.982Z" transform="translate(-6.278 -39.278)" fill="#8e5207"/>
    </g>
    <path id="Trazado_1443" data-name="Trazado 1443" d="M28.459,11.617s3.907-.942,5.023,0,5.965,1.884,7.082,10.4-11.9,6.488-11.9,6.488Z" fill="#8e5207"/>
  </g>
</svg>
