<svg xmlns="http://www.w3.org/2000/svg" xmlns:xlink="http://www.w3.org/1999/xlink" width="91" height="91" viewBox="0 0 91 91">
  <defs>
    <filter id="Elipse_7" x="0" y="0" width="91" height="91" filterUnits="userSpaceOnUse">
      <feOffset dx="3" dy="9" input="SourceAlpha"/>
      <feGaussianBlur stdDeviation="3" result="blur"/>
      <feFlood flood-opacity="0.161"/>
      <feComposite operator="in" in2="blur"/>
      <feComposite in="SourceGraphic"/>
    </filter>
  </defs>
  <g id="OfrecerServicios" transform="translate(6)">
    <g transform="matrix(1, 0, 0, 1, -6, 0)" filter="url(#Elipse_7)">
      <circle id="Elipse_7-2" data-name="Elipse 7" cx="36.5" cy="36.5" r="36.5" transform="translate(6)" fill="#ffb714"/>
    </g>
    <g id="Grupo_1511" data-name="Grupo 1511" transform="translate(11.113 10.087)">
      <path id="Trazado_672" data-name="Trazado 672" d="M1818.651,2523.226h-17.086c-1.128,0-1.379-.253-1.379-1.4,0-5.476.006-10.951-.011-16.427,0-.5.123-.64.633-.638q6.7.031,13.405,0c.422,0,.562.1.554.541-.028,1.611,0,3.223-.018,4.834,0,.349.081.47.452.467q3.434-.025,6.867,0c.378,0,.459-.129.457-.472-.013-1.593.009-3.187-.015-4.779-.006-.438.091-.595.567-.593q6.73.028,13.46,0c.43,0,.547.109.546.543-.015,5.567-.01,11.134-.011,16.7,0,.912-.3,1.215-1.224,1.215Q1827.25,2523.228,1818.651,2523.226Z" transform="translate(-1788.537 -2491.169)" fill="#8e5207"/>
      <path id="Trazado_673" data-name="Trazado 673" d="M1795.667,2664.219c1.648,0,3.3-.006,4.944,0a1.941,1.941,0,1,1,.007,3.867c-2.051,0-4.1.011-6.153-.008-.383,0-.536.1-.488.49a3.726,3.726,0,0,1,0,.6c-.038.88-.038.871.822.992q6.141.861,12.281,1.738a7.348,7.348,0,0,0,2.59-.353c4.351-.9,8.695-1.836,13.042-2.754a2.056,2.056,0,0,1,2.452,1.5,1.9,1.9,0,0,1-1.6,2.19q-13.637,3.1-27.274,6.206a.953.953,0,0,1-.529-.045q-5.427-1.66-10.857-3.307c-.353-.107-.529-.232-.525-.658q.037-4.12,0-8.24a.549.549,0,0,1,.482-.637c1.706-.483,3.405-.989,5.1-1.5a2.591,2.591,0,0,1,.758-.091Z" transform="translate(-1774.662 -2631.204)" fill="#8e5207"/>
      <path id="Trazado_674" data-name="Trazado 674" d="M1818.629,2404.808c-5.934,0-11.867-.008-17.8.013-.565,0-.719-.15-.693-.7.047-.968.009-1.94.014-2.911s.3-1.253,1.25-1.254c3.589,0,7.179-.011,10.768.01.477,0,.628-.107.609-.6-.041-1.061-.022-2.124-.01-3.186a2.81,2.81,0,0,1,2.842-2.991q2.991-.088,5.987,0a2.772,2.772,0,0,1,2.814,2.948c.011,1.062.027,2.125-.009,3.186-.017.492.109.648.626.645,3.534-.024,7.069-.013,10.6-.012,1.173,0,1.406.236,1.407,1.421,0,.916.006,1.831,0,2.747-.006.746.128.687-.716.687Q1827.474,2404.809,1818.629,2404.808Zm-.1-4.856q1.758,0,3.516,0c.227,0,.442.021.439-.32-.013-1.209.01-2.418-.024-3.625a.842.842,0,0,0-.915-.9q-2.939-.031-5.878,0a.886.886,0,0,0-.942.987c-.014,1.153.006,2.307-.012,3.461,0,.319.105.4.409.4C1816.258,2399.943,1817.394,2399.951,1818.529,2399.951Z" transform="translate(-1788.5 -2393.141)" fill="#8e5207"/>
      <path id="Trazado_675" data-name="Trazado 675" d="M1712.38,2670.944c0,2.1-.01,4.21.009,6.315,0,.387-.113.491-.492.488q-3.4-.025-6.809,0c-.347,0-.48-.087-.479-.458q.016-6.342,0-12.685c0-.329.093-.448.434-.441,1.006.019,2.013.023,3.02,0,.375-.009.457.128.455.474-.013,2.215.006,4.429-.016,6.644,0,.473.08.667.615.652,1.32-.038,1.321-.009,1.321-1.314,0-1.977.01-3.954-.009-5.93,0-.4.1-.531.52-.528,1.431.009,1.431-.008,1.431,1.406Zm-3.868,3.861c0,1.009,0,1.009.945,1.009.981,0,.981,0,.981-.982s0-.972-.98-.972C1708.512,2673.861,1708.512,2673.861,1708.512,2674.805Z" transform="translate(-1704.608 -2631.151)" fill="#8e5207"/>
      <path id="Trazado_676" data-name="Trazado 676" d="M1939.694,2506.79c0,.513-.013,1.026,0,1.538.01.288-.1.385-.38.382q-1.566-.015-3.132,0c-.287,0-.383-.1-.38-.386q.017-1.566,0-3.132c0-.286.1-.379.386-.376q1.566.018,3.132,0c.292,0,.383.1.374.381C1939.682,2505.728,1939.694,2506.259,1939.694,2506.79Z" transform="translate(-1907.651 -2491.216)" fill="#8e5207"/>
    </g>
  </g>
</svg>
