<svg xmlns="http://www.w3.org/2000/svg" xmlns:xlink="http://www.w3.org/1999/xlink" width="36.832" height="36.833" viewBox="0 0 36.832 36.833">
  <defs>
    <clipPath id="clip-path">
      <rect id="Rectángulo_519" data-name="Rectángulo 519" width="36.832" height="36.833" fill="#8e5207"/>
    </clipPath>
  </defs>
  <g id="perfilderecho" transform="translate(0 0)">
    <g id="Grupo_1081" data-name="Grupo 1081" transform="translate(0 0)" clip-path="url(#clip-path)">
      <path id="Trazado_365" data-name="Trazado 365" d="M19.068,36.833H17.786a2.891,2.891,0,0,0-.57-.056,18.4,18.4,0,0,1-2.665-.371A18.052,18.052,0,0,1,9.6,34.562a18.355,18.355,0,0,1-6.388-5.8A18.308,18.308,0,0,1,.058,19.484,1.616,1.616,0,0,0,0,19.047V17.765a.5.5,0,0,0,.033-.143c.02-.262.041-.524.061-.786A17.541,17.541,0,0,1,.608,13.8,18.461,18.461,0,0,1,12.7.909,17.775,17.775,0,0,1,17.5.022a18.412,18.412,0,0,1,7.322,1.114,18.47,18.47,0,0,1,11.228,11.9,18.493,18.493,0,0,1,.7,3.455c.066.611.072,1.224.082,1.838a17.427,17.427,0,0,1-.349,3.739,18.14,18.14,0,0,1-1.59,4.6,18.349,18.349,0,0,1-5.852,6.79,18.3,18.3,0,0,1-9.352,3.319,3.833,3.833,0,0,0-.62.058m-.721-1.981c.478-.019.867-.022,1.255-.049a16.09,16.09,0,0,0,3.041-.5,16.344,16.344,0,0,0,7.226-4.085c.138-.133.135-.094.057-.275a12.491,12.491,0,0,0-20.9-3.308,12.3,12.3,0,0,0-2.088,3.325c-.058.136-.059.138.045.237.179.17.357.341.542.5a16.312,16.312,0,0,0,10.825,4.154m6.665-21.043a6.575,6.575,0,1,0-6.581,6.573,6.579,6.579,0,0,0,6.581-6.573" transform="translate(0 0)" fill="#8e5207"/>
    </g>
  </g>
</svg>
