<svg id="phone" xmlns="http://www.w3.org/2000/svg" width="37.869" height="37.866" viewBox="0 0 37.869 37.866">
  <path id="Trazado_1235" data-name="Trazado 1235" d="M-1646.116-3926.119a18.887,18.887,0,0,1,18.9,19.128,18.909,18.909,0,0,1-19.126,18.738,18.908,18.908,0,0,1-18.742-19.014A18.906,18.906,0,0,1-1646.116-3926.119Zm-17.691,18.9a17.717,17.717,0,0,0,17.615,17.7,17.708,17.708,0,0,0,17.717-17.708,17.714,17.714,0,0,0-17.695-17.624A17.735,17.735,0,0,0-1663.806-3907.218Z" transform="translate(1665.08 3926.119)" fill="#8e5207"/>
  <path id="Icon_awesome-phone-alt" data-name="Icon awesome-phone-alt" d="M21.531,15.662l-4.848-2.078a1.039,1.039,0,0,0-1.212.3l-2.147,2.623a16.045,16.045,0,0,1-7.67-7.67L8.277,6.689a1.036,1.036,0,0,0,.3-1.212L6.5.628a1.046,1.046,0,0,0-1.19-.6L.805,1.066A1.039,1.039,0,0,0,0,2.078,20.084,20.084,0,0,0,20.086,22.164a1.039,1.039,0,0,0,1.013-.805l1.039-4.5A1.051,1.051,0,0,0,21.531,15.662Z" transform="translate(7.853 7.851)" fill="#8e5207"/>
</svg>
