<svg xmlns="http://www.w3.org/2000/svg" xmlns:xlink="http://www.w3.org/1999/xlink" width="57.396" height="57.391" viewBox="0 0 57.396 57.391">
  <defs>
    <clipPath id="clip-path">
      <rect id="Rectángulo_687" data-name="Rectángulo 687" width="34.053" height="37.694" fill="#8e5207"/>
    </clipPath>
  </defs>
  <g id="share" transform="translate(0)">
    <path id="Trazado_1235" data-name="Trazado 1235" d="M-1636.337-3926.118a28.626,28.626,0,0,1,28.653,28.99,28.658,28.658,0,0,1-28.989,28.4,28.658,28.658,0,0,1-28.407-28.818A28.655,28.655,0,0,1-1636.337-3926.118Zm-26.813,28.647a26.852,26.852,0,0,0,26.7,26.829,26.838,26.838,0,0,0,26.852-26.839,26.849,26.849,0,0,0-26.819-26.711A26.88,26.88,0,0,0-1663.149-3897.471Z" transform="translate(1665.08 3926.119)" fill="#8e5207"/>
    <g id="Grupo_1497" data-name="Grupo 1497" transform="translate(9.116 9.848)">
      <g id="Grupo_1496" data-name="Grupo 1496" clip-path="url(#clip-path)">
        <path id="Trazado_631" data-name="Trazado 631" d="M27.652,37.694a5.81,5.81,0,0,1-4.147-2.94,4.939,4.939,0,0,1-.58-3.232.762.762,0,0,0-.469-.92q-6.188-3.582-12.347-7.217a.844.844,0,0,0-1.1.058,5.362,5.362,0,0,1-6.2.35A5.429,5.429,0,0,1,.026,18.3a5.579,5.579,0,0,1,4-4.783,5.346,5.346,0,0,1,4.982.886.834.834,0,0,0,1.094.066q6.09-3.583,12.206-7.12c.335-.195.566-.372.488-.838A5.6,5.6,0,0,1,27.508.082c.051-.007.1-.054.143-.082H29.16a.825.825,0,0,0,.209.119,5.634,5.634,0,0,1,4.607,4.69,5.7,5.7,0,0,1-2.534,5.624,5.585,5.585,0,0,1-6.492-.288.783.783,0,0,0-1.031,0c-3.82,2.24-7.635,4.489-11.483,6.68-.845.481-1.5.9-1.137,2.018a1.46,1.46,0,0,1-.048.745c-.126.522.092.787.542,1.047q6.084,3.5,12.134,7.06a1.085,1.085,0,0,0,1.389-.067,5.376,5.376,0,0,1,6.838.543,5.5,5.5,0,0,1,.945,6.82,6.04,6.04,0,0,1-3.94,2.7Z" transform="translate(0)" fill="#8e5207"/>
      </g>
    </g>
  </g>
</svg>
