<svg xmlns="http://www.w3.org/2000/svg" xmlns:xlink="http://www.w3.org/1999/xlink" width="91" height="91" viewBox="0 0 91 91">
  <defs>
    <filter id="Elipse_7" x="0" y="0" width="91" height="91" filterUnits="userSpaceOnUse">
      <feOffset dx="3" dy="9" input="SourceAlpha"/>
      <feGaussianBlur stdDeviation="3" result="blur"/>
      <feFlood flood-opacity="0.161"/>
      <feComposite operator="in" in2="blur"/>
      <feComposite in="SourceGraphic"/>
    </filter>
  </defs>
  <g id="Transporte" transform="translate(6)">
    <g transform="matrix(1, 0, 0, 1, -6, 0)" filter="url(#Elipse_7)">
      <circle id="Elipse_7-2" data-name="Elipse 7" cx="36.5" cy="36.5" r="36.5" transform="translate(6)" fill="#ffb714"/>
    </g>
    <g id="Grupo_1506" data-name="Grupo 1506" transform="translate(11.129 9.186)">
      <path id="Trazado_657" data-name="Trazado 657" d="M1448.364,737.846q0-2.568,0-5.137a2.932,2.932,0,0,0-3.05-3.2c-1.726-.048-3.453-.02-5.18-.03-2.1-.011-4.2-.061-6.295-.028-1.16.018-2.32-.009-3.481.019-1.311.031-2.628-.052-3.943-.03-1.5.025-3.012.007-4.513.1a2.821,2.821,0,0,0-2.63,2.9c-.025,1.986,0,3.973,0,5.959,0,1.627-.006,3.253.013,4.88,0,.372-.138.456-.481.454q-4.88-.021-9.76-.01c-.36,0-.48-.109-.467-.467.021-.564-.021-1.13-.007-1.695a2.087,2.087,0,0,1,2.111-2.071,7.472,7.472,0,0,1,1.129.009c.494.066.626-.148.7-.6.713-4.288,1.45-8.572,2.175-12.857a10.206,10.206,0,0,1,.289-1.665,4.578,4.578,0,0,1,4.319-3.142q2.62-.024,5.24-.006c.4,0,.627-.09.555-.538s.132-.595.548-.527c.492.079.661-.121.635-.619-.041-.8-.028-1.609-.022-2.414a3.261,3.261,0,0,1,3.45-3.447q4.11-.007,8.22,0a3.294,3.294,0,0,1,3.457,3.454c.006.856,0,1.713-.016,2.569-.008.352.119.508.476.456.493-.071.8.058.688.643-.068.364.151.42.454.419,1.712,0,3.425,0,5.137.007a4.619,4.619,0,0,1,4.743,4.149c.316,2.184.694,4.359,1.059,6.536.4,2.362.818,4.72,1.206,7.084.062.376.171.54.576.5a10.377,10.377,0,0,1,1.181-.01,2.119,2.119,0,0,1,2.173,2.174c.007.514-.03,1.029,0,1.541.022.4-.1.523-.514.52-2.877-.019-5.754-.01-8.631-.009-.359,0-.721-.014-1.078.018-.39.035-.493-.116-.49-.5.019-1.8.008-3.6.008-5.393Zm-14.546-21.972q-2,0-4,0c-.992,0-1.384.4-1.384,1.406,0,.77.039,1.541,0,2.308-.025.471.1.664.58.579.424-.074.661.062.575.542-.073.407.1.522.508.519,2.446-.017,4.892-.021,7.337,0,.479,0,.657-.139.583-.6-.057-.357.1-.507.456-.465.118.014.241-.01.359.005.283.037.345-.1.343-.355-.009-.889.01-1.779,0-2.668-.005-.872-.419-1.271-1.305-1.272Q1435.845,715.871,1433.818,715.874Zm1.667,12.765c.7-.03,1.046-.254,1.156-.778.121-.573-.218-.893-.671-1.131a1.71,1.71,0,0,1-.829-1.116,1.192,1.192,0,0,0-1.354-.916,1.175,1.175,0,0,0-1.312.907,1.728,1.728,0,0,1-1,1.216.832.832,0,0,0-.516.76.942.942,0,0,0,1.12,1.019c1.09-.1,2.175-.433,3.257.038A.4.4,0,0,0,1435.486,728.639Zm-3.953-5.58a1.962,1.962,0,0,0,.5,1.314.725.725,0,0,0,1.283-.194,1.783,1.783,0,0,0-.17-1.8.866.866,0,0,0-.924-.505c-.42.086-.576.446-.658.831A2.645,2.645,0,0,0,1431.533,723.059Zm4.535.158a1.893,1.893,0,0,0-.1-.8.726.726,0,0,0-1.224-.336,1.866,1.866,0,0,0-.367,2.238.691.691,0,0,0,1.1.162A1.787,1.787,0,0,0,1436.068,723.217Zm-.277,2.122c.032.369.1.766.546.868s.681-.225.854-.578a1.406,1.406,0,0,0,.059-1.238.59.59,0,0,0-1.033-.193A1.586,1.586,0,0,0,1435.791,725.339Zm-3.958-.053a1.725,1.725,0,0,0-.326-.965.636.636,0,0,0-1.2.25,1.56,1.56,0,0,0,.093,1c.169.379.405.728.87.632S1431.8,725.683,1431.833,725.286Z" transform="translate(-1408.562 -713.684)" fill="#8e5207"/>
      <path id="Trazado_658" data-name="Trazado 658" d="M1433.72,1026.1c3.852,0,7.7.02,11.555-.009a2.858,2.858,0,0,0,3-3.065q.027-3.768.046-7.537.005-1.565-.036-3.13c-.009-.336.059-.487.441-.485q4.9.026,9.81.014c.329,0,.466.088.455.428-.017.547.005,1.1-.006,1.644a2.092,2.092,0,0,1-2.151,2.135c-.5-.035-1.022-.007-1.534-.021-.219-.006-.357.013-.419.305-.646,3.077-1.317,6.148-1.979,9.222a4.28,4.28,0,0,0-.09.608,4.619,4.619,0,0,1-4.681,4.443c-4.537.016-9.073,0-13.61,0-4.811,0-9.622-.019-14.432.026a5.062,5.062,0,0,1-4.613-2.042,4.666,4.666,0,0,1-.8-2.19c-.2-1.753-.7-3.453-1.057-5.176-.336-1.6-.707-3.2-1.02-4.811-.07-.357-.216-.409-.508-.368a7.314,7.314,0,0,1-1.69-.02,2.142,2.142,0,0,1-1.9-2.068c-.021-.53.014-1.062-.01-1.592-.019-.4.125-.522.53-.52,2.876.016,5.753.009,8.629.008.394,0,.788,0,1.181-.014.252-.009.376.068.365.349-.049,1.265.01,2.53-.018,3.8-.021.966-.03,1.94.015,2.912.063,1.365.011,2.736.019,4.1a2.818,2.818,0,0,0,2.951,3.045c2.07.05,4.143.025,6.214.028q2.671,0,5.341,0Z" transform="translate(-1408.492 -981.227)" fill="#8e5207"/>
      <path id="Trazado_659" data-name="Trazado 659" d="M1534.1,902.719q-5.751,0-11.5,0a2.131,2.131,0,0,1-2.227-2.236c.009-1.621.088-3.243.057-4.863-.038-1.964-.04-3.928-.04-5.892q0-3.98,0-7.959,0-2.106,0-4.211a2.091,2.091,0,0,1,2.242-2.3c2.019-.034,4.039-.02,6.059-.021q3.954,0,7.908,0c3,0,5.991,0,8.986.022a2.11,2.11,0,0,1,2.28,2.369q0,7.369.012,14.739c0,2.7.006,5.406,0,8.109a2.139,2.139,0,0,1-2.266,2.25h-11.5Zm.641-13.779q0,.8,0,1.592c0,3.476,0,6.951-.022,10.427,0,.413.114.522.521.5a18.544,18.544,0,0,1,2.156.017c.524.036.653-.13.651-.651q-.028-10.119-.009-20.237c0-1.231-.087-2.464.032-3.694.032-.326-.068-.438-.423-.432a13.956,13.956,0,0,1-1.576,0c-.418-.039-.965-.143-1.237.065-.336.257-.084.828-.086,1.26C1534.732,881.51,1534.738,885.225,1534.738,888.941Zm7.832.034h0c0-4.005-.006-8.01.009-12.015,0-.4-.132-.495-.5-.485-.781.021-1.563.024-2.343-.013-.443-.021-.492.2-.49.547.016,2.122.032,4.243.036,6.365q.009,5.109,0,10.219c0,2.465.01,4.93,0,7.394,0,.363.128.473.479.465.684-.015,1.369.012,2.054.016.761,0,.76,0,.759-.735Q1542.569,894.854,1542.57,888.975Zm-13.615.049h.005q0-2.954,0-5.908,0-3.082-.007-6.165c0-.231.027-.453-.317-.453q-1.3,0-2.6-.023c-.287-.006-.387.1-.385.39.012,1.455.007,2.911.008,4.366q0,5.137.006,10.274,0,4.751-.018,9.5c0,.362.117.478.47.465.736-.026,1.474-.05,2.208-.015.486.023.64-.114.637-.62C1528.945,896.9,1528.955,892.963,1528.955,889.024Zm1.254-.076h-.013c0,3.99.009,7.979-.012,11.968,0,.473.147.582.583.56a17.376,17.376,0,0,1,2.156-.01c.507.038.587-.143.586-.594q-.018-10.376-.008-20.753c0-1.043-.053-2.087.02-3.131.018-.255.027-.543-.361-.534-.624.014-1.248.037-1.871.051-.353.008-.8-.2-1.035.05-.253.266-.036.72-.038,1.09Q1530.2,883.3,1530.209,888.949Zm13.616-4.685h-.07q0,5.073,0,10.146c0,.717.1,1.436.058,2.149-.064,1.078-.009,2.153.013,3.228.011.537-.252,1.251.134,1.569s1.087.083,1.648.1a.881.881,0,0,0,1.007-.967c.016-.41-.011-.821-.009-1.232.014-2.356.076-4.713.036-7.069-.04-2.292-.013-4.584-.024-6.876-.012-2.584,0-5.167-.016-7.751,0-.81-.328-1.1-1.147-1.08a10.681,10.681,0,0,1-1.077.009c-.413-.032-.568.1-.564.534C1543.834,879.439,1543.825,881.851,1543.825,884.264Zm-22.18,4.66h.008c0,2.038,0,4.075,0,6.113,0,1.812-.022,3.623-.02,5.435,0,.691.331,1,1.022.992.428,0,.857-.025,1.284-.008.341.014.487-.085.486-.458-.007-2.634.008-5.269.009-7.9q0-4.88-.007-9.759c0-2.123-.01-4.247,0-6.37,0-.359-.118-.493-.475-.471s-.719.011-1.079,0c-.979-.027-1.226.2-1.227,1.178Q1521.644,883.3,1521.645,888.924Z" transform="translate(-1508.871 -858.629)" fill="#8e5207"/>
    </g>
  </g>
</svg>
