<?xml version="1.0" encoding="utf-8"?>
<!-- Generator: Adobe Illustrator 25.2.3, SVG Export Plug-In . SVG Version: 6.00 Build 0)  -->
<svg version="1.0" id="Capa_1" xmlns="http://www.w3.org/2000/svg" xmlns:xlink="http://www.w3.org/1999/xlink" x="0px" y="0px"
	 viewBox="0 0 300 300" style="enable-background:new 0 0 300 300;" xml:space="preserve">
<style type="text/css">
	.st0{fill:#081348;}
</style>
<path class="st0" d="M196.4,76.3c0,6.3-4.6,11.1-10.7,11.1c-6,0.1-11.1-4.9-11.2-10.9c-0.1-6,4.8-11,10.9-11.1
	C191.7,65.4,196.4,70.1,196.4,76.3z"/>
<path class="st0" d="M240.3,126.5c0,6.2-4.7,11-10.8,11.1c-5.9,0.1-11.1-5-11.1-10.9c-0.1-6.1,5-11.1,11.2-11
	C235.7,115.8,240.3,120.4,240.3,126.5z"/>
<path class="st0" d="M299.5,138.4c-3.6-48.8-27.2-85.8-67.1-112.8C213,12.4,191.1,4.5,167.8,1.1c-2.6-0.4-5.3-0.7-8-1.1
	c-6.6,0-13.1,0-19.7,0c-4.3,0.7-8.7,1.2-13,2c-26.7,5-51.5,14.7-72.5,32.3C27.7,56.8,10.5,85.4,2.3,119.4c-0.9,3.8-1.2,7.8-1.8,11.7
	c-0.1,0.7-0.3,1.4-0.5,2.1c0,4.3,0,8.6,0,12.8c1,4,1.7,8.2,2.9,12.1c3.9,13,12.1,22,24.9,27c9.8,3.8,20,5.8,30.4,6.7
	c13,1.1,26,2.4,39,3.6c0.2,0,0.5,0.1,1.1,0.4c0,2.9,0,5.9,0,8.9c-0.1,13.3,0,26.6-0.2,39.9c-0.1,5.5-2.3,10.7-5.5,15.1
	c-5,6.8-14.1,8.9-21.9,5.5c-1.4,3.1-3.3,5.9-5.5,8.4c9.1,6.2,19.1,10.8,29.5,14.7c17,6.3,34.4,11.1,52.7,11.6
	c39.4,1.1,73.6-12.2,102.6-38.6c23.4-21.4,38.8-47.8,46.5-78.5C300.2,168.2,300.5,153.3,299.5,138.4z M235.8,229.9
	c-17.1,19.3-38.6,31.3-64,36.2c-10.1,1.9-20.2,2.4-30.4,1.1c-3.7-0.4-6.6-2.3-8.1-6c-1.9-4.6-2.5-9.3-2.4-14.2
	c0.1-11.3,0.1-22.5,0-33.8c0-5.3,0-10.7-0.2-16c0-1.7,0.7-1.9,2.2-2c6.2,0,12.5,0.2,18.7-0.5c13.4-1.5,25.2-6.9,34.9-16.1
	c8.5-8,11.4-18.4,10.2-29.7c-2.2-21.3-13.3-37.4-31.1-48.6c-9.5-6-20.3-8.2-31.7-5.9c-11.1,2.2-18.5,9.2-23.6,18.8
	c-3.7,7-5.5,14.5-6.5,22.3c-1.1,9.1-2.4,18.2-3.7,27.7c-5.4-0.4-10.5-0.8-15.6-1.3c-8-0.7-16-1.6-24-2.3c-7.4-0.7-14.6-1.8-21.5-4.8
	c-2.5-1.1-4-2.7-4.9-5.1c-2.2-5.7-2.4-11.6-1.2-17.5c10-48.3,37.8-80.8,85.4-95.3c10.7-3.3,21.7-5.1,33-4.9
	c15.7,0.3,30.5,4.3,44.7,10.4c33.1,14.3,55.1,38.9,66.8,72.9c3.2,9.4,4.1,19.2,4.6,29.1C269.4,177.7,257.3,205.6,235.8,229.9z
	 M130.1,149.3c0-7.5,1-14.9,3.7-22c3.5-9.3,10.8-11.1,19.6-8.8c2.5,0.6,4.5,2.2,5.1,4.8c1.3,5.9,5.4,8.9,10.6,10.9
	c6.7,2.5,9.1,8.5,5.9,15.1c-2.4,4.9-6.3,8.4-11.4,10.4c-7.5,3-15.4,3.8-23.4,3.5c-2.5-0.1-4.9-0.4-7.4-0.6c-1.4-0.1-2.1-0.6-2.2-2.1
	C130.6,156.8,130.3,153.1,130.1,149.3z"/>
</svg>
