<svg xmlns="http://www.w3.org/2000/svg" xmlns:xlink="http://www.w3.org/1999/xlink" width="189.219" height="176" viewBox="0 0 189.219 176">
  <defs>
    <filter id="Elipse_13" x="0" y="0" width="176" height="176" filterUnits="userSpaceOnUse">
      <feOffset dx="3" dy="9" input="SourceAlpha"/>
      <feGaussianBlur stdDeviation="3" result="blur"/>
      <feFlood flood-opacity="0.161"/>
      <feComposite operator="in" in2="blur"/>
      <feComposite in="SourceGraphic"/>
    </filter>
    <clipPath id="clip-path">
      <ellipse id="Elipse_134" data-name="Elipse 134" cx="56.974" cy="57.387" rx="56.974" ry="57.387" fill="#afafad"/>
    </clipPath>
  </defs>
  <g id="historia5" transform="translate(-807)">
    <g id="Grupo_1904" data-name="Grupo 1904" transform="translate(203)">
      <g transform="matrix(1, 0, 0, 1, 604, 0)" filter="url(#Elipse_13)">
        <circle id="Elipse_13-2" data-name="Elipse 13" cx="79" cy="79" r="79" transform="translate(6)" fill="#fff"/>
      </g>
      <circle id="Elipse_133" data-name="Elipse 133" cx="74" cy="74" r="74" transform="translate(616 5)" fill="#e3e3e3"/>
      <g id="Grupo_1911" data-name="Grupo 1911" transform="translate(704.081 1535.625)">
        <g id="Grupo_1909" data-name="Grupo 1909" transform="translate(-68.573 -1502.943)">
          <g id="Grupo_1908" data-name="Grupo 1908" clip-path="url(#clip-path)">
            <g id="Grupo_1907" data-name="Grupo 1907" transform="translate(4.225 52.923)">
              <path id="Trazado_1356" data-name="Trazado 1356" d="M-64.532-1388.98c.407-4.514,1.614-8.888,2.308-13.352,1.858-11.953,5.31-23.522,8.339-35.194a2.432,2.432,0,0,1,1.468-1.869c.992-.418,1.917-1,2.9-1.432a60.573,60.573,0,0,0,16.2-10.594c.4-.356.846-.649,1.663-1.269,0,2.08.058,3.839-.019,5.591a6.094,6.094,0,0,0,.95,3.77c5.338,8.163,8.541,17.178,10.806,26.638,1.838,7.68,4.128,15.249,6.243,22.862.134.479.077,1.079.764,1.562,1.147-4.129,2.275-8.158,3.386-12.19q3.457-12.559,6.9-25.122a12.013,12.013,0,0,1,1.149-2.835c1.229-2.142,2.262-4.411,3.625-6.46,2.55-3.83,4.029-7.884,3.381-12.559a3.692,3.692,0,0,1,.077-.85c.644-.094.958.333,1.283.634a66.99,66.99,0,0,0,18.752,11.912,3.939,3.939,0,0,1,2.318,2.9,423.049,423.049,0,0,1,10.24,45.894c.108.647.133,1.308.2,1.963h-16.2c-.881-4.088-1.764-8.177-2.746-12.725-1.827,4.519-3.737,8.52-5.172,12.725H-40.417c-1.438-4.209-3.34-8.214-5.177-12.713-.99,4.588-1.866,8.651-2.742,12.713ZM9.409-1416.3l.046.345c3.354.146,6.709.422,10.06.382,1.519-.019.568-1.5.758-2.3.15-.625-.129-1.047-.9-.858Q14.394-1417.5,9.409-1416.3Z" transform="translate(64.532 1452.69)" fill="#afafad"/>
              <path id="Trazado_1357" data-name="Trazado 1357" d="M-9.045-1442.849c-.3.2-.611.376-.917.563-4.809,2.933-4.794,2.911-9.481-.293a1.284,1.284,0,0,1-.549-1.8c.308-.792.222-1.818,1.569-1.778,2.447.072,4.9.014,7.347.021A2.194,2.194,0,0,1-8.67-1443.6.71.71,0,0,1-9.045-1442.849Z" transform="translate(66.554 1453.037)" fill="#afafad"/>
              <path id="Trazado_1358" data-name="Trazado 1358" d="M-9.5-1432.566a27.088,27.088,0,0,1-4,2.067,3.512,3.512,0,0,1-.534.192c-.145.048-.279.109-.429.154.01-.024.023-.044.035-.068a2.5,2.5,0,0,1-.495.042,4.865,4.865,0,0,1-1.013-.173,2.763,2.763,0,0,1-1.281-.526c-1.282-.656-2.573-1.3-3.814-2.027-.8-.469-1.088-.352-1.59.512a7.35,7.35,0,0,0-.131,7.521c.38.756.658,1.018,1.453.576,1.362-.758,2.775-1.424,4.158-2.146a4.518,4.518,0,0,1,4.452,0c1.38.728,2.783,1.41,4.157,2.151.646.349,1.042.372,1.359-.438.908-2.32,1.657-4.482.26-7.038C-7.735-1433.277-8.2-1433.327-9.5-1432.566Z" transform="translate(66.391 1453.727)" fill="#afafad"/>
            </g>
          </g>
        </g>
        <g id="Grupo_1910" data-name="Grupo 1910" transform="translate(-38.01 -1521.082)">
          <path id="Trazado_1359" data-name="Trazado 1359" d="M-4.316-1444.231q1.977-2.039,3.953-4.078a40.664,40.664,0,0,0,5.344-6.56,20.186,20.186,0,0,0,3.2-10.618c0-.081,0-.161,0-.339a13.917,13.917,0,0,1-5.085,4.777c.187-.22.377-.437.56-.66s.365-.451.542-.68a20.112,20.112,0,0,0,4.13-9.776,17.458,17.458,0,0,0-1.015-8.635,1.9,1.9,0,0,1,.134-1.381.48.48,0,0,1,.4-.265.938.938,0,0,0,.773-.718,11.212,11.212,0,0,0,.4-3.932c-.042-.6-.354-.869-.964-.942-1.47-.178-2.918-.484-4.38-.709a38.649,38.649,0,0,0-10.92-.3.388.388,0,0,1-.361-.116c-.431-.43-.819-.9-1.244-1.335a11.741,11.741,0,0,0-1.9-1.772,1.116,1.116,0,0,0-1.81.435,6.9,6.9,0,0,0-.511,1.218,46.659,46.659,0,0,0-2.254-9.078,60.858,60.858,0,0,0-2.426,9.082,1.3,1.3,0,0,1-.356-.628c-.114-.354-.2-.718-.318-1.07-.19-.558-.493-.686-1.032-.449a10.215,10.215,0,0,0-3.947,3.273.418.418,0,0,1-.459.181c-.811-.1-1.628-.141-2.439-.23a34.394,34.394,0,0,0-7.933.078c-1.3.159-2.594.418-3.905.533-.291.025-.337-.042-.261-.308a6.974,6.974,0,0,0,.225-2.027q-.094-6.867.324-13.722a40.651,40.651,0,0,1,.6-5.918,49.107,49.107,0,0,1,1.866-6.849,9.93,9.93,0,0,1,1.1-2.149,2.993,2.993,0,0,1,3.554-.968,6.836,6.836,0,0,1,2.73,2.044,24.889,24.889,0,0,1,2.868,4.38,63.364,63.364,0,0,1,2.868,5.882c.186.437.431.848.638,1.277a.265.265,0,0,0,.346.159,29.855,29.855,0,0,1,8.5-.325,38.49,38.49,0,0,1,4.85.705c.225.048.3-.018.366-.226a37.219,37.219,0,0,1,4.744-9.694,13.934,13.934,0,0,1,2.727-3.082,6.344,6.344,0,0,1,1.486-.891,2.415,2.415,0,0,1,3.088.814,15.678,15.678,0,0,1,2.373,4.581,40.184,40.184,0,0,1,1.614,7.544c.518,3.7.871,7.421,1.158,11.147a47.385,47.385,0,0,1,0,6.053,18.18,18.18,0,0,0,.364,4.162c.4,2.219.985,4.4,1.371,6.622a17.84,17.84,0,0,1-.972,10.118.409.409,0,0,1-.037.086,3.139,3.139,0,0,0-.376,2.287,25.5,25.5,0,0,1,.073,2.695,15.371,15.371,0,0,1-1.913,7.182,27.573,27.573,0,0,1-5.435,7.127c-1.926,1.9-4.013,3.614-6.1,5.327l-.877.72ZM7.8-1501.537a51.718,51.718,0,0,0-.567-7.953,16.164,16.164,0,0,0-1.425-5.052,7.634,7.634,0,0,0-2.139-2.775,3.051,3.051,0,0,0-3.924.034,9.611,9.611,0,0,0-1.559,1.552,16.346,16.346,0,0,0-3.284,7.115,8.609,8.609,0,0,0,.346,5.1,15.39,15.39,0,0,0,2.135,3.626,36.6,36.6,0,0,0,8.846,7.867c.153.1.223.076.3-.088a8.913,8.913,0,0,0,.595-1.891A38.5,38.5,0,0,0,7.8-1501.537Zm-44.342-2.049a44.047,44.047,0,0,0,.367,6.287,13.378,13.378,0,0,0,.7,3.014c.084.215.155.228.345.106,1.366-.878,2.756-1.719,4.1-2.63a22.382,22.382,0,0,0,5.038-4.339,8.125,8.125,0,0,0,2.023-5.376,14.3,14.3,0,0,0-1.668-6.524,10.5,10.5,0,0,0-3.829-4.1,2.779,2.779,0,0,0-3.429.246,6.838,6.838,0,0,0-1.979,2.629,21.591,21.591,0,0,0-1.455,6.443C-36.472-1506.422-36.536-1505.005-36.545-1503.586Z" transform="translate(40.466 1521.082)" fill="#afafad"/>
          <path id="Trazado_1360" data-name="Trazado 1360" d="M-29.98-1488.937a28.642,28.642,0,0,1,10.4,1.821,7.7,7.7,0,0,0,1.862.315,15.592,15.592,0,0,0,2.7.114,9.4,9.4,0,0,0,2.491-.416,29.248,29.248,0,0,1,7.575-1.364,39.56,39.56,0,0,1,7.833.4c1.671.229,3.317.612,5,.78.256.026.39.131.4.4a12.5,12.5,0,0,1-.369,3.413.36.36,0,0,1-.292.277,1.386,1.386,0,0,0-1.06,1.27,17.968,17.968,0,0,1-1.225,4.888,9.545,9.545,0,0,1-4.657,5.117,9.371,9.371,0,0,1-3.691.866,12.2,12.2,0,0,1-5.027-.761,8.359,8.359,0,0,1-4.838-4.8,24.229,24.229,0,0,1-1.309-4.81,3.343,3.343,0,0,0-.614-1.443,1.48,1.48,0,0,0-2.551.153,4.085,4.085,0,0,0-.5,1.65,12.058,12.058,0,0,1-2.167,5.616,8.964,8.964,0,0,1-4.842,3.391,13.818,13.818,0,0,1-5.931.456,8.4,8.4,0,0,1-6.817-5.265,13.27,13.27,0,0,1-1.057-4.822c-.014-.289-.027-.579-.05-.867a1.6,1.6,0,0,0-1.19-1.469.536.536,0,0,1-.4-.48,13.452,13.452,0,0,1-.1-3.157.371.371,0,0,1,.4-.379,45.8,45.8,0,0,0,5.921-.636A30.771,30.771,0,0,1-29.98-1488.937Zm19.2,13.013c-.068-1.113-.092-2.22-.119-3.325a7.539,7.539,0,0,1,.945-4.091,6.068,6.068,0,0,1,4.162-2.823c.7-.159,1.414-.277,2.121-.414a.383.383,0,0,0-.179-.034,31.313,31.313,0,0,0-5.815.7,3.187,3.187,0,0,0-2.657,3.129,14.2,14.2,0,0,0,.378,4.282A7.258,7.258,0,0,0-10.777-1475.924Zm-18.6-11.186a14.113,14.113,0,0,0-3.156.209,7.063,7.063,0,0,0-3,1.182,2.462,2.462,0,0,0-.922,1.1,5.009,5.009,0,0,0-.347,1.912c.026.62.07,1.239.121,1.858a11.246,11.246,0,0,0,1.011,4.007,2.1,2.1,0,0,0,.376.617c-.043-.542-.068-1.017-.12-1.489a11.811,11.811,0,0,1,.422-5.245,4.151,4.151,0,0,1,.889-1.51A8.872,8.872,0,0,1-30.8-1486.6C-30.335-1486.789-29.855-1486.942-29.38-1487.11Z" transform="translate(40.466 1521.082)" fill="#afafad"/>
          <path id="Trazado_1361" data-name="Trazado 1361" d="M-25.058-1444.652c-.425-.305-.85-.609-1.273-.917a36.2,36.2,0,0,1-5-4.169,20.65,20.65,0,0,1-5.176-9.474q-.662-2.683-1.061-5.417c-.174-1.176-.328-2.354-.482-3.533a1.129,1.129,0,0,0-.151-.4,16.99,16.99,0,0,1-1.93-9.234,27.15,27.15,0,0,1,.286-2.715c.09-.569.2-1.135.345-1.7.047.589.076,1.18.142,1.767a11.84,11.84,0,0,0,2.791,6.677.6.6,0,0,1,.144.362,25.251,25.251,0,0,0,1.078,5.184,19.6,19.6,0,0,0,2.335,4.985,1.183,1.183,0,0,1,.145.27,9.988,9.988,0,0,1-2.942-2.77,29.79,29.79,0,0,0,1.215,8.1,22.259,22.259,0,0,0,3.786,7.212,36.684,36.684,0,0,0,5.8,5.719Z" transform="translate(40.466 1521.082)" fill="#afafad"/>
          <path id="Trazado_1362" data-name="Trazado 1362" d="M-21.28-1464.185a4.4,4.4,0,0,1-1.1-2.812,1.856,1.856,0,0,1,.614-1.44,3.084,3.084,0,0,1,1-.672,9.282,9.282,0,0,1,7.192-.028,2.63,2.63,0,0,1,1.65,1.588,2.641,2.641,0,0,1-1.3,3.374c-.043.021-.091.034-.146.054,0-.174.008-.327,0-.48a.732.732,0,0,0-.362-.618,1.664,1.664,0,0,0-1.633-.084,1.175,1.175,0,0,0-.518,1.4,1,1,0,0,0,1.039.915,5.007,5.007,0,0,0,.682-.018c.212-.019.421-.067.644-.1a4.467,4.467,0,0,1-3.3,1.819c-.2.014-.228-.1-.262-.229a11.768,11.768,0,0,1-.278-1.839c-.063-.593-.117-1.187-.2-1.779a17.015,17.015,0,0,0-.143,3.614c.019.225-.028.268-.229.262a2.838,2.838,0,0,1-1.825-.676,10.228,10.228,0,0,1-1.243-1.4,2.842,2.842,0,0,0,1.361.3,1.187,1.187,0,0,0,1.207-1.067,1.219,1.219,0,0,0-1-1.269,1.51,1.51,0,0,0-1.569.495A1.293,1.293,0,0,0-21.28-1464.185Zm-.717-2.7a1.747,1.747,0,0,1,1.319-.886,17.382,17.382,0,0,1,6.236-.148,2.434,2.434,0,0,1,1.937.957,1.191,1.191,0,0,0-.455-.965,3.124,3.124,0,0,0-.943-.59,9.22,9.22,0,0,0-5.368-.4,4.558,4.558,0,0,0-2.313,1.058A1.186,1.186,0,0,0-22-1466.89Z" transform="translate(40.466 1521.082)" fill="#afafad"/>
          <path id="Trazado_1363" data-name="Trazado 1363" d="M-1.944-1464.834a16.962,16.962,0,0,0-1.924,3.742,20.707,20.707,0,0,1-1.895,3.657,10.145,10.145,0,0,1-6.231,4.253,14.235,14.235,0,0,1-7.577,0,9.261,9.261,0,0,1-6.617-7.395,5.273,5.273,0,0,1-.1-.846,16.728,16.728,0,0,0,1.176,2.354,9.363,9.363,0,0,0,7.632,4.651,17.149,17.149,0,0,0,5.511-.481,9.959,9.959,0,0,0,5.847-4.13c.849-1.214,1.553-2.517,2.362-3.755A7.489,7.489,0,0,1-1.944-1464.834Z" transform="translate(40.466 1521.082)" fill="#afafad"/>
          <path id="Trazado_1364" data-name="Trazado 1364" d="M-17.165-1460.6a7.2,7.2,0,0,0,4.039,2.072,9.333,9.333,0,0,0,3.025.159,3.427,3.427,0,0,0,2.752-1.972A9.874,9.874,0,0,0-6.4-1465.5c-.016-.574-.064-1.147-.124-1.72a7.213,7.213,0,0,1,.432,1.575,11.026,11.026,0,0,1-.344,5.759,4.353,4.353,0,0,1-2.354,2.705,5.094,5.094,0,0,1-2.225.311,10.8,10.8,0,0,1-5.774-1.75.3.3,0,0,0-.4.031,6.372,6.372,0,0,1-5.415,1.1,3.639,3.639,0,0,1-2.31-1.9,9.175,9.175,0,0,1-1.123-3.62,11.569,11.569,0,0,1,.163-4.013c.016-.07.036-.14.057-.209a.111.111,0,0,1,.069-.075c-.01.169-.021.338-.029.506a11.2,11.2,0,0,0,1.013,5.619,4.847,4.847,0,0,0,1.974,2.213,3.994,3.994,0,0,0,3.839-.089,10.1,10.1,0,0,0,.925-.506A1.827,1.827,0,0,0-17.165-1460.6Z" transform="translate(40.466 1521.082)" fill="#afafad"/>
          <path id="Trazado_1365" data-name="Trazado 1365" d="M3.627-1509.953a7.8,7.8,0,0,1,.411,3.077,16.076,16.076,0,0,1-1.487,5.159,24.687,24.687,0,0,0-1.288,3.554.871.871,0,0,1-.085.135,10.347,10.347,0,0,1,0-1.837,12.841,12.841,0,0,1,1.249-4.009,13.192,13.192,0,0,0,1.174-3.711,9.193,9.193,0,0,0,.048-2.044C3.634-1509.737,3.633-1509.845,3.627-1509.953Z" transform="translate(40.466 1521.082)" fill="#afafad"/>
          <path id="Trazado_1366" data-name="Trazado 1366" d="M-32.976-1510a13.507,13.507,0,0,0,.234,1.994,17.6,17.6,0,0,0,1.19,3.286,10.93,10.93,0,0,1,1.053,3.548,5.576,5.576,0,0,1-.193,1.969l-.032-.273c-.01-.093-.02-.185-.032-.277A17.055,17.055,0,0,0-32-1503.835a14.188,14.188,0,0,1-1.114-3.921A7.326,7.326,0,0,1-32.976-1510Z" transform="translate(40.466 1521.082)" fill="#afafad"/>
        </g>
      </g>
    </g>
    <path id="Icon_awesome-check-circle" data-name="Icon awesome-check-circle" d="M35.438,18A17.438,17.438,0,1,1,18,.563,17.437,17.437,0,0,1,35.438,18ZM15.983,27.233,28.921,14.3a1.125,1.125,0,0,0,0-1.591L27.33,11.114a1.125,1.125,0,0,0-1.591,0L15.188,21.665l-4.926-4.926a1.125,1.125,0,0,0-1.591,0L7.079,18.329a1.125,1.125,0,0,0,0,1.591l7.313,7.313a1.125,1.125,0,0,0,1.591,0Z" transform="translate(960.781 117.248)" fill="#beb9b5"/>
  </g>
</svg>
