<svg xmlns="http://www.w3.org/2000/svg" xmlns:xlink="http://www.w3.org/1999/xlink" width="178.656" height="176" viewBox="0 0 178.656 176">
  <defs>
    <filter id="Elipse_13" x="0" y="0" width="176" height="176" filterUnits="userSpaceOnUse">
      <feOffset dx="3" dy="9" input="SourceAlpha"/>
      <feGaussianBlur stdDeviation="3" result="blur"/>
      <feFlood flood-opacity="0.161"/>
      <feComposite operator="in" in2="blur"/>
      <feComposite in="SourceGraphic"/>
    </filter>
  </defs>
  <g id="historia4" transform="translate(-604)">
    <path id="Icon_awesome-check-circle" data-name="Icon awesome-check-circle" d="M35.438,18A17.438,17.438,0,1,1,18,.563,17.437,17.437,0,0,1,35.438,18ZM15.983,27.233,28.921,14.3a1.125,1.125,0,0,0,0-1.591L27.33,11.114a1.125,1.125,0,0,0-1.591,0L15.188,21.665l-4.926-4.926a1.125,1.125,0,0,0-1.591,0L7.079,18.329a1.125,1.125,0,0,0,0,1.591l7.313,7.313a1.125,1.125,0,0,0,1.591,0Z" transform="translate(747.219 122.563)" fill="#beb9b5"/>
    <g id="Grupo_1903" data-name="Grupo 1903">
      <g transform="matrix(1, 0, 0, 1, 604, 0)" filter="url(#Elipse_13)">
        <circle id="Elipse_13-2" data-name="Elipse 13" cx="79" cy="79" r="79" transform="translate(6)" fill="#fff"/>
      </g>
      <circle id="Elipse_133" data-name="Elipse 133" cx="74" cy="74" r="74" transform="translate(616 5)" fill="#e3e3e3"/>
    </g>
    <g id="Componente_88_2" data-name="Componente 88 – 2" transform="translate(625 31.843)">
      <path id="Trazado_1328" data-name="Trazado 1328" d="M182.921-1483.2a3.505,3.505,0,0,0-1.448-2.493,34.093,34.093,0,0,0-4.081-2.674,9.257,9.257,0,0,0-3.4-1.326,7.6,7.6,0,0,1-2.717-.866c-3.284-1.724-6.629-3.323-9.975-4.922a11.443,11.443,0,0,0-3.371-1.132,6.713,6.713,0,0,1-2.151-.68c-2.931-1.5-5.988-2.716-9.047-3.922a1.169,1.169,0,0,0-.953-.13.493.493,0,0,1-.586-.284c-.061-.107-.1-.262-.284-.23-.1.183.114.553-.342.526-.285-.017-.434-.082-.433-.4,0-.2.132-.573-.233-.54-.276.026-.074.363-.126.553-.033.122-.005.375-.123.337-.5-.16-1,.053-1.488-.05-.122-.026-.2-.175-.239-.309a1.141,1.141,0,0,1-.013-.835c.129-.294.034-.4-.278-.449a14.621,14.621,0,0,0-3.517-.04,18.254,18.254,0,0,1-3.522,0c-5.33-.663-10.657-1.352-16.017-1.731a57.4,57.4,0,0,0-7.5-.177c-3.438.208-6.839.768-10.263,1.112a9.568,9.568,0,0,1-4.88-.473,7.733,7.733,0,0,0-3.7-.536,8.473,8.473,0,0,0-3.863,1.6c-.413.264-.725.52-.619,1.064.024.121-.022.38-.121.326-.329-.18-.665.165-.931-.028s-.426-.065-.628.055c-1.111.659-2.219,1.326-3.339,1.97a11.96,11.96,0,0,1-3.7,1.631,122.053,122.053,0,0,0-16.57,4.218,32.259,32.259,0,0,0-7.465,3.465,5.652,5.652,0,0,0-2.687,4.367c-.074.713-.2,1.42-.3,2.129v3.426a.865.865,0,0,1,.093.438,45.559,45.559,0,0,0,4.19,15.93c1.883,4.089,4.163,7.973,6.272,11.944A16.925,16.925,0,0,1,64.734-1446a5.485,5.485,0,0,0,.978,2.512,2.494,2.494,0,0,0,4.05.29c.281-.312.554-.63.817-.957a30.833,30.833,0,0,0,3.4-5.695,39.108,39.108,0,0,0,3.7-10.29,2.519,2.519,0,0,0,.071-.557,1.22,1.22,0,0,0,.137-.123A.46.46,0,0,0,78-1461c.015-.05.016-.1.028-.154a.821.821,0,0,1,.1-.214c.032-.056.061-.114.09-.172a13.741,13.741,0,0,1-.061,1.4,47.484,47.484,0,0,0-.252,8.849,20.506,20.506,0,0,0,2.578,8.766c1.6,2.738,3.2,5.478,4.86,8.182a81.8,81.8,0,0,1,6.845,13.548,58.381,58.381,0,0,0,7.488,13.985,10.523,10.523,0,0,1,.937,1.606,17.407,17.407,0,0,0,8.529,8.222c.819.382,1.69.62,2.517.977h7.356a2.251,2.251,0,0,1,.277-.109,17.905,17.905,0,0,0,4.42-1.785,12.857,12.857,0,0,0,5.083-4.76c.852-1.5,1.7-3.012,2.477-4.555a8.029,8.029,0,0,1,2.573-3.092,17.607,17.607,0,0,0,3.488-3.329c2.169-2.644,3.459-5.774,4.887-8.828a.271.271,0,0,0-.013-.319c-.587-.825-.487-1.351.34-1.913a1.036,1.036,0,0,0,.441-.4c.065-.155.109-.343-.092-.436-.17-.078-.3.005-.33.191-.024.131-.077.23-.224.216-.335-.032-.412.22-.518.45-.9,1.933-1.773,3.875-2.7,5.795a19.875,19.875,0,0,1-5.262,6.92c-.488.4-.926.771-.772,1.488.025.112-.009.367-.156.293-.276-.137-.537.09-.731.007-.458-.2-.626.111-.84.366a6.788,6.788,0,0,0-.775,1.175c-.792,1.479-1.619,2.941-2.378,4.437a12.023,12.023,0,0,1-4.9,5.06,14.907,14.907,0,0,1-9.544,2.15,15.538,15.538,0,0,1-10.8-6.715c-.919-1.269-1.452-2.767-2.377-4.029a62.148,62.148,0,0,1-7.239-13.5,74.117,74.117,0,0,0-3.407-7.733c-2.112-3.86-4.4-7.619-6.774-11.317a25.045,25.045,0,0,1-4.092-15.585c.142-2.161.4-4.312.461-6.48a37.719,37.719,0,0,1,.177-4.778c.205-1.328.392-2.655.5-3.995.258-3.145.482-6.291.988-9.413a17.468,17.468,0,0,1,3.357-8.09,62.329,62.329,0,0,1,4.448-5.2q1.818-1.884,3.695-3.712a33.176,33.176,0,0,0,3.865-4.828c.112-.16.174-.413.494-.285a4.5,4.5,0,0,0,2.187.187c2.471-.262,4.941-.529,7.408-.819a2.7,2.7,0,0,1,1.516.221c.525.245,1.061.465,1.593.7l.09-.11-1.116-1c.987-.174,1.844-.169,2.686-.276a3.806,3.806,0,0,1,2.92.771c.578.436,1.235.768,1.965,1.212-.183-.532-.536-.823-.667-1.358l1.034.794a1,1,0,0,1,.518-.834,1.179,1.179,0,0,0,.29-.274.2.2,0,0,0-.029-.273.153.153,0,0,0-.254.043c-.1.229-.3.28-.43.132-.16-.18-.008-.377.158-.509a.627.627,0,0,1,1.013.3,2.534,2.534,0,0,1,.034.7,3.764,3.764,0,0,0,.64,1.793,8.117,8.117,0,0,1,.5-1.241c0,.439-.006.737,0,1.034,0,.144-.074.342.064.418.168.093.25-.119.35-.214a4.414,4.414,0,0,1,1.843-1.1,13.629,13.629,0,0,1,5.086-.448c3.72.372,7.4,1.178,11.171.995a1.352,1.352,0,0,1,1.049.411c.546.547,1.14,1.052,1.634,1.641,2.991,3.56,6.071,7.05,8.822,10.8a36.256,36.256,0,0,1,3.257,4.9,21.88,21.88,0,0,1,2.1,9.2c.052,1.292-.025,2.584.035,3.878.1,2.225.507,4.421.394,6.675-.182,3.606.161,7.216.171,10.826a25.991,25.991,0,0,1-.921,8.375,34.774,34.774,0,0,1-7.843,12.661,22.192,22.192,0,0,0-3.667,5.9c-.133.28,0,.32.229.307a.671.671,0,0,1,.587.231c.224.279.322.128.4-.1a21.789,21.789,0,0,1,1.039-2.2,7.59,7.59,0,0,1,1.3-2.141c.909-.964,1.838-1.909,2.659-2.955a42.446,42.446,0,0,0,6.041-9.953,23.435,23.435,0,0,0,1.422-8.9c.025-3.374-.112-6.749-.176-10.124-.006-.323,0-.646,0-.97a.23.23,0,0,1,.114.194c.307,3.36.567,6.725.934,10.079a25.975,25.975,0,0,0,3.795,10.943,7.266,7.266,0,0,0,2.646,2.64,2.335,2.335,0,0,0,2.523-.041,11.844,11.844,0,0,0,2.789-2.373,52.784,52.784,0,0,0,6.324-9.253,15.024,15.024,0,0,0,1.748-4.214c.515-2.534,1.154-5.038,1.88-7.518a114.792,114.792,0,0,0,3.724-15.033A19.857,19.857,0,0,0,182.921-1483.2Zm-105.49,18a.307.307,0,0,1,.105-.249C77.506-1465.36,77.469-1465.277,77.431-1465.2Zm4.972-32.467c-1.092,1.49-2.173,2.987-3.281,4.464a8.076,8.076,0,0,0-1.678,5.065c0,.142.07.3-.113.444l-.589-1.135a.968.968,0,0,0-.3.467c-.853,2.008-1.668,4.032-2.336,6.11a6.727,6.727,0,0,1-1.387,2.482q-2.134,2.382-4.269,4.765a22.758,22.758,0,0,0-2.945,3.821,6.43,6.43,0,0,0-.826,4.649,14.164,14.164,0,0,0,3.918,6.746c.228.243.317.13.4-.114.189-.56.387-1.117.589-1.7a.4.4,0,0,1,.165.409c.012,1.225.016,2.451.021,3.677,0,.7.148.813.841.684a5.7,5.7,0,0,0,3.57-2.273,4.065,4.065,0,0,0,1.1-3.1c.045-.207.1-.413.143-.62a6.458,6.458,0,0,0,.079-.786l.064-1.12a3.225,3.225,0,0,0-.02-.786c.191-.079.176-.307.165-.548a13.075,13.075,0,0,1,.478-4.286,70.384,70.384,0,0,1,3.449-8.86c.029-.064.06-.164.211-.131-.021.191-.036.386-.063.579q-.387,2.767-.779,5.534a10.318,10.318,0,0,1-.389,2.425,17.5,17.5,0,0,0-.972,3.635c-.188,1.078-.453,2.143-.6,3.227-.069.383-.151.764-.233,1.144l-.056.26c-.036.168-.072.337-.114.505a8.489,8.489,0,0,0-.207.889.857.857,0,0,0,.027.413.889.889,0,0,0-.093.3,24.7,24.7,0,0,1-1.047,4.248,1.243,1.243,0,0,1-.42.664,4.666,4.666,0,0,0-1.889,3.576,5.922,5.922,0,0,1-.748,2.659c-.272.463-.495.954-.764,1.418a18.677,18.677,0,0,1-2.583,3.771,1.276,1.276,0,0,1-2.232-.291,6.723,6.723,0,0,1-.788-2.219,12.713,12.713,0,0,0-.88-3.5c-1.014-2.064-1.974-4.155-3.138-6.142a3.761,3.761,0,0,1-.512-1.972,7.964,7.964,0,0,0-.564-2.9,17.214,17.214,0,0,0-1.748-3.11,12.2,12.2,0,0,1-1.88-4.578,4.442,4.442,0,0,1,.167-2.72,3.477,3.477,0,0,1,2.3-1.834c-.422,1.019-.979,1.825-1.3,2.852l3.089-1.726.076.11-.971,1.831a1.19,1.19,0,0,0,.746-.072,3.886,3.886,0,0,0,2.11-1.918,9.93,9.93,0,0,0,1-3.1,11.024,11.024,0,0,1,1.1-3.85c.083-.145.116-.342.395-.429l-.6,2.354.085.043,1.979-1.787.092.069-.781,2.107c2.593-.87,4.569-2.23,5.578-4.732a40,40,0,0,0,2.024-6.9,10.2,10.2,0,0,0,.3-1.732c-.519.273-.99.523-1.463.768-.235.122-.514.2-.482.555.008.091-.063.185-.154.147-.459-.191-.928.1-1.444-.027.445-.4.253-1.127.854-1.419l-1.337.542c.271-.486.642-.726.825-1.188l-1.979.593-.048-.111,1.695-1.327-.052-.089-1.79.355-.081-.12,1.114-.985-.072-.081-1.089.276c.456-.535,1-.8,1.408-1.326l-1.574.437a13.758,13.758,0,0,1,1.291-1.523,1.548,1.548,0,0,1,.857-.481c2.362-.509,4.718-1.044,7.084-1.535a13.706,13.706,0,0,0,4.325-1.438c.085-.05.178-.175.332-.02C82.667-1498.042,82.539-1497.849,82.4-1497.663Zm80.4,7.059c-.116-.088-.219-.03-.277.1a.231.231,0,0,1-.372.1c-.152-.112-.069-.277.022-.4a.583.583,0,0,1,.648-.268c.278.073.493.22.5.541.009.266,0,.534,0,.8h.009c0,.2,0,.4,0,.6,0,.267-.021.51-.39.288-.051-.031-.148-.059-.182-.034-.278.214-.513.17-.641-.144a.72.72,0,0,1,.2-.865c.151-.131.329-.231.472-.368A.218.218,0,0,0,162.8-1490.6Zm14,30.8c-.347,1.57-.328,1.569-1.92,1.509-.5-.019-.994,0-1.58,0,.3.32.572.6.842.888a5.359,5.359,0,0,1,.817.988l-1.838-.839-.092.068,1.369,2.27-.077.091-1.3-.968c.235.806.694,1.42.946,2.158-.265.011-.354-.276-.621-.271l.442,1.474-.077.063-1.75-1.591c.263-.188.453.1.7-.024l-1.056-1.8.067-.071.6.459c-.055-.827-1.717-2.97-3.1-3.92a29.941,29.941,0,0,0-4.476-2.312l-.106.129,1.324,2.022-.1.092-1.489-1.394c.306,1.281.946,2.414,1.321,3.687l-2.544-2.774c-.214.21-.162.447-.179.653a28.706,28.706,0,0,0,.329,8.474,9.977,9.977,0,0,0,1.248,3.117,6.614,6.614,0,0,0,2.947,2.645c-.329-.636-.615-1.164-.879-1.7a3.622,3.622,0,0,1-.48-1.858l1.6,2.643c.294.486.294.486.625.024a8.634,8.634,0,0,0,1.43-4.033,1.516,1.516,0,0,1,.237.9,7.2,7.2,0,0,1,.007.906c-.013.317-.05.634-.087,1.084a5.762,5.762,0,0,0,1.708-3.553,11.472,11.472,0,0,1,.394,2.3.932.932,0,0,1-.224.552,45.075,45.075,0,0,1-3.809,5.131,14.442,14.442,0,0,1-1.945,1.821,1.463,1.463,0,0,1-2.019.038,8.859,8.859,0,0,1-2.838-3.66c-.539-1.173-.993-2.385-1.494-3.576a2.649,2.649,0,0,1-.006-1.487c.272-1.809.555-3.616.832-5.424a1.08,1.08,0,0,0-.042-.565l-.625,1.548-.112-.021q.264-2.079.529-4.158l-.1-.027-.681,1.826c-.093-1.719.254-3.433-.287-5.237l-.376,1.726-.117-.008c0-.59,0-1.18,0-1.77,0-.607-.2-.744-.705-.5a.441.441,0,0,1-.514-.06.844.844,0,0,1-.309-.805,2.192,2.192,0,0,1,.238-.706c.139-.263.238-.577-.115-.787a.215.215,0,0,1-.1-.3,5.16,5.16,0,0,0,.067-2.731,24.576,24.576,0,0,1,.1-5.375c.017-.14-.03-.356.125-.4.186-.055.272.162.375.284.3.356.585.724.876,1.087l.116-.063-1.21-2.859.107-.073,2.131,2.763.087-.046q-.78-2.188-1.562-4.376l.1-.069,1.374,1.52a3.071,3.071,0,0,0-.035-1.107c-.136-1.606-.225-3.219-.45-4.813a20.938,20.938,0,0,0-1.692-5.1,38.8,38.8,0,0,0-3.18-6.054,18.053,18.053,0,0,0-5.273-5.122,24.241,24.241,0,0,1-3.585-2.677c-.117-.116-.273-.2-.307-.391.16-.111.284.022.4.072q3.785,1.583,7.566,3.174a1.508,1.508,0,0,1,.829.7,23.387,23.387,0,0,0,4.541,5.868,2.3,2.3,0,0,1,.509.718l-1.589-.853c.721,1.267,1.781,2.251,2.663,3.494-.586-.138-.922-.569-1.4-.752-.063.183.067.291.141.4a22.562,22.562,0,0,1,3.351,8.827,36.081,36.081,0,0,0,1.323,5.009,5.975,5.975,0,0,0,1.233,2.118c.633.734,1.255,1.476,1.852,2.25a11.1,11.1,0,0,1-1.485-.709c.314.58.833.924,1.156,1.548l-.846-.464-.066.069,1.659,2.293-.057.06-.657-.567a6.867,6.867,0,0,0,.663,1.882c.128-.38.4-.348.65-.3s.2.3.165.462a1.945,1.945,0,0,0,1.1,2.107c.168.11.328.232.541.383-.574.17-1-.185-1.507-.27a1.111,1.111,0,0,0,.324.89,4.439,4.439,0,0,0,2.21,1.425,11.121,11.121,0,0,0,5.769.263C176.806-1460.3,176.9-1460.264,176.8-1459.809Zm1.65-16.322c-.018.272.1.731-.441.345a.142.142,0,0,0-.131-.005c-.245.224-.478.19-.614-.089a.7.7,0,0,1,.144-.873c.148-.133.325-.233.481-.358a.249.249,0,0,0,.066-.356c-.109-.137-.239-.089-.312.063a.231.231,0,0,1-.372.106c-.173-.135-.064-.31.043-.436a.6.6,0,0,1,.669-.218c.254.077.457.215.462.518.005.267,0,.535,0,.8h.006C178.45-1476.465,178.459-1476.3,178.448-1476.131Z" transform="translate(-52.003 1505.034)" fill="#afafad"/>
      <path id="Trazado_1329" data-name="Trazado 1329" d="M142.807-1502c.23-.007.223-.2.23-.483a.2.2,0,0,0-.208-.207c-.219-.008-.26.17-.263.34S142.574-1501.99,142.807-1502Z" transform="translate(-52.003 1505.034)" fill="#afafad"/>
      <path id="Trazado_1330" data-name="Trazado 1330" d="M142.614-1423.469a1.412,1.412,0,0,0,.376-.907A.74.74,0,0,0,142.614-1423.469Z" transform="translate(-52.003 1505.034)" fill="#afafad"/>
      <path id="Trazado_1331" data-name="Trazado 1331" d="M131.317-1469.67a6.158,6.158,0,0,1-.118-2.475c.66,1.514.88,3.153,2.369,4.016a5.982,5.982,0,0,1-.439-1.145c.3.044.415.272.6.4s.358.307.553.435a9.12,9.12,0,0,0,6.855,1.235,4.454,4.454,0,0,0,3.182-1.91,5.505,5.505,0,0,0,.782-3.52.522.522,0,0,0-.347-.454,3.254,3.254,0,0,1-1.091-.873,8.868,8.868,0,0,0-3.568-2.461,6.266,6.266,0,0,0-5.631.095c-.021.013-.06-.006-.175-.02a4.553,4.553,0,0,1,4.319-1.493,8.249,8.249,0,0,1,4.254,1.826,5.413,5.413,0,0,0-3.972-2.548,7.392,7.392,0,0,0-4.726.975,4.4,4.4,0,0,1,2.464-2.135c-2.576.419-4.2,2.012-5.289,4.417a4.962,4.962,0,0,1,.772-3.021C128.9-1476.037,129.337-1471.166,131.317-1469.67Zm11.775-2.111a2.19,2.19,0,0,1-.663,2.51,4.552,4.552,0,0,1-4,.9C140.355-1468.986,142.538-1469.23,143.092-1471.781Zm-5.184-2.112a.693.693,0,0,1,.684.718.672.672,0,0,1-.641.66.732.732,0,0,1-.721-.695A.727.727,0,0,1,137.908-1473.893Zm-2.307.269c.271-.006.38.165.427.406-.035.241-.158.416-.414.418a.379.379,0,0,1-.415-.406A.38.38,0,0,1,135.6-1473.624Zm-.708,1.821a3.5,3.5,0,0,0,4.854.662,1.738,1.738,0,0,0,.693-1.818c-.028-.161-.18-.362.083-.476a.516.516,0,0,1,.6.117,1.367,1.367,0,0,1,.4,1.049,3.077,3.077,0,0,1-1.966,2.842,4.073,4.073,0,0,1-4.235-.752,2.535,2.535,0,0,1-.835-2.031A.98.98,0,0,1,134.893-1471.8Z" transform="translate(-52.003 1505.034)" fill="#afafad"/>
      <path id="Trazado_1332" data-name="Trazado 1332" d="M102.082-1410.683a.154.154,0,0,0,.243.088c.2-.171.081-.388.061-.648C102.091-1411.1,102.011-1410.921,102.082-1410.683Z" transform="translate(-52.003 1505.034)" fill="#afafad"/>
      <path id="Trazado_1333" data-name="Trazado 1333" d="M103.834-1459.972a1.334,1.334,0,0,0-1.077.442c-1.593,1.481-1.844,3.491-2.214,5.454l.129.05c1.17-1.771,2.346-3.537,3.5-5.315C104.387-1459.665,104.226-1459.929,103.834-1459.972Z" transform="translate(-52.003 1505.034)" fill="#afafad"/>
      <path id="Trazado_1334" data-name="Trazado 1334" d="M131.087-1449.3a23.706,23.706,0,0,1,1.357,5.437c.569-4.54-1.362-9.256-4.216-10.269A18.266,18.266,0,0,1,131.087-1449.3Z" transform="translate(-52.003 1505.034)" fill="#afafad"/>
      <path id="Trazado_1335" data-name="Trazado 1335" d="M100.468-1445.974c.161-3.034,1.522-5.449,3.063-7.8C100.649-1451.7,99.692-1449.381,100.468-1445.974Z" transform="translate(-52.003 1505.034)" fill="#afafad"/>
      <path id="Trazado_1336" data-name="Trazado 1336" d="M67.884-1446.924a1.812,1.812,0,0,0,1.325-1.5.839.839,0,0,0-.619-.845.551.551,0,0,0-.727.272,6.044,6.044,0,0,0-.5,1.52A.451.451,0,0,0,67.884-1446.924Z" transform="translate(-52.003 1505.034)" fill="#afafad"/>
      <path id="Trazado_1337" data-name="Trazado 1337" d="M147.122-1477.2c-.126-.079-.151-.2-.216-.316a3.042,3.042,0,0,0-.717-.9.462.462,0,0,0-.557-.09c-.192.123-.137.34-.082.507a30.926,30.926,0,0,0,1.358,3.833,1.529,1.529,0,0,0,.371.532c.234.2.486.405.812.262s.342-.468.362-.783a3.829,3.829,0,0,0-.35-1.3c-.091-.2-.24-.438-.579-.244-.293.168-.477-.042-.549-.313a.7.7,0,0,1,.166-.7C147.313-1476.889,147.352-1477.058,147.122-1477.2Z" transform="translate(-52.003 1505.034)" fill="#afafad"/>
      <path id="Trazado_1338" data-name="Trazado 1338" d="M103.659-1451.484a4.82,4.82,0,0,0-.03,4c.532,1.251,1.044,2.51,1.683,3.711.131.247.15.384-.134.555a1.181,1.181,0,0,0-.648,1.64,1.394,1.394,0,0,1-.119,1.11c-.236.443-.438.9-.636,1.368a.763.763,0,0,0,.336,1.04c.314.193.64.368.97.532a.876.876,0,0,1,.551.924c-.014.184-.02.369-.02.553a1.827,1.827,0,0,0,2.528,1.777,5.209,5.209,0,0,0,1.871-1.246.979.979,0,0,1,1.274-.205c.751.41,1.506.811,2.248,1.236a6.039,6.039,0,0,0,6.948-.352,6.464,6.464,0,0,1,1.5-.809,2.744,2.744,0,0,0,1.658-1.647,27.034,27.034,0,0,0,1.021-3.679,5.143,5.143,0,0,1,.849-2.125,17.492,17.492,0,0,0,1.9-3.015,6.818,6.818,0,0,0,.556-5.5,6.868,6.868,0,0,0-4.093-4.061,23.145,23.145,0,0,0-9.374-1.968,17.526,17.526,0,0,0-3.509.386A9.913,9.913,0,0,0,103.659-1451.484Zm19.909-3.44a9.794,9.794,0,0,1,1.62,1.012,4.928,4.928,0,0,1,2.052,5.432,5.333,5.333,0,0,1-1.591,3.019,2.56,2.56,0,0,1-3.312.4,1.273,1.273,0,0,1-.6-1.515c.04-.18.1-.356.14-.535.153-.618.154-.629-.45-.718-.227-.033-.262-.15-.269-.34-.008-.213.078-.305.288-.316.121-.006.311.062.329-.127.012-.141-.144-.2-.269-.265a2.132,2.132,0,0,0-2.278.454,3.072,3.072,0,0,0,1.379,5.069,5.829,5.829,0,0,0,3.276.139c.208-.047.417-.091.759-.165a21.748,21.748,0,0,1-2.152,3.305,9.24,9.24,0,0,1-2.6,2.418,4.139,4.139,0,0,1-2.3.639,1.563,1.563,0,0,1-1.619-1.678,60.3,60.3,0,0,1,.33-6.083c.012-.134.021-.268.024-.4,0-.2-.051-.371-.285-.4a.355.355,0,0,0-.433.32,6.35,6.35,0,0,0-.109.847c-.1,1.793-.167,3.589-.3,5.38-.128,1.7-.888,2.083-2.259,1.089a37.462,37.462,0,0,1-6.528-5.508,3.6,3.6,0,0,1-.954-1.756c.237.15.424.274.616.391a6.855,6.855,0,0,0,4.859,1.048,3.323,3.323,0,0,0,2.845-4.016,2.843,2.843,0,0,0-.384-.871c-.131-.2-.248-.378-.557-.285a.48.48,0,0,1-.617-.38.726.726,0,0,0-.657-.629,1.241,1.241,0,0,0-1.068.311,3.465,3.465,0,0,0-.645.834c-.379.633-.727,1.286-1.126,1.907a1.58,1.58,0,0,1-2.752.27,4.932,4.932,0,0,1-.541-6.091,8.549,8.549,0,0,1,5.663-3.706A19.743,19.743,0,0,1,123.568-1454.924Z" transform="translate(-52.003 1505.034)" fill="#afafad"/>
      <path id="Trazado_1339" data-name="Trazado 1339" d="M90.253-1479.327c2.31-1.741,4.941-1.849,7.661-1.55-.965-.761-2.156-.71-3.242-1.006a11.885,11.885,0,0,1,2.972-.179,5.772,5.772,0,0,0-3.411-.582,8.893,8.893,0,0,1,4.307-.868,7.437,7.437,0,0,0-2.717-.54,6.935,6.935,0,0,1,3.166-.287c-.928-.422-1.933-.2-3.012-.354a6.856,6.856,0,0,1,3.526-.6,3.905,3.905,0,0,0-4.821.065,14.264,14.264,0,0,0-3.1,3.416,4.861,4.861,0,0,0-.638,1.087l.862-.4c-.314.33-.574.608-.84.882A3.43,3.43,0,0,0,90.253-1479.327Z" transform="translate(-52.003 1505.034)" fill="#afafad"/>
      <path id="Trazado_1340" data-name="Trazado 1340" d="M132.771-1412.408a.452.452,0,0,0,.576-.108,17.779,17.779,0,0,0,4.326-5.57,92.236,92.236,0,0,0,4.416-11.127,2.4,2.4,0,0,1,.317-.788,28.579,28.579,0,0,0,2.124-2.782c-.179.543-.4,1.063-.6,1.589-.039.1-.1.241,0,.333s.222-.008.323-.051a1.964,1.964,0,0,0,.584-.47,21.177,21.177,0,0,0,3.373-5.222,1.857,1.857,0,0,0,.087-1.793.94.94,0,0,0-.8-.606.891.891,0,0,0-.8.53,5.864,5.864,0,0,0-.583,1.654,11,11,0,0,1-.843,2.363,3.372,3.372,0,0,1,.1-.485,7.561,7.561,0,0,0-.171-4.651,1.624,1.624,0,0,0-.772-.96,1.225,1.225,0,0,0,.125.65,8.277,8.277,0,0,1-1.8,8.307.5.5,0,0,1-.641.189,15.922,15.922,0,0,0-1.671-.55c-.384-.1-.475-.3-.5-.667a19.574,19.574,0,0,0-1.218-6.2c-.116-.274-.253-.54-.381-.81a16.084,16.084,0,0,0,.377,2.043,14.054,14.054,0,0,1,.444,4.639,1.333,1.333,0,0,1-.779,1.23,7.536,7.536,0,0,0-2.072,1.58c-.789.8-1.594,1.588-2.372,2.4a3.656,3.656,0,0,1-2.463,1.11,9.538,9.538,0,0,1-1.911-.023,5.125,5.125,0,0,1-3.423-1.375,15.818,15.818,0,0,0-5.229-3.692,13.837,13.837,0,0,0-6.859-1.491,32.027,32.027,0,0,0-4.3.815,6.706,6.706,0,0,0-4.353,2.9,4.036,4.036,0,0,1-4.955,1.6,8.006,8.006,0,0,1-4.307-3.537,4.037,4.037,0,0,0-1.98-1.857,1.107,1.107,0,0,1-.773-1.1,12.488,12.488,0,0,1,1.514-7.035c.442-.831.959-1.617,1.432-2.431a11.155,11.155,0,0,0-3.124,4.954,15.755,15.755,0,0,0-.533,4.536c0,.2.129.492-.139.575s-.374-.218-.521-.392a3.26,3.26,0,0,0-.7-.825,13.37,13.37,0,0,0,.481,1.44,6.377,6.377,0,0,1,.551,2.534,15.988,15.988,0,0,0,.538,3.781c1.163,4.1,2.567,8.126,4.1,12.1a9.261,9.261,0,0,0,2.426,3.486,9.7,9.7,0,0,1,2.268,3.112,28.379,28.379,0,0,0,3.734,5.9,9.838,9.838,0,0,0,5.056,3.484,20.49,20.49,0,0,0,3.58.538,12.655,12.655,0,0,0,2.751.073c-.07-.375-.3-.4-.623-.378a14.418,14.418,0,0,1-3.812-.186,10.551,10.551,0,0,1-7.914-5.6,8.11,8.11,0,0,1-.87-2.244c-.019-.105-.07-.25.059-.321s.213.044.3.119a2.589,2.589,0,0,1,.647.888,7.247,7.247,0,0,0,2.646,2.968,14.5,14.5,0,0,0,11.12,1.9,13.676,13.676,0,0,0,8.481-5.8c.154-.21.251-.707.562-.539.361.194.092.623-.038.906a13.425,13.425,0,0,1-5.218,6.106,12.478,12.478,0,0,1-3.874,1.508c-.193.041-.384.057-.305.331s.267.109.412.093a2.014,2.014,0,0,0,.293-.071,13.405,13.405,0,0,0,4.287-2.065c1.8-1.276,3.566-2.588,4.551-4.667.4-.848.869-1.666,1.27-2.515a5.555,5.555,0,0,1,1.745-2.173c.635-.466,1.249-.963,1.868-1.452.078-.062.258-.126.138-.258-.092-.1-.212-.038-.264.107a.221.221,0,0,1-.369.1c-.148-.107-.085-.282.009-.4A.629.629,0,0,1,132.771-1412.408Zm-4.684-11.63a6.845,6.845,0,0,1,1.389-1.445c.483-.316.729-.234.872.324.1.406.17.821.253,1.231a6.743,6.743,0,0,1-.4,1.559.732.732,0,0,1-.822.441,2.526,2.526,0,0,1-.992-.342C127.527-1422.805,127.44-1423.271,128.087-1424.038Zm-22.313-3.791c.211-.042.308.126.31.3.009.889,0,1.778,0,2.667l-.248.008q-.167-1.28-.332-2.561A.337.337,0,0,1,105.774-1427.829Zm-3.639,1.642c.207-.64.525-.734,1.03-.3a6.7,6.7,0,0,1,1.764,2.413c.252.561.087.832-.5.928a1.491,1.491,0,0,0-1.089.726,2.39,2.39,0,0,1-.2.29c-.4.49-.781.457-1.091-.109a3.565,3.565,0,0,1-.26-1.565A7.647,7.647,0,0,1,102.135-1426.187Zm1.305,9.959c-.307,1.116-.627,2.227-.994,3.325-.075.225-.131.406.163.529a.509.509,0,0,1,.253.513c.007.47.006.94.007,1.41,0,.269-.1.394-.363.228-.075-.047-.152-.1-.227-.048-.235.172-.445.171-.584-.1a.687.687,0,0,1,.1-.841,4.119,4.119,0,0,1,.475-.369c.135-.1.214-.263.11-.392-.143-.175-.22,0-.341.1a1.028,1.028,0,0,1-1.132.032,4.688,4.688,0,0,1-2.243-2.088,34.615,34.615,0,0,1-1.877-4.824c-.95-2.7-1.982-5.382-2.809-8.129a13.638,13.638,0,0,1-.575-3.56c.045-.313-.179-.781.177-.995s.726.132,1.057.3a3.356,3.356,0,0,1,1.286,1.109,7.733,7.733,0,0,0,2.272,2.105q.749.508,1.462,1.069c.583.459.574.773-.016,1.23a5.337,5.337,0,0,1-.71.476c-.355.193-.255.381-.012.557a1.243,1.243,0,0,0,.415.17.859.859,0,0,1,.642.579,18.98,18.98,0,0,0,1.568,3.371.48.48,0,0,1-.143.7c-.257.214-.5.446-.749.67s-.113.335.123.4a1.538,1.538,0,0,0,1.125-.133.731.731,0,0,1,1,.266A2.422,2.422,0,0,1,103.44-1416.228Zm-.088-4.276a4.421,4.421,0,0,1,.753-1.837c.165-.242.3-.23.441,0a4.424,4.424,0,0,1,.69,1.651.983.983,0,0,1-1.058,1.154C103.485-1419.538,103.245-1419.82,103.352-1420.5Zm18.99,13.6a7.811,7.811,0,0,1-4.781,3.012,16.628,16.628,0,0,1-7.388-.038c-3.387-.84-5.034-2.708-5.47-6.185a23.235,23.235,0,0,1-.159-2.662,20.494,20.494,0,0,1,.9-6.206,15.457,15.457,0,0,0,.923-3.225c.108-1.119.32-2.235.328-3.354.013-1.836.991-2.513,2.628-2.651a5.667,5.667,0,0,1,3.643.929,2.205,2.205,0,0,1,1.047,1.685c.4,3.522.567,7.06.776,10.6.016.285.046.568.063.853.013.222.127.353.345.347s.17-.207.178-.342c.137-2.145.267-4.289.406-6.434.077-1.189.181-2.376.252-3.566a3.139,3.139,0,0,1,2.008-2.786,10.164,10.164,0,0,1,5.361-.815.753.753,0,0,1,.726.819c-.028,3.178.8,6.252,1.128,9.387A14.23,14.23,0,0,1,122.342-1406.906Zm3.773-11.725c-.4-.078-.6-.329-.465-.726a22.083,22.083,0,0,1,1.112-2.682c.076-.156.207-.335.416-.312.193.021.226.23.294.375a6.116,6.116,0,0,1,.6,2.162.849.849,0,0,1-.3.761A2.055,2.055,0,0,1,126.115-1418.631Zm4.324,6.45a3.474,3.474,0,0,1-.4.21c-.939.384-1.221.275-1.655-.639a11.593,11.593,0,0,1-1.363-3.389,1.126,1.126,0,0,1,.741-1.413,22.449,22.449,0,0,0,5.756-3.833,1.114,1.114,0,0,1,1.323-.25.888.888,0,0,0,.287.089c.163.018.359.064.457-.11.083-.148-.031-.293-.115-.412-.278-.4-.586-.778-.851-1.184a2.366,2.366,0,0,1,.363-3.46c1.128-1.1,2.174-2.284,3.192-3.489a1.585,1.585,0,0,1,1.559-.7c.05.005.184.011.316.031,1.362.211,1.528.488,1.093,1.782a60.169,60.169,0,0,1-4.14,9.975A17.059,17.059,0,0,1,130.439-1412.181Z" transform="translate(-52.003 1505.034)" fill="#afafad"/>
      <path id="Trazado_1341" data-name="Trazado 1341" d="M99.313-1486.22a1.289,1.289,0,0,0-1.2-1.053A3.527,3.527,0,0,0,95-1486.21C97.395-1486.769,97.395-1486.769,99.313-1486.22Z" transform="translate(-52.003 1505.034)" fill="#afafad"/>
      <path id="Trazado_1342" data-name="Trazado 1342" d="M87.884-1470.892a2.3,2.3,0,0,0,.235,1.657,6.04,6.04,0,0,1,.607,1.748,1.919,1.919,0,0,0,2.544,1.727,3.448,3.448,0,0,0,1.041-.36c.745-.386,1.486-.779,2.233-1.162.1-.053.195-.191.357-.088-.183.311-.509.513-.683.923l1.117-.512a1.252,1.252,0,0,1-.276.461c-.985,1.167-2,2.307-2.94,3.514-.271.349-.217.429.2.5a10.873,10.873,0,0,0,5.015-.476c.191-.057.378-.2.629-.114a5.531,5.531,0,0,1-1.284,1.621,11.6,11.6,0,0,0,2.915-1.382l-1.53,2.071a5.086,5.086,0,0,0,3.488-2.639c.126-.267.417-.546.069-.89-.091-.09.015-.315.146-.392.313-.183.33-.485.364-.783a14.075,14.075,0,0,0,.039-2.012c-.025-.773-.026-.772.725-.576.022.005.053-.024.086-.04-.063-.207-.25-.31-.384-.454-.241-.262-.265-.4.159-.446s.859-.139,1.288-.211a2.1,2.1,0,0,0-.763-.32c-.333-.068-.327-.18-.12-.415a7.607,7.607,0,0,0,1.581-2.665,5.753,5.753,0,0,0,.191-2.758c-.226.435-.377.771-.569,1.081a1.71,1.71,0,0,1-.8.794,6.26,6.26,0,0,0,.305-4.061,10.994,10.994,0,0,0-2.339-3.265,6.412,6.412,0,0,1,.283,2.769,7.013,7.013,0,0,0-.61-1.564,2.328,2.328,0,0,0-1.265-1.071,4,4,0,0,1,.805,2.2,3.224,3.224,0,0,0-1.518-1.657,4.5,4.5,0,0,1,.875,1.533c.023.13.1.282-.009.382s-.248-.026-.354-.089a9.2,9.2,0,0,0-5.415-1.215,5.433,5.433,0,0,0-5.3,4.1C88.55-1473.941,88.222-1472.415,87.884-1470.892Zm11.907-.911c.057-.179.021-.551.3-.469.192.056.059.394,0,.59-.747,2.305-2.241,3.217-4.469,2.639a.646.646,0,0,1-.491-.3c.574-.024,1.114.068,1.656.016A3.262,3.262,0,0,0,99.791-1471.8Zm-.779-1.164c.06-.09.1-.252.248-.194s.12.23.079.353a3.566,3.566,0,0,1-.967,1.509,3.693,3.693,0,0,1-4.954.063,2.394,2.394,0,0,1-.819-1.461,1.4,1.4,0,0,1,.862-1.563c.165,1.537,1.347,1.835,2.5,2.116a3.319,3.319,0,0,0,2.315-.157A1.873,1.873,0,0,0,99.012-1472.967Zm-3.886-1.606a.661.661,0,0,1,.705-.573.677.677,0,0,1,.581.7.689.689,0,0,1-.711.577A.669.669,0,0,1,95.126-1474.573Zm3.222.576c-.244-.028-.419-.142-.433-.4a.377.377,0,0,1,.39-.42.373.373,0,0,1,.429.379A.419.419,0,0,1,98.348-1474Zm-4.8-4.939a5.384,5.384,0,0,1,4.923,1.816.621.621,0,0,1,.2.34.509.509,0,0,1-.141.464c-.153.131-.259-.067-.361-.149a11.376,11.376,0,0,0-1.384-1,4.369,4.369,0,0,0-4.883.071c-.113.072-.217.16-.334.223-.1.051-.145.192-.329.143A2.865,2.865,0,0,1,93.549-1478.936Z" transform="translate(-52.003 1505.034)" fill="#afafad"/>
      <path id="Trazado_1343" data-name="Trazado 1343" d="M117.506-1502.008c-.053-.049-.132.025-.148.087-.066.27.209.293.328.427a.358.358,0,0,0,.3.161c0-.065,0-.129,0-.193C118.009-1501.867,117.671-1501.854,117.506-1502.008Z" transform="translate(-52.003 1505.034)" fill="#afafad"/>
      <path id="Trazado_1344" data-name="Trazado 1344" d="M115.049-1465.12a13.2,13.2,0,0,0-3.577,2.008c-.032.022-.036.084-.069.171a19.532,19.532,0,0,0,2.96-.163,25.992,25.992,0,0,1,6.79.712,1.013,1.013,0,0,0,.915-.1,6.031,6.031,0,0,0-2.655-1.915c-.682-.172-1.359-.37-2.034-.57A4.093,4.093,0,0,0,115.049-1465.12Z" transform="translate(-52.003 1505.034)" fill="#afafad"/>
      <path id="Trazado_1345" data-name="Trazado 1345" d="M117.4-1502.87c-.169.043-.23.219-.231.4,0,.116.049.211.16.208.258-.007.184-.22.206-.373C117.508-1502.726,117.6-1502.919,117.4-1502.87Z" transform="translate(-52.003 1505.034)" fill="#afafad"/>
    </g>
  </g>
</svg>
