<svg xmlns="http://www.w3.org/2000/svg" xmlns:xlink="http://www.w3.org/1999/xlink" width="91" height="91" viewBox="0 0 91 91">
  <defs>
    <filter id="Elipse_7" x="0" y="0" width="91" height="91" filterUnits="userSpaceOnUse">
      <feOffset dx="3" dy="9" input="SourceAlpha"/>
      <feGaussianBlur stdDeviation="3" result="blur"/>
      <feFlood flood-opacity="0.161"/>
      <feComposite operator="in" in2="blur"/>
      <feComposite in="SourceGraphic"/>
    </filter>
  </defs>
  <g id="Spa" transform="translate(6)">
    <g transform="matrix(1, 0, 0, 1, -6, 0)" filter="url(#Elipse_7)">
      <circle id="Elipse_7-2" data-name="Elipse 7" cx="36.5" cy="36.5" r="36.5" transform="translate(6)" fill="#ffb714"/>
    </g>
    <g id="Grupo_1505" data-name="Grupo 1505" transform="translate(9.461 6.022)">
      <path id="Trazado_647" data-name="Trazado 647" d="M1259.889,487.136a7.442,7.442,0,0,1-2.244,5.506,7.064,7.064,0,0,1-1.239.854,11.409,11.409,0,0,0-2.821,2.237,2.159,2.159,0,0,0-.5,2.511.766.766,0,0,1-.037.843c-1.417,2.572-2.811,5.157-4.214,7.736q-2.456,4.516-4.918,9.029c-1.624,2.99-3.233,5.989-4.867,8.973a41.4,41.4,0,0,1-2.067,3.667,5.829,5.829,0,0,1-1.121,1.3.593.593,0,0,1-.443.181c-.247-.028-.354-.244-.239-.528q.759-1.889,1.529-3.774c.719-1.765,1.445-3.528,2.165-5.293q1.681-4.126,3.356-8.255,1.322-3.252,2.642-6.5c.812-1.988,1.659-3.963,2.426-5.968a2.119,2.119,0,0,1,1.2-1.381,2.94,2.94,0,0,0,1.743-1.9c.3-.833.713-1.628,1.089-2.433.081-.173.058-.244-.1-.353a5.469,5.469,0,0,1-2.439-5.366,6.8,6.8,0,0,1,2.713-5,5.056,5.056,0,0,1,6.912.337A5.67,5.67,0,0,1,1259.889,487.136Zm-5.68,5.473a4.737,4.737,0,0,0,4.376-6.374,4.009,4.009,0,0,0-4.75-2.626,4.89,4.89,0,0,0-3.5,5.759A4.011,4.011,0,0,0,1254.208,492.609Zm-7.76,12.814a1.322,1.322,0,0,0-1.3,1.718c.066.243.147.282.333.089.419-.436.853-.857,1.275-1.291.106-.11.335-.2.265-.36s-.3-.139-.473-.155C1246.518,505.422,1246.483,505.424,1246.448,505.424Zm.056,2.755a1.337,1.337,0,0,0,1.33-1.68c-.062-.25-.146-.238-.308-.07-.395.412-.8.812-1.2,1.218-.121.121-.362.253-.305.385C1246.092,508.207,1246.356,508.173,1246.5,508.179Z" transform="translate(-1223.582 -482.014)" fill="#8e5207"/>
      <path id="Trazado_648" data-name="Trazado 648" d="M1270.185,539.753c-.105.129-.147.184-.193.236-2.027,2.243-3.836,4.662-5.675,7.055-1.8,2.348-3.627,4.68-5.58,6.906a58.328,58.328,0,0,1-7.524,7.3c-.715.568-1.449,1.109-2.18,1.655-.19.141-.309.159-.494-.028q-2.595-2.617-5.21-5.217c-.323-.323-.638-.654-.971-.967-.165-.155-.151-.274-.027-.447q1.21-1.683,2.544-3.27a57.753,57.753,0,0,1,5.176-5.342c1.84-1.684,3.763-3.27,5.722-4.814,2.756-2.173,5.595-4.242,8.281-6.5.4-.339.8-.69,1.18-1.05.139-.129.227-.153.372-.006q2.186,2.206,4.384,4.4A.686.686,0,0,0,1270.185,539.753Zm-2.244.27a.237.237,0,0,0-.1-.2c-.125-.124-.256-.241-.379-.365-.64-.651-1.283-1.3-1.914-1.958-.191-.2-.343-.234-.531-.005a6.489,6.489,0,0,1-.478.509c-.977.956-1.972,1.893-3.028,2.763a55.648,55.648,0,0,1-4.5,3.4c-1.9,1.266-3.835,2.478-5.674,3.833-.172.126-.24.2-.094.409a22.189,22.189,0,0,0,5.612,5.6c.164.113.237.117.351-.048.413-.6.852-1.175,1.257-1.776,1.125-1.67,2.2-3.373,3.365-5.015a46.74,46.74,0,0,1,5.989-7.011C1267.862,540.116,1267.906,540.062,1267.94,540.024ZM1255.5,556.073a22.716,22.716,0,0,1-6.2-6.154c-.151-.224-.246-.079-.353.017a20.172,20.172,0,0,0-4.776,6.179.388.388,0,0,0,.079.539c1.424,1.406,2.844,2.816,4.24,4.248a.551.551,0,0,0,.773.115A20.391,20.391,0,0,0,1255.5,556.073Zm-4.979-8.142c-.042.04-.093.087-.142.136-.315.314-.616.643-.95.937-.208.184-.186.327-.045.53a26.051,26.051,0,0,0,2.013,2.609,22.2,22.2,0,0,0,4.385,3.754.237.237,0,0,0,.36-.039c.312-.333.628-.664.966-.969.2-.181.208-.264-.031-.416a20.479,20.479,0,0,1-2.806-2.158,22.06,22.06,0,0,1-3.589-4.251C1250.646,548.007,1250.625,547.934,1250.523,547.93Z" transform="translate(-1226.689 -505.28)" fill="#8e5207"/>
      <path id="Trazado_649" data-name="Trazado 649" d="M1259.7,515.947c.265-.489.528-.977.794-1.465,1-1.838,2-3.681,3.013-5.511.27-.485.84-.6,1.278-.877.026-.016.09.013.128.034a2.3,2.3,0,0,0,2.964-.642,10.251,10.251,0,0,0,1.872-2.619,6.48,6.48,0,0,1,2.492-2.739,6.329,6.329,0,0,1,6.762-.193,9.622,9.622,0,0,0,2.089.861,66.98,66.98,0,0,1,6.536,2.231,2.049,2.049,0,0,1,.192.086c.164.089.381.176.347.391s-.26.323-.471.365a1.393,1.393,0,0,1-.755-.082,7.454,7.454,0,0,0-2.909-.563,2.869,2.869,0,0,0-2.406,1.471c-.355.569-.59,1.19-.891,1.781a6.773,6.773,0,0,1-4.676,3.6,6.172,6.172,0,0,1-3.727-.225,4.791,4.791,0,0,1-2.365-1.85c-.15-.227-.258-.236-.491-.115-1.07.553-2.151,1.085-3.234,1.613a.85.85,0,0,0-.417.4c-.237.47-.507.924-.731,1.4a1.014,1.014,0,0,1-.549.539c-1.6.708-3.189,1.434-4.783,2.154Zm15.644-5.184a4.792,4.792,0,0,0,4.116-2.82,4.008,4.008,0,0,0-2.216-5.518,4.9,4.9,0,0,0-5.4,1.487,4.2,4.2,0,0,0-.9,3.911C1271.432,509.625,1273.073,510.779,1275.348,510.763Z" transform="translate(-1234.337 -490.346)" fill="#8e5207"/>
      <path id="Trazado_650" data-name="Trazado 650" d="M1235.372,523.766a2.484,2.484,0,0,1-.275.808c-.547,1.38-1.12,2.748-1.674,4.126a.651.651,0,0,1-.37.381q-3.04,1.363-6.076,2.735-4.877,2.193-9.754,4.382c-.714.321-1.426.65-2.141.97-.12.053-.254.193-.38.063a.464.464,0,0,1-.1-.461,2.323,2.323,0,0,1,.848-1.091,21.354,21.354,0,0,1,3.043-1.943q3.289-1.951,6.584-3.893,2.961-1.749,5.921-3.5,2.067-1.224,4.131-2.454C1235.2,523.85,1235.273,523.817,1235.372,523.766Z" transform="translate(-1214.583 -500.292)" fill="#8e5207"/>
      <path id="Trazado_652" data-name="Trazado 652" d="M1245.97,580.428c-.059.089-.105.17-.163.243-.326.413-.659.821-.982,1.237-.152.2-.29.265-.459.024-.149-.212-.274-.169-.435.012-.256.288-.549.543-.812.825-.14.151-.271.178-.418.036a.27.27,0,0,1,.012-.43c.3-.3.6-.595.893-.894.071-.072.172-.142.047-.257s-.168,0-.229.059c-.292.287-.586.572-.87.867-.156.162-.3.217-.475.035s-.046-.308.089-.439c.286-.278.564-.562.846-.844.074-.074.169-.139.057-.259s-.183,0-.249.062c-.292.288-.583.576-.866.872-.144.148-.289.211-.448.045s-.087-.3.065-.446c.289-.272.563-.562.842-.845.078-.079.207-.146.065-.279s-.182.01-.249.076c-.291.288-.58.577-.866.87-.132.134-.276.2-.427.057s-.139-.3.024-.449c.273-.256.54-.52.793-.795.079-.085.3-.158.149-.324s-.24.042-.327.121c-.225.2-.427.434-.654.637-.163.146-.307.483-.585.188s.064-.427.211-.589c.221-.242.466-.461.694-.7.064-.066.192-.133.062-.255s-.2,0-.262.066c-.284.279-.563.563-.839.849-.141.147-.288.207-.452.048s-.093-.3.055-.444c.279-.266.549-.543.816-.823.075-.078.257-.141.094-.3s-.2.032-.272.1q-.431.411-.844.843c-.136.142-.282.184-.427.05-.164-.151-.118-.3.037-.448.3-.283.583-.576.87-.869.065-.067.191-.127.059-.252s-.193-.017-.263.052c-.3.295-.6.589-.891.9-.128.136-.243.178-.385.041a.256.256,0,0,1-.006-.422q.44-.428.868-.869c.072-.074.218-.151.082-.285s-.213.021-.283.088c-.278.267-.544.546-.815.822-.135.138-.27.233-.446.052s-.1-.3.049-.444q.406-.388.792-.8c.073-.078.268-.142.125-.3-.166-.178-.242.039-.326.117-.273.256-.535.525-.8.793-.144.148-.294.2-.452.037s-.093-.3.065-.44c.3-.276.58-.577.868-.867.075-.076.169-.151.042-.257-.1-.083-.166-.014-.237.057-.3.3-.6.587-.89.895-.139.149-.259.191-.413.044a.252.252,0,0,1,.008-.419c.287-.275.564-.562.85-.838.135-.13.218-.245.025-.4-.134-.1-.113-.2.02-.308.455-.367.908-.738,1.351-1.119.155-.133.24-.092.372.04q3.161,3.17,6.331,6.331C1245.847,580.285,1245.906,580.356,1245.97,580.428Z" transform="translate(-1224.273 -522.182)" fill="#8e5207"/>
      <path id="Trazado_654" data-name="Trazado 654" d="M1296.737,527.723a4.3,4.3,0,0,1,2.763.962c.232.186.226.3.009.476-.189.154-.332.431-.538.482s-.386-.246-.595-.365a3.575,3.575,0,0,0-2.686-.313,7.576,7.576,0,0,0-3.325,1.876.318.318,0,0,0-.118.167,2.07,2.07,0,0,1-.745,1.232c-.423.437-.843.878-1.25,1.33-.139.155-.225.187-.382.022-.354-.373-.722-.734-1.093-1.09-.137-.131-.112-.221.006-.344.524-.55,1.036-1.112,1.565-1.659a1.232,1.232,0,0,1,.815-.369,1.13,1.13,0,0,0,.67-.329,8.229,8.229,0,0,1,4.032-2C1296.152,527.756,1296.446,527.748,1296.737,527.723Z" transform="translate(-1247.024 -502.025)" fill="#8e5207"/>
      <path id="Trazado_655" data-name="Trazado 655" d="M1288.914,537.7a1.415,1.415,0,0,1-.548,1.035c-.1.093-.144-.032-.19-.079-.778-.775-1.549-1.556-2.329-2.33-.123-.121-.119-.2.006-.31a1.955,1.955,0,0,1,.513-.36.589.589,0,0,1,.732.129c.529.544,1.071,1.077,1.607,1.614C1288.814,537.51,1288.922,537.619,1288.914,537.7Z" transform="translate(-1245.742 -505.467)" fill="#8e5207"/>
      <path id="Trazado_656" data-name="Trazado 656" d="M1253.447,571.266a.683.683,0,0,1-.518-1.165l2.13-2.137a6.161,6.161,0,0,1,.476-.462.668.668,0,0,1,.922.055.65.65,0,0,1,.018.919c-.865.887-1.746,1.758-2.623,2.633A.508.508,0,0,1,1253.447,571.266Z" transform="translate(-1231.279 -519.37)" fill="#8e5207"/>
    </g>
  </g>
</svg>
