<svg xmlns="http://www.w3.org/2000/svg" width="194.795" height="258.848" viewBox="0 0 194.795 258.848">
  <g id="Grupo_2050" data-name="Grupo 2050" transform="translate(-268.952 -339.99) rotate(31)" style="isolation: isolate">
    <path id="Trazado_1497" data-name="Trazado 1497" d="M528.505,342.879l-5.8-9.7a141.278,141.278,0,0,0,50.449-51.821,139.629,139.629,0,0,0,13.587-33.822A140.68,140.68,0,0,0,520.628,90.685l3.572-6.206" fill="none" stroke="#ffb714" stroke-miterlimit="10" stroke-width="1"/>
    <line id="Línea_151" data-name="Línea 151" x1="3.968" y1="5.96" transform="translate(528.406 329.561)" fill="none" stroke="#ffb714" stroke-miterlimit="10" stroke-width="1"/>
    <line id="Línea_152" data-name="Línea 152" x1="6.859" y1="8.982" transform="translate(535.827 324.266)" fill="none" stroke="#ffb714" stroke-miterlimit="10" stroke-width="1"/>
    <line id="Línea_153" data-name="Línea 153" x1="4.613" y1="5.476" transform="translate(541.105 320.045)" fill="none" stroke="#ffb714" stroke-miterlimit="10" stroke-width="1"/>
    <line id="Línea_154" data-name="Línea 154" x1="7.823" y1="8.156" transform="translate(547.884 313.947)" fill="none" stroke="#ffb714" stroke-miterlimit="10" stroke-width="1"/>
    <line id="Línea_155" data-name="Línea 155" x1="5.198" y1="4.925" transform="translate(552.644 309.149)" fill="none" stroke="#ffb714" stroke-miterlimit="10" stroke-width="1"/>
    <line id="Línea_156" data-name="Línea 156" x1="8.688" y1="7.228" transform="translate(558.699 302.332)" fill="none" stroke="#ffb714" stroke-miterlimit="10" stroke-width="1"/>
    <line id="Línea_157" data-name="Línea 157" x1="5.717" y1="4.311" transform="translate(562.897 297.036)" fill="none" stroke="#ffb714" stroke-miterlimit="10" stroke-width="1"/>
    <line id="Línea_158" data-name="Línea 158" x1="9.445" y1="6.206" transform="translate(568.146 289.583)" fill="none" stroke="#ffb714" stroke-miterlimit="10" stroke-width="1"/>
    <line id="Línea_159" data-name="Línea 159" x1="6.166" y1="3.64" transform="translate(571.721 283.848)" fill="none" stroke="#ffb714" stroke-miterlimit="10" stroke-width="1"/>
    <line id="Línea_160" data-name="Línea 160" x1="10.085" y1="5.1" transform="translate(576.098 275.853)" fill="none" stroke="#ffb714" stroke-miterlimit="10" stroke-width="1"/>
    <line id="Línea_161" data-name="Línea 161" x1="6.538" y1="2.919" transform="translate(578.997 269.751)" fill="none" stroke="#ffb714" stroke-miterlimit="10" stroke-width="1"/>
    <line id="Línea_162" data-name="Línea 162" x1="10.598" y1="3.924" transform="translate(582.438 261.313)" fill="none" stroke="#ffb714" stroke-miterlimit="10" stroke-width="1"/>
    <line id="Línea_163" data-name="Línea 163" x1="6.827" y1="2.158" transform="translate(584.632 254.924)" fill="none" stroke="#ffb714" stroke-miterlimit="10" stroke-width="1"/>
    <line id="Línea_164" data-name="Línea 164" x1="10.976" y1="2.694" transform="translate(587.092 246.149)" fill="none" stroke="#ffb714" stroke-miterlimit="10" stroke-width="1"/>
    <line id="Línea_165" data-name="Línea 165" x1="7.028" y1="1.368" transform="translate(588.542 239.551)" fill="none" stroke="#ffb714" stroke-miterlimit="10" stroke-width="1"/>
    <line id="Línea_166" data-name="Línea 166" x1="11.21" y1="1.434" transform="translate(589.993 230.553)" fill="none" stroke="#ffb714" stroke-miterlimit="10" stroke-width="1"/>
    <line id="Línea_167" data-name="Línea 167" x1="7.138" y1="0.567" transform="translate(590.683 223.83)" fill="none" stroke="#ffb714" stroke-miterlimit="10" stroke-width="1"/>
    <line id="Línea_168" data-name="Línea 168" x1="11.3" y1="0.172" transform="translate(591.112 214.721)" fill="none" stroke="#ffb714" stroke-miterlimit="10" stroke-width="1"/>
    <line id="Línea_169" data-name="Línea 169" x1="7.156" y2="0.229" transform="translate(591.071 207.729)" fill="none" stroke="#ffb714" stroke-miterlimit="10" stroke-width="1"/>
    <line id="Línea_170" data-name="Línea 170" x1="11.249" y2="1.087" transform="translate(590.48 197.772)" fill="none" stroke="#ffb714" stroke-miterlimit="10" stroke-width="1"/>
    <line id="Línea_171" data-name="Línea 171" x1="7.086" y2="1.03" transform="translate(589.665 191.121)" fill="none" stroke="#ffb714" stroke-miterlimit="10" stroke-width="1"/>
    <line id="Línea_172" data-name="Línea 172" x1="11.054" y2="2.35" transform="translate(588.065 180.828)" fill="none" stroke="#ffb714" stroke-miterlimit="10" stroke-width="1"/>
    <line id="Línea_173" data-name="Línea 173" x1="6.923" y2="1.826" transform="translate(586.493 174.782)" fill="none" stroke="#ffb714" stroke-miterlimit="10" stroke-width="1"/>
    <line id="Línea_174" data-name="Línea 174" x1="10.716" y2="3.591" transform="translate(583.882 164.288)" fill="none" stroke="#ffb714" stroke-miterlimit="10" stroke-width="1"/>
    <line id="Línea_175" data-name="Línea 175" x1="6.671" y2="2.601" transform="translate(581.597 158.92)" fill="none" stroke="#ffb714" stroke-miterlimit="10" stroke-width="1"/>
    <line id="Línea_176" data-name="Línea 176" x1="10.239" y2="4.784" transform="translate(578.012 148.358)" fill="none" stroke="#ffb714" stroke-miterlimit="10" stroke-width="1"/>
    <line id="Línea_177" data-name="Línea 177" x1="6.333" y2="3.34" transform="translate(574.989 143.759)" fill="none" stroke="#ffb714" stroke-miterlimit="10" stroke-width="1"/>
    <line id="Línea_178" data-name="Línea 178" x1="9.633" y2="5.91" transform="translate(570.477 133.27)" fill="none" stroke="#ffb714" stroke-miterlimit="10" stroke-width="1"/>
    <line id="Línea_179" data-name="Línea 179" x1="5.916" y2="4.033" transform="translate(566.82 129.464)" fill="none" stroke="#ffb714" stroke-miterlimit="10" stroke-width="1"/>
    <line id="Línea_180" data-name="Línea 180" x1="8.907" y2="6.956" transform="translate(561.443 119.178)" fill="none" stroke="#ffb714" stroke-miterlimit="10" stroke-width="1"/>
    <line id="Línea_181" data-name="Línea 181" x1="5.426" y2="4.672" transform="translate(557.143 116.247)" fill="none" stroke="#ffb714" stroke-miterlimit="10" stroke-width="1"/>
    <line id="Línea_182" data-name="Línea 182" x1="8.07" y2="7.911" transform="translate(550.974 106.295)" fill="none" stroke="#ffb714" stroke-miterlimit="10" stroke-width="1"/>
    <line id="Línea_183" data-name="Línea 183" x1="4.868" y2="5.251" transform="translate(546.14 104.232)" fill="none" stroke="#ffb714" stroke-miterlimit="10" stroke-width="1"/>
    <line id="Línea_184" data-name="Línea 184" x1="7.133" y2="8.766" transform="translate(539.257 94.736)" fill="none" stroke="#ffb714" stroke-miterlimit="10" stroke-width="1"/>
    <line id="Línea_185" data-name="Línea 185" x1="4.248" y2="5.764" transform="translate(533.904 93.613)" fill="none" stroke="#ffb714" stroke-miterlimit="10" stroke-width="1"/>
    <line id="Línea_186" data-name="Línea 186" x1="6.102" y2="9.512" transform="translate(526.394 84.697)" fill="none" stroke="#ffb714" stroke-miterlimit="10" stroke-width="1"/>
  </g>
</svg>
