<svg xmlns="http://www.w3.org/2000/svg" width="250.046" height="246.268" viewBox="0 0 250.046 246.268">
  <path id="Trazado_1498" data-name="Trazado 1498" d="M569.011,212.542c0-.126,0-.251-.005-.377l3.411-.011a3.436,3.436,0,0,0,3.433-3.525,124.774,124.774,0,0,0-37.073-84.984,3.437,3.437,0,0,0-4.922.111h0a3.45,3.45,0,0,1-4.808.215A118.042,118.042,0,0,0,433.32,95.7a3.452,3.452,0,0,1-3.921-2.8l0-.017a3.443,3.443,0,0,0-4.1-2.767c-1.922.41-3.832.879-5.748,1.318-3.03.864-6.078,1.667-9.044,2.738l-2.237.759c-.747.25-1.471.565-2.206.845-1.462.587-2.941,1.133-4.386,1.759l-4.305,1.946c-.724.311-1.418.685-2.121,1.041l-2.1,1.077c-.7.363-1.406.71-2.1,1.087L389,103.863l-2.048,1.178-1.021.593-.995.636-3.975,2.551-3.851,2.733A130.276,130.276,0,0,0,362.752,123.8a134.873,134.873,0,0,0-12.357,14.261,130.318,130.318,0,0,0-10.067,15.966l-2.153,4.205-1.952,4.3c-.678,1.423-1.21,2.908-1.8,4.368l-.865,2.2c-.3.73-.518,1.487-.781,2.23a119.847,119.847,0,0,0-4.844,18.249l-.415,2.325c-.131.776-.3,1.548-.378,2.331l-.6,4.686c-.115.779-.161,1.565-.223,2.35l-.18,2.354-.176,2.353c-.034.786-.046,1.573-.069,2.359a122.971,122.971,0,0,0,.775,18.843c.2,1.561.384,3.126.612,4.683l.829,4.652.209,1.162.262,1.152.53,2.3.533,2.3c.181.767.419,1.519.626,2.278a119.381,119.381,0,0,0,6.37,17.775l.974,2.152.488,1.076.535,1.053,2.155,4.2c1.56,2.734,3.08,5.5,4.83,8.116l1.276,1.987c.42.666.9,1.291,1.348,1.938.921,1.276,1.8,2.582,2.761,3.831l2.918,3.713c.474.628,1.011,1.206,1.519,1.806l1.546,1.784c.521.59,1.019,1.2,1.561,1.771l1.628,1.71c1.094,1.131,2.147,2.3,3.308,3.367,1.141,1.084,2.272,2.179,3.425,3.25l3.568,3.093a134.055,134.055,0,0,0,12.324,9.13,3.443,3.443,0,0,0,4.818-1.1l.01-.017a3.448,3.448,0,0,1,4.664-1.184,116.925,116.925,0,0,0,13.333,6.548,118.291,118.291,0,0,0,45.222,8.982q5.274,0,10.534-.477a3.444,3.444,0,0,1,3.739,3.024l0,.02a3.451,3.451,0,0,0,3.926,3.008,123.618,123.618,0,0,0,15.807-3.39c3.181-.842,6.282-1.946,9.387-3.027l4.589-1.809c.772-.287,1.51-.65,2.262-.982l2.248-1.015a128.256,128.256,0,0,0,17.18-9.648,131.417,131.417,0,0,0,15.424-12.25,121.171,121.171,0,0,0,13.325-14.5l1.522-1.939c.508-.645.963-1.331,1.446-2l1.428-2.009c.477-.669.959-1.334,1.391-2.034l2.66-4.152,2.465-4.27a131.075,131.075,0,0,0,8.206-17.919,128.18,128.18,0,0,0,4.506-15.548,3.44,3.44,0,0,0-2.714-4.119h0a3.447,3.447,0,0,1-2.742-3.953A118.726,118.726,0,0,0,569.011,212.542ZM450.854,328.423a116.033,116.033,0,0,1-44.35-8.808,114.648,114.648,0,0,1-12.882-6.311,3.436,3.436,0,0,1-1.213-4.774l.009-.014a3.449,3.449,0,0,0-1.063-4.678,118.191,118.191,0,0,1-10.528-7.819l-3.113-2.7-2.985-2.836c-1.017-.924-1.929-1.953-2.885-2.938l-1.422-1.489c-.474-.5-.9-1.032-1.359-1.546l-1.348-1.556c-.444-.523-.916-1.023-1.326-1.574l-2.544-3.237c-.836-1.088-1.6-2.23-2.4-3.341-.39-.564-.814-1.106-1.178-1.688l-1.109-1.733c-1.531-2.28-2.845-4.692-4.212-7.07l-1.875-3.663-.468-.916-.422-.938-.847-1.875a103.2,103.2,0,0,1-5.545-15.472c-.181-.661-.393-1.314-.548-1.982l-.461-2.005-.464-2-.23-1-.179-1.013-.724-4.051c-.2-1.357-.35-2.721-.53-4.081a106.793,106.793,0,0,1-.676-16.446c.02-.687.027-1.374.056-2.06l.158-2.053.156-2.053c.053-.684.09-1.37.193-2.049l.518-4.083c.069-.684.216-1.355.331-2.031l.362-2.025a103.827,103.827,0,0,1,4.217-15.886c.229-.647.418-1.307.677-1.942l.756-1.913c.515-1.271.969-2.567,1.566-3.8l1.7-3.748,1.877-3.662a114.27,114.27,0,0,1,8.772-13.914,118.9,118.9,0,0,1,10.776-12.436,114,114,0,0,1,12.522-10.673l3.355-2.386,3.466-2.22.866-.557.891-.514,1.784-1.025,1.783-1.028c.6-.329,1.219-.628,1.828-.944l1.831-.938c.612-.311,1.214-.64,1.846-.908l3.749-1.695c1.257-.546,2.547-1.015,3.818-1.529.641-.244,1.269-.523,1.92-.739l1.949-.657c2.55-.928,5.177-1.61,7.783-2.362.058-.017.117-.032.176-.045,1.562-.353,3.118-.736,4.682-1.075a3.448,3.448,0,0,0,2.677-3.972l0-.015a3.442,3.442,0,0,1,2.873-4.012,115.655,115.655,0,0,1,93.454,27.58,3.452,3.452,0,0,1,.259,4.955l-.026.027a3.449,3.449,0,0,0,.1,4.8,109.573,109.573,0,0,1,23.088,33.711,108.331,108.331,0,0,1,9.006,39.842,3.448,3.448,0,0,0,3.451,3.348h.017l3.459,3.522a116.612,116.612,0,0,1-1.458,15.416,3.438,3.438,0,0,1-4.049,2.81l-.032-.006a3.445,3.445,0,0,0-4.01,2.635,111.892,111.892,0,0,1-3.859,13.269,115.089,115.089,0,0,1-7.148,15.6l-2.146,3.722-2.319,3.617c-.374.612-.8,1.19-1.213,1.773L539.21,276.3c-.421.579-.813,1.18-1.258,1.741l-1.33,1.689A105.157,105.157,0,0,1,525,292.371,108.6,108.6,0,0,1,466.989,320.3a3.447,3.447,0,0,0-2.932,3.806l0,.033a3.44,3.44,0,0,1-3.1,3.832Q455.921,328.417,450.854,328.423Z" transform="translate(-325.805 -90.041)" fill="#ffb714" opacity="0.5"/>
</svg>
