<svg xmlns="http://www.w3.org/2000/svg" xmlns:xlink="http://www.w3.org/1999/xlink" width="255.44" height="567.674" viewBox="0 0 255.44 567.674">
  <defs>
    <filter id="Trazado_1573" x="0" y="0" width="255.44" height="567.674" filterUnits="userSpaceOnUse">
      <feOffset dx="3" dy="6" input="SourceAlpha"/>
      <feGaussianBlur stdDeviation="3" result="blur"/>
      <feFlood flood-opacity="0.451"/>
      <feComposite operator="in" in2="blur"/>
      <feComposite in="SourceGraphic"/>
    </filter>
  </defs>
  <g id="bicolor" transform="translate(-24.996 -155.279)">
    <g transform="matrix(1, 0, 0, 1, 25, 155.28)" filter="url(#Trazado_1573)">
      <path id="Trazado_1573-2" data-name="Trazado 1573" d="M20.807.072,215.049-.078c8.48,0,21.888,16.157,21.888,24.35l.5,510.49A15.1,15.1,0,0,1,222.085,549.6H15.355A15.1,15.1,0,0,1,0,534.762L.335,19.851C.335,11.658,12.327.072,20.807.072Z" transform="translate(6 3.08)" fill="#fff"/>
    </g>
    <path id="Trazado_1574" data-name="Trazado 1574" d="M24,0H213.069c9.066,0,16.958,3.761,21.182,9.506a14.293,14.293,0,0,1,2.818,8.45V132H0V17.956C0,8.039,10.745,0,24,0Z" transform="translate(30.999 158)" fill="#ffb714"/>
  </g>
</svg>
