<?xml version="1.0" encoding="utf-8"?>
<!-- Generator: Adobe Illustrator 24.0.0, SVG Export Plug-In . SVG Version: 6.00 Build 0)  -->
<svg version="1.1" id="Capa_1" xmlns="http://www.w3.org/2000/svg" xmlns:xlink="http://www.w3.org/1999/xlink" x="0px" y="0px"
	 viewBox="0 0 309 119" style="enable-background:new 0 0 309 119;" xml:space="preserve">
<style type="text/css">
	.st0{clip-path:url(#SVGID_2_);fill:#FFB714;}
	.st1{clip-path:url(#SVGID_2_);}
	.st2{fill:#8E5207;}
</style>
<g>
	<defs>
		<rect id="SVGID_1_" y="0" width="309" height="119"/>
	</defs>
	<use xlink:href="#SVGID_1_"  style="overflow:visible;fill:#FFB714;"/>
	<clipPath id="SVGID_2_">
		<use xlink:href="#SVGID_1_"  style="overflow:visible;"/>
	</clipPath>
	<rect y="0" class="st0" width="309" height="119"/>
	<g class="st1">
		<path class="st2" d="M295,92.8c3.4-1.6,6.9-2.6,10.6-0.6c1.9,1,3.8,1.8,5.8,2.5c2,0.8,4.1,1.5,6,2.4c2.8,1.2,5.2,3.1,7,5.6
			c1.6,2.1,2,4.9,1.2,7.4c-1,3.1-3,5.8-5.6,7.8c-0.9,0.8-2.2,0.9-3.2,0.4c-2.3-1.1-5-0.9-7.2,0.5c-2.6,1.2-4.8,3.1-6.5,5.4
			c-2.7,4.1-13,4.1-16.1-0.5c-1.4-2.1-2.1-4.6-1.8-7.1c0.3-4.9,1-9.9,2.1-14.7C288.3,97.9,291.1,94.5,295,92.8z"/>
		<path class="st2" d="M270.6,89.5c-1.2-2.2-1.8-4.7-1.6-7.2c0.4-3.9,3.2-5.9,6.9-4.9c4,1,6.8,3.8,8.9,7.2c1.4,2,2.3,4.4,2.4,6.9
			c0.3,3.3-2.1,6.2-5.4,6.5c-0.7,0.1-1.3,0-2-0.1c-4-0.7-6.5-3.4-8.6-6.6C271.1,90.7,270.8,90.1,270.6,89.5z"/>
		<path class="st2" d="M289.1,82.5c-1.7-3.8-2.5-7.7-1.1-11.8c1.4-4.1,5-5.4,8.7-3.2c1.6,1,3,2.3,4,4c2,2.9,3,6.4,2.7,9.9
			c-0.2,1.9-1,3.8-2.4,5.2c-2.2,2.5-6,2.8-8.6,0.6c-0.1-0.1-0.2-0.2-0.3-0.3C290.9,85.7,289.8,84.2,289.1,82.5z"/>
		<path class="st2" d="M321.8,79.6c1.3,2.7,1.6,5.8,0.9,8.7c-0.5,2.4-2.3,4.4-4.7,5c-2.7,0.8-5.5-0.4-6.9-2.8
			c-2.8-4.2-3.6-8.7-1.7-13.5c1.6-4.1,5.6-5,9.1-2.2C319.9,76.2,321.1,77.8,321.8,79.6z"/>
		<path class="st2" d="M282.2,107.1c0.9,1.7,1,3.8,0.4,5.6c-0.7,2.6-3.2,4.2-5.8,4c-4.8-0.3-10.6-4.8-12.1-9.3
			c-1.1-3.3,0.4-6,3.7-6.8C273,99.5,280.1,102.8,282.2,107.1z"/>
	</g>
	<g class="st1">
		<path class="st2" d="M13.4,21.2c1.9,1.9,3.5,3.9,3,6.7c-0.2,1.5-0.3,3-0.4,4.4c-0.1,1.5-0.1,3-0.2,4.6c-0.2,2.1-0.9,4.2-2.2,6
			c-1.1,1.6-2.9,2.6-4.8,2.6C6.4,45.7,4,45.1,2,43.8c-0.7-0.4-1.2-1.2-1-2c0.2-1.8-0.6-3.5-2.1-4.6c-1.5-1.4-3.3-2.3-5.2-2.9
			c-3.5-0.7-5.9-7.5-3.5-10.6c1.1-1.5,2.7-2.5,4.5-3c3.5-1,7-1.8,10.6-2.3C8.3,18.1,11.3,19.1,13.4,21.2z"/>
		<path class="st2" d="M9.8,4.4c1.2-1.4,2.8-2.3,4.6-2.9c2.8-0.7,4.8,0.6,5,3.3c0.3,2.9-1,5.4-2.8,7.6c-1,1.4-2.5,2.6-4.1,3.3
			c-2.2,1-4.8,0.2-5.8-1.9c-0.2-0.4-0.3-0.9-0.4-1.3C5.9,9.8,7.1,7.5,8.8,5.4C9.1,5,9.5,4.7,9.8,4.4z"/>
		<path class="st2" d="M19.1,14.8c2.2-2.1,4.7-3.6,7.9-3.7s4.9,1.9,4.3,4.9c-0.3,1.3-0.9,2.5-1.8,3.6c-1.5,2.1-3.7,3.6-6.1,4.3
			c-1.4,0.4-2.8,0.3-4.1-0.2c-2.3-0.8-3.4-3.2-2.5-5.4c0-0.1,0.1-0.2,0.1-0.3C17.3,16.7,18.1,15.7,19.1,14.8z"/>
		<path class="st2" d="M28.9,35.4c-1.5,1.5-3.6,2.5-5.8,2.8c-1.8,0.3-3.5-0.4-4.6-1.8c-1.2-1.5-1.1-3.7,0.3-5.2
			c2.2-2.9,5.1-4.5,8.9-4.5c3.2,0,4.8,2.4,3.7,5.4C30.8,33.3,29.9,34.5,28.9,35.4z"/>
		<path class="st2" d="M0.5,16.4c-1,1-2.4,1.6-3.8,1.7c-1.9,0.2-3.7-1-4.2-2.8C-8.4,12.1-6.7,7.2-4,5.1c2-1.5,4.2-1.3,5.6,0.7
			C3.6,8.5,3,14,0.5,16.4z"/>
	</g>
</g>
</svg>
