<?xml version="1.0" encoding="utf-8"?>
<!-- Generator: Adobe Illustrator 24.0.0, SVG Export Plug-In . SVG Version: 6.00 Build 0)  -->
<svg version="1.1" id="Capa_1" xmlns="http://www.w3.org/2000/svg" xmlns:xlink="http://www.w3.org/1999/xlink" x="0px" y="0px"
	 viewBox="0 0 1432.3 115.9" style="enable-background:new 0 0 1432.3 115.9;" xml:space="preserve">
<style type="text/css">
	.st0{fill:#FFB714;}
	.st1{fill:#8E5207;}
</style>
<title>botonAceptar</title>
<rect y="0" class="st0" width="1432.3" height="115.9"/>
<g>
	<path class="st1" d="M1297.7,51.2c5.3-2.3,10.5-4,16.1-1c2.8,1.5,5.8,2.8,8.8,3.8c3.2,1.2,6.1,2.3,9.1,3.7c4.3,1.8,8,4.8,10.6,8.5
		c2.5,3.2,3.2,7.5,1.8,11.3c-1.7,4.8-4.7,9-8.6,12c-1.3,1.2-3.3,1.5-4.8,0.7c-3.5-1.7-7.6-1.3-11,0.7c-3.8,1.8-7.3,4.7-9.8,8.1
		c-4.2,6.3-19.8,6.3-24.4-0.7c-2.2-3.2-3.2-7-2.8-11c0.5-7.5,1.5-15,3.2-22.4C1287.5,58.9,1291.9,53.7,1297.7,51.2z"/>
	<path class="st1" d="M1260.5,46.2c-1.8-3.3-2.7-7.1-2.5-11c0.7-6,4.8-9,10.6-7.5c6.1,1.7,10.3,5.8,13.6,11
		c2.2,3.2,3.5,6.6,3.7,10.5c0.5,5-3.2,9.5-8.1,10c-1,0.2-2,0-3-0.2c-6.1-1.2-10-5.2-13.1-10.1C1261.3,47.9,1260.8,47.1,1260.5,46.2z
		"/>
	<path class="st1" d="M1288.9,35.6c-2.5-5.8-3.8-11.8-1.7-17.9c2.2-6.1,7.6-8.1,13.3-4.8c2.5,1.5,4.5,3.5,6.1,6
		c3.2,4.3,4.7,9.6,4.2,15.1c-0.3,3-1.5,5.8-3.7,8c-3.3,3.8-9.1,4.3-13.1,1c-0.2-0.2-0.3-0.3-0.5-0.3
		C1291.5,40.4,1289.9,38.1,1288.9,35.6z"/>
	<path class="st1" d="M1338.7,31.1c2,4.2,2.5,8.8,1.3,13.3c-0.8,3.7-3.5,6.6-7.1,7.6c-4,1.2-8.3-0.5-10.5-4.2
		c-4.2-6.3-5.5-13.3-2.5-20.6c2.5-6.3,8.6-7.6,13.8-3.3C1335.9,26,1337.6,28.3,1338.7,31.1z"/>
	<path class="st1" d="M1278.2,73c1.3,2.7,1.7,5.8,0.5,8.6c-1.2,3.8-4.8,6.5-8.8,6.1c-7.3-0.5-16.1-7.3-18.4-14.1
		c-1.7-5,0.5-9.1,5.7-10.5C1264.3,61.4,1275.1,66.3,1278.2,73z"/>
</g>
<g>
	<path class="st1" d="M148.2,52.8c4.3,3.3,7.8,7,7.8,13.1c0,3,0.3,6,0.5,9.3c0.3,3,0.8,6.3,0.8,9.3c0.3,4.3-0.5,8.5-2.5,12.6
		c-1.8,3.5-5,5.8-8.8,6.3c-4.8,0.8-9.5,0-13.8-2c-1.5-0.5-2.5-2.3-2.5-3.8c-0.3-3.5-2.3-6.8-5.3-8.8c-3.3-2.5-7-4-11-4.8
		c-7-0.8-13.8-13.8-10-20.8c1.8-3.3,4.5-5.8,8-7c6.5-2.8,13.3-5.3,20.1-7C137.1,47.5,143.6,48.8,148.2,52.8z"/>
	<path class="st1" d="M136.1,19.4c2-3,4.8-5.5,8.3-6.8c3.8-2,8.3-0.5,10,3.3c0.3,0.8,0.5,1.5,0.8,2.3c1,5.5-0.3,11.3-3.3,16.1
		c-1.8,3-4.3,5.8-7.3,7.5c-4,2.5-9.3,1.5-11.8-2.5c-0.5-0.8-1-1.8-1.3-2.8c-1.8-5.5,0-10.5,2.8-15.3
		C135.1,20.7,135.6,19.9,136.1,19.4z"/>
	<path class="st1" d="M157.4,38.5c3.5-4.8,8.5-8,14.3-9.3c4.3-1,8.5,1.5,9.8,5.8c0.3,1,0.3,2.3,0.3,3.3c-0.3,2.8-1,5.3-2.5,7.8
		c-2.3,4.5-6.3,8-10.8,10c-2.5,1-5.5,1.3-8.3,0.5c-4.8-1.3-7.5-5.8-6.5-10.5c0-0.3,0-0.5,0.3-0.5C154.4,42.8,155.7,40.5,157.4,38.5z
		"/>
	<path class="st1" d="M182.8,78.4c-2.5,3.5-6.3,5.8-10.5,6.8c-3.5,1-7,0-9.5-2.8c-2.8-2.8-3.3-7.3-1-10.5c3-6.3,9.3-10.5,16.1-11
		c6.3-0.8,10.3,3.8,8.8,10C185.8,73.7,184.6,76.2,182.8,78.4z"/>
	<path class="st1" d="M121.3,45.8c-1.8,2.3-4.3,3.8-7,4.3c-3.8,0.8-7.5-1.3-8.8-4.8c-2.5-7.3-1.3-15.6,3.8-21.6c2.5-3,6.8-3.5,10-1
		c0.5,0.3,1,0.8,1.3,1.3C125.1,29,125.6,40.3,121.3,45.8z"/>
</g>
</svg>
