<?xml version="1.0" encoding="utf-8"?>
<!-- Generator: Adobe Illustrator 24.0.0, SVG Export Plug-In . SVG Version: 6.00 Build 0)  -->
<svg version="1.1" id="Capa_1" xmlns="http://www.w3.org/2000/svg" xmlns:xlink="http://www.w3.org/1999/xlink" x="0px" y="0px"
	 viewBox="0 0 589 100" style="enable-background:new 0 0 589 100;" xml:space="preserve">
<style type="text/css">
	.st0{fill:#FFB714;}
	.st1{fill:#8E5207;}
</style>
<title>botonAceptar</title>
<rect class="st0" width="589" height="100"/>
<path class="st1" d="M531.1,43.3c3.2-1.4,6.3-2.4,9.7-0.6c1.7,0.9,3.5,1.7,5.3,2.3c1.9,0.7,3.7,1.4,5.5,2.2c2.6,1.1,4.8,2.9,6.4,5.1
	c1.5,1.9,1.9,4.5,1.1,6.8c-1,2.9-2.8,5.4-5.2,7.2c-0.8,0.7-2,0.9-2.9,0.4c-2.1-1-4.6-0.8-6.6,0.4c-2.3,1.1-4.4,2.8-5.9,4.9
	c-2.5,3.8-11.9,3.8-14.7-0.4c-1.3-1.9-1.9-4.2-1.7-6.6c0.3-4.5,0.9-9,1.9-13.5C525,47.9,527.6,44.8,531.1,43.3z"/>
<path class="st1" d="M508.7,40.3c-1.1-2-1.6-4.3-1.5-6.6c0.4-3.6,2.9-5.4,6.4-4.5c3.7,1,6.2,3.5,8.2,6.6c1.3,1.9,2.1,4,2.2,6.3
	c0.3,3-1.9,5.7-4.9,6c-0.6,0.1-1.2,0-1.8-0.1c-3.7-0.7-6-3.1-7.9-6.1C509.2,41.3,508.9,40.8,508.7,40.3z"/>
<path class="st1" d="M525.8,33.9c-1.5-3.5-2.3-7.1-1-10.8s4.6-4.9,8-2.9c1.5,0.9,2.7,2.1,3.7,3.6c1.9,2.6,2.8,5.8,2.5,9.1
	c-0.2,1.8-0.9,3.5-2.2,4.8c-2,2.3-5.5,2.6-7.9,0.6c-0.1-0.1-0.2-0.2-0.3-0.2C527.4,36.8,526.4,35.4,525.8,33.9z"/>
<path class="st1" d="M555.8,31.2c1.2,2.5,1.5,5.3,0.8,8c-0.5,2.2-2.1,4-4.3,4.6c-2.4,0.7-5-0.3-6.3-2.5c-2.5-3.8-3.3-8-1.5-12.4
	c1.5-3.8,5.2-4.6,8.3-2C554.1,28.1,555.1,29.5,555.8,31.2z"/>
<path class="st1" d="M519.4,56.4c0.8,1.6,1,3.5,0.3,5.2c-0.7,2.3-2.9,3.9-5.3,3.7c-4.4-0.3-9.7-4.4-11.1-8.5c-1-3,0.3-5.5,3.4-6.3
	C511,49.4,517.5,52.4,519.4,56.4z"/>
<g>
	<path class="st1" d="M55.5,29.1c1.7,1.3,3.2,2.8,3.1,5.2c0,1.2,0.1,2.4,0.2,3.7c0.1,1.2,0.3,2.5,0.3,3.7c0.1,1.7-0.2,3.4-1,5
		c-0.7,1.4-2,2.3-3.5,2.5c-1.9,0.3-3.8,0-5.5-0.8c-0.6-0.2-1-0.9-1-1.5c-0.1-1.4-0.9-2.7-2.1-3.5c-1.3-1-2.8-1.6-4.4-1.9
		c-2.8-0.3-5.5-5.5-4-8.3c0.7-1.3,1.8-2.3,3.2-2.8c2.6-1.1,5.3-2.1,8.1-2.8C51.2,27,53.7,27.5,55.5,29.1z"/>
	<path class="st1" d="M50.7,15.8c0.8-1.2,1.9-2.2,3.3-2.7c1.5-0.8,3.3-0.2,4,1.3c0.1,0.3,0.2,0.6,0.3,0.9c0.4,2.2-0.1,4.5-1.3,6.4
		c-0.7,1.2-1.7,2.3-2.9,3c-1.6,1-3.7,0.6-4.7-1c-0.2-0.3-0.4-0.7-0.5-1.1c-0.7-2.2,0-4.2,1.1-6.1C50.3,16.3,50.5,16,50.7,15.8z"/>
	<path class="st1" d="M59.2,23.4c1.4-1.9,3.4-3.2,5.7-3.7c1.7-0.4,3.4,0.6,3.9,2.3c0.1,0.4,0.1,0.9,0.1,1.3c-0.1,1.1-0.4,2.1-1,3.1
		c-0.9,1.8-2.5,3.2-4.3,4c-1,0.4-2.2,0.5-3.3,0.2c-1.9-0.5-3-2.3-2.6-4.2c0-0.1,0-0.2,0.1-0.2C58,25.1,58.5,24.2,59.2,23.4z"/>
	<path class="st1" d="M69.3,39.3c-1,1.4-2.5,2.3-4.2,2.7c-1.4,0.4-2.8,0-3.8-1.1c-1.1-1.1-1.3-2.9-0.4-4.2c1.2-2.5,3.7-4.2,6.4-4.4
		c2.5-0.3,4.1,1.5,3.5,4C70.5,37.4,70,38.4,69.3,39.3z"/>
	<path class="st1" d="M44.8,26.3c-0.7,0.9-1.7,1.5-2.8,1.7c-1.5,0.3-3-0.5-3.5-1.9c-1-2.9-0.4-6.2,1.5-8.6c1-1.2,2.7-1.4,4-0.4
		c0.2,0.1,0.4,0.3,0.5,0.5C46.3,19.6,46.5,24.1,44.8,26.3z"/>
	<path class="st1" d="M40.5,71.1c1.7,1.3,3.1,2.8,3.1,5.2c0,1.2,0.1,2.4,0.2,3.7c0.1,1.2,0.3,2.5,0.3,3.7c0.1,1.7-0.2,3.4-1,5
		c-0.7,1.4-2,2.3-3.5,2.5c-1.9,0.3-3.8,0-5.5-0.8c-0.6-0.2-1-0.9-1-1.5c-0.1-1.4-0.9-2.7-2.1-3.5c-1.3-1-2.8-1.6-4.4-1.9
		c-2.8-0.3-5.5-5.5-4-8.3c0.7-1.3,1.8-2.3,3.2-2.8c2.6-1.1,5.3-2.1,8-2.8C36.1,69,38.7,69.5,40.5,71.1z"/>
	<path class="st1" d="M35.7,57.8c0.8-1.2,1.9-2.2,3.3-2.7c1.5-0.8,3.3-0.2,4,1.3c0.1,0.3,0.2,0.6,0.3,0.9c0.4,2.2-0.1,4.5-1.3,6.4
		c-0.7,1.2-1.7,2.3-2.9,3c-1.6,1-3.7,0.6-4.7-1c-0.2-0.3-0.4-0.7-0.5-1.1c-0.7-2.2,0-4.2,1.1-6.1C35.3,58.3,35.5,58,35.7,57.8z"/>
	<path class="st1" d="M44.2,65.4c1.4-1.9,3.4-3.2,5.7-3.7c1.7-0.4,3.4,0.6,3.9,2.3c0.1,0.4,0.1,0.9,0.1,1.3c-0.1,1.1-0.4,2.1-1,3.1
		c-0.9,1.8-2.5,3.2-4.3,4c-1,0.4-2.2,0.5-3.3,0.2c-1.9-0.5-3-2.3-2.6-4.2c0-0.1,0-0.2,0.1-0.2C43,67.1,43.5,66.2,44.2,65.4z"/>
	<path class="st1" d="M54.3,81.3c-1,1.4-2.5,2.3-4.2,2.7c-1.4,0.4-2.8,0-3.8-1.1c-1.1-1.1-1.3-2.9-0.4-4.2c1.2-2.5,3.7-4.2,6.4-4.4
		c2.5-0.3,4.1,1.5,3.5,4C55.5,79.4,55,80.4,54.3,81.3z"/>
	<path class="st1" d="M29.8,68.3c-0.7,0.9-1.7,1.5-2.8,1.7c-1.5,0.3-3-0.5-3.5-1.9c-1-2.9-0.5-6.2,1.5-8.6c1-1.2,2.7-1.4,4-0.4
		c0.2,0.1,0.4,0.3,0.5,0.5C31.3,61.6,31.5,66.1,29.8,68.3z"/>
</g>
</svg>
