<?xml version="1.0" encoding="utf-8"?>
<!-- Generator: Adobe Illustrator 24.0.0, SVG Export Plug-In . SVG Version: 6.00 Build 0)  -->
<svg version="1.1" id="Capa_1" xmlns="http://www.w3.org/2000/svg" xmlns:xlink="http://www.w3.org/1999/xlink" x="0px" y="0px"
	 viewBox="0 0 589 100" style="enable-background:new 0 0 589 100;" xml:space="preserve">
<style type="text/css">
	.st0{fill:#8E5207;}
	.st1{fill:#FFB714;}
</style>
<rect y="0" class="st0" width="589" height="100"/>
<g>
	<path class="st1" d="M555.3,59.8c-2.5,0.7-5,0.3-7.4-0.5c-2.7-0.9-5.3-2-7.9-3c-2-0.8-4-0.9-6.1-0.3c-14.7,4.1-29.5,8.2-44.3,12.1
		c-2.6,0.7-4.3,2-5.8,4.1c-2,2.9-3.8,6-6.6,8.3c-5.3,4.3-14.4,2-17.1-4.3c-1.3-3.2-0.3-6.3,1.3-9.1c0.7-1.2,0.8-1.6-0.7-2.3
		c-4.7-2.1-7.5-6-5.3-11.9c1.1-2.9,2-5.8,4.7-7.6c3.5-2.2,7.1-1.8,10.7-0.3c3,1.3,5.9,2.8,8.7,4.3c1.2,0.6,2.4,0.9,3.7,0.5
		c15.4-4.2,30.8-8.4,46.2-12.6c2.3-0.6,3.7-2.2,5-4c1.7-2.4,3.2-5,5.2-7.1c3.3-3.4,6.4-4,10.8-2.1c2,0.9,3.7,2.1,5.3,3.6
		c3.5,3.5,3.8,7.4,0.7,11.3c-0.8,1-0.7,1.2,0.4,1.8c3.4,1.9,6.1,4.3,6.1,8.7C562.9,54,559.3,58.8,555.3,59.8z M553.9,48.6
		c-0.2-1-0.9-1.4-1.8-1.5c-1.3-0.1-2.3-0.6-3-1.8c-0.7-1.1-2-1.6-3.2-1.4c-1.2,0.1-1.7,1.3-2,2.4c-0.3,0.9-0.6,1.8-1.5,2.4
		c-1.7,0.9-1.3,2.1-0.3,3.3c1.2,1.6,2.6,2.1,3.8,0.9c1.9-1.7,3.9-1.8,6.1-1c1.3,0.5,1.8,0,1.9-1.3C553.9,49.9,553.9,49.3,553.9,48.6
		z M544,42.3c1.5-0.1,1.8-1.2,1.4-2.6c-0.5-1.9-2.3-3.7-3.3-3.4c-1,0.3-2,3.2-1.6,4.6C540.8,42.4,542,42.9,544,42.3z M541.7,45.4
		c-0.4-1.3-2.4-2.6-3.6-2.3c-1.1,0.3-1.6,1.8-1,3.3c0.5,1.1,0.8,2.8,2.7,2.3C541.2,48.4,542.1,46.6,541.7,45.4z M546.8,40.3
		c0.2,0.4-0.3,1.8,1.2,2c1.1,0.1,2-0.6,2.3-1.5c0.6-1.5-0.1-2.9-1-4c-0.6-0.8-1.5-1.1-2.4-0.6c-0.9,0.5-0.7,1.3-0.6,2.1
		C546.4,38.8,546.6,39.3,546.8,40.3z M555.5,41.9c-0.4-1.1-1-1.8-2.2-1.6c-0.9,0.2-1.8,2.4-1.4,3.4c0.2,0.6,2.6,2.1,3,1.8
		C556.1,44.4,555.4,43,555.5,41.9z"/>
</g>
<g>
	<path class="st1" d="M42,57.7c1.4-1.4,2.5-3,3.7-4.5c11.2-13.9,22.4-27.7,33.6-41.6c1.7-2.2,3.6-2.2,5.4,0c0.1,0.1,0.2,0.2,0.3,0.4
		c4.8,5.8,9.6,11.5,14.5,17.3c7.8,9.3,15.6,18.7,23.5,28c0.4,0.5,0.5,0.8-0.1,1.2c-0.8,0.5-1.5,1.2-2.2,1.8c-0.4,0.4-0.7,0.4-1-0.1
		c-3-3.7-6.1-7.3-9.1-10.9C101.2,38.1,91.9,27,82.6,15.9c-0.4-0.5-0.6-0.6-1.1,0C69.7,30.5,57.9,45.2,46,59.9
		c-0.5,0.6-0.7,0.7-1.3,0.2c-0.9-0.8-1.8-1.5-2.7-2.2C42,57.8,42,57.8,42,57.7z"/>
	<path class="st1" d="M81.3,87c-7.3,0-14.5,0-21.8,0c-0.7,0-1-0.2-1.1-0.9c-1.8-10.2-3.6-20.5-5.4-30.7c-0.1-0.4,0-0.7,0.3-1.1
		c9.3-11.5,18.6-23.1,27.9-34.6c0.7-0.8,1.1-0.8,1.7,0c9.7,11.5,19.4,23.1,29,34.6c0.3,0.4,0.3,0.7,0.2,1.1
		c-2.7,10.3-5.3,20.5-7.9,30.8c-0.2,0.6-0.4,0.8-1,0.8C96,87,88.6,87,81.3,87z M89.2,79.4c2.9,0.1,5.1-1.3,5.6-3.8
		c0.4-1.9,0.1-3.8-1-5.5c-0.2-0.3-0.5-0.6-0.7-0.8c-1.3-1.1-1.3-1.1-1.5-2.7c-0.4-2.8-1.9-4.8-4.2-6.3c-1.5-1-3.2-1.6-5-1.3
		c-3.7,0.6-7.8,5-7.2,9c0.1,0.4,0,0.6-0.5,0.6c-0.9,0.1-1.5,0.7-2,1.3c-0.7,1-1,2.2-1.2,3.4c-0.5,3.5,2,6.2,5.5,5.9
		c1.9-0.1,3.7-0.9,5.5-1.5c0.5-0.2,0.9-0.2,1.4,0.1C85.6,78.8,87.4,79.4,89.2,79.4z M81.4,52.7c-0.2-3.6-1.7-6.4-4.8-8.2
		c-2.9-1.7-5.9-0.3-6.5,3c-0.8,3.9,1.9,8.6,5.6,9.9c1.9,0.7,3.8,0.1,4.9-1.6C81.1,54.9,81.4,53.8,81.4,52.7z M84.2,52.6
		c0,0.3,0,0.6,0,0.9c0.2,3.3,3,5,6,3.8c3.7-1.5,6.1-6.4,5.1-10.3c-0.7-2.6-3-3.8-5.5-2.9C86.6,45.3,84.1,49,84.2,52.6z M73.2,62.3
		c0.1-3.3-1.9-6.7-4.7-8.3c-3-1.7-6-0.3-6.6,3.1c-0.7,3.9,2,8.5,5.6,9.9c1.9,0.7,3.9,0.1,4.9-1.6C73,64.4,73.2,63.4,73.2,62.3z
		 M92.3,62.1c0,0.3,0,0.5,0,0.8c0.2,3.1,2.9,5,5.6,4c3.9-1.4,6.6-6.4,5.5-10.4c-0.7-2.7-3.1-3.9-5.7-2.9
		C94.7,54.9,92.3,58.6,92.3,62.1z"/>
</g>
</svg>
