<?xml version="1.0" encoding="utf-8"?>
<!-- Generator: Adobe Illustrator 24.0.0, SVG Export Plug-In . SVG Version: 6.00 Build 0)  -->
<svg version="1.1" id="Capa_1" xmlns="http://www.w3.org/2000/svg" xmlns:xlink="http://www.w3.org/1999/xlink" x="0px" y="0px"
	 viewBox="0 0 589 100" style="enable-background:new 0 0 589 100;" xml:space="preserve">
<style type="text/css">
	.st0{fill:#FFB714;}
	.st1{fill:#8E5207;}
</style>
<title>botonAceptar</title>
<rect y="0" class="st0" width="589" height="100"/>
<g>
	<path class="st1" d="M532.3,29.1c-1.7,1.3-3.2,2.8-3.1,5.2c0,1.2-0.1,2.4-0.2,3.7c-0.1,1.2-0.3,2.5-0.3,3.7c-0.1,1.7,0.2,3.4,1,5
		c0.7,1.4,2,2.3,3.5,2.5c1.9,0.3,3.8,0,5.5-0.8c0.6-0.2,1-0.9,1-1.5c0.1-1.4,0.9-2.7,2.1-3.5c1.3-1,2.8-1.6,4.4-1.9
		c2.8-0.3,5.5-5.5,4-8.3c-0.7-1.3-1.8-2.3-3.2-2.8c-2.6-1.1-5.3-2.1-8.1-2.8C536.6,27,534.1,27.5,532.3,29.1z"/>
	<path class="st1" d="M537.1,15.8c-0.8-1.2-1.9-2.2-3.3-2.7c-1.5-0.8-3.3-0.2-4,1.3c-0.1,0.3-0.2,0.6-0.3,0.9
		c-0.4,2.2,0.1,4.5,1.3,6.4c0.7,1.2,1.7,2.3,2.9,3c1.6,1,3.7,0.6,4.7-1c0.2-0.3,0.4-0.7,0.5-1.1c0.7-2.2,0-4.2-1.1-6.1
		C537.5,16.3,537.3,16,537.1,15.8z"/>
	<path class="st1" d="M528.6,23.4c-1.4-1.9-3.4-3.2-5.7-3.7c-1.7-0.4-3.4,0.6-3.9,2.3c-0.1,0.4-0.1,0.9-0.1,1.3
		c0.1,1.1,0.4,2.1,1,3.1c0.9,1.8,2.5,3.2,4.3,4c1,0.4,2.2,0.5,3.3,0.2c1.9-0.5,3-2.3,2.6-4.2c0-0.1,0-0.2-0.1-0.2
		C529.8,25.1,529.3,24.2,528.6,23.4z"/>
	<path class="st1" d="M518.5,39.3c1,1.4,2.5,2.3,4.2,2.7c1.4,0.4,2.8,0,3.8-1.1c1.1-1.1,1.3-2.9,0.4-4.2c-1.2-2.5-3.7-4.2-6.4-4.4
		c-2.5-0.3-4.1,1.5-3.5,4C517.4,37.4,517.8,38.4,518.5,39.3z"/>
	<path class="st1" d="M543,26.3c0.7,0.9,1.7,1.5,2.8,1.7c1.5,0.3,3-0.5,3.5-1.9c1-2.9,0.4-6.2-1.5-8.6c-1-1.2-2.7-1.4-4-0.4
		c-0.2,0.1-0.4,0.3-0.5,0.5C541.5,19.6,541.3,24.1,543,26.3z"/>
	<path class="st1" d="M547.2,71.1c-1.7,1.3-3.1,2.8-3.1,5.2c0,1.2-0.1,2.4-0.2,3.7c-0.1,1.2-0.3,2.5-0.3,3.7c-0.1,1.7,0.2,3.4,1,5
		c0.7,1.4,2,2.3,3.5,2.5c1.9,0.3,3.8,0,5.5-0.8c0.6-0.2,1-0.9,1-1.5c0.1-1.4,0.9-2.7,2.1-3.5c1.3-1,2.8-1.6,4.4-1.9
		c2.8-0.3,5.5-5.5,4-8.3c-0.7-1.3-1.8-2.3-3.2-2.8c-2.6-1.1-5.3-2.1-8-2.8C551.6,69,549,69.5,547.2,71.1z"/>
	<path class="st1" d="M552,57.8c-0.8-1.2-1.9-2.2-3.3-2.7c-1.5-0.8-3.3-0.2-4,1.3c-0.1,0.3-0.2,0.6-0.3,0.9
		c-0.4,2.2,0.1,4.5,1.3,6.4c0.7,1.2,1.7,2.3,2.9,3c1.6,1,3.7,0.6,4.7-1c0.2-0.3,0.4-0.7,0.5-1.1c0.7-2.2,0-4.2-1.1-6.1
		C552.4,58.3,552.2,58,552,57.8z"/>
	<path class="st1" d="M543.6,65.4c-1.4-1.9-3.4-3.2-5.7-3.7c-1.7-0.4-3.4,0.6-3.9,2.3c-0.1,0.4-0.1,0.9-0.1,1.3
		c0.1,1.1,0.4,2.1,1,3.1c0.9,1.8,2.5,3.2,4.3,4c1,0.4,2.2,0.5,3.3,0.2c1.9-0.5,3-2.3,2.6-4.2c0-0.1,0-0.2-0.1-0.2
		C544.8,67.1,544.3,66.2,543.6,65.4z"/>
	<path class="st1" d="M533.5,81.3c1,1.4,2.5,2.3,4.2,2.7c1.4,0.4,2.8,0,3.8-1.1c1.1-1.1,1.3-2.9,0.4-4.2c-1.2-2.5-3.7-4.2-6.4-4.4
		c-2.5-0.3-4.1,1.5-3.5,4C532.3,79.4,532.8,80.4,533.5,81.3z"/>
	<path class="st1" d="M557.9,68.3c0.7,0.9,1.7,1.5,2.8,1.7c1.5,0.3,3-0.5,3.5-1.9c1-2.9,0.5-6.2-1.5-8.6c-1-1.2-2.7-1.4-4-0.4
		c-0.2,0.1-0.4,0.3-0.5,0.5C556.4,61.6,556.2,66.1,557.9,68.3z"/>
</g>
</svg>
