<svg xmlns="http://www.w3.org/2000/svg" xmlns:xlink="http://www.w3.org/1999/xlink" width="37.869" height="37.866" viewBox="0 0 37.869 37.866">
  <defs>
    <clipPath id="clip-path">
      <rect id="Rectángulo_687" data-name="Rectángulo 687" width="22.468" height="24.87" fill="#8e5207"/>
    </clipPath>
  </defs>
  <g id="compartir" transform="translate(0)">
    <path id="Trazado_1235" data-name="Trazado 1235" d="M-1646.116-3926.119a18.887,18.887,0,0,1,18.9,19.128,18.909,18.909,0,0,1-19.126,18.738,18.908,18.908,0,0,1-18.742-19.014A18.906,18.906,0,0,1-1646.116-3926.119Zm-17.691,18.9a17.717,17.717,0,0,0,17.615,17.7,17.708,17.708,0,0,0,17.717-17.708,17.714,17.714,0,0,0-17.695-17.624A17.735,17.735,0,0,0-1663.806-3907.218Z" transform="translate(1665.08 3926.119)" fill="#8e5207"/>
    <g id="Grupo_1497" data-name="Grupo 1497" transform="translate(6.015 6.498)">
      <g id="Grupo_1496" data-name="Grupo 1496" clip-path="url(#clip-path)">
        <path id="Trazado_631" data-name="Trazado 631" d="M18.244,24.87a3.833,3.833,0,0,1-2.736-1.94,3.259,3.259,0,0,1-.383-2.132.5.5,0,0,0-.309-.607Q10.733,17.828,6.67,15.43a.557.557,0,0,0-.725.038,3.538,3.538,0,0,1-4.092.231A3.582,3.582,0,0,1,.017,12.071,3.681,3.681,0,0,1,2.655,8.915,3.527,3.527,0,0,1,5.942,9.5a.55.55,0,0,0,.722.043q4.018-2.364,8.053-4.7c.221-.128.373-.245.322-.553A3.694,3.694,0,0,1,18.15.054c.033,0,.063-.036.095-.054h.995a.545.545,0,0,0,.138.079,3.717,3.717,0,0,1,3.04,3.094,3.758,3.758,0,0,1-1.672,3.711,3.685,3.685,0,0,1-4.283-.19.516.516,0,0,0-.68,0c-2.52,1.478-5.037,2.962-7.576,4.407-.557.317-.993.6-.75,1.331a.963.963,0,0,1-.032.492c-.083.345.06.52.358.691q4.014,2.31,8.006,4.658a.716.716,0,0,0,.916-.044,3.547,3.547,0,0,1,4.511.358,3.631,3.631,0,0,1,.623,4.5,3.985,3.985,0,0,1-2.6,1.783Z" transform="translate(0)" fill="#8e5207"/>
      </g>
    </g>
  </g>
</svg>
