<svg xmlns="http://www.w3.org/2000/svg" xmlns:xlink="http://www.w3.org/1999/xlink" width="91" height="91" viewBox="0 0 91 91">
  <defs>
    <filter id="Elipse_7" x="0" y="0" width="91" height="91" filterUnits="userSpaceOnUse">
      <feOffset dx="3" dy="9" input="SourceAlpha"/>
      <feGaussianBlur stdDeviation="3" result="blur"/>
      <feFlood flood-opacity="0.161"/>
      <feComposite operator="in" in2="blur"/>
      <feComposite in="SourceGraphic"/>
    </filter>
  </defs>
  <g id="etologia" transform="translate(6)">
    <g transform="matrix(1, 0, 0, 1, -6, 0)" filter="url(#Elipse_7)">
      <circle id="Elipse_7-2" data-name="Elipse 7" cx="36.5" cy="36.5" r="36.5" transform="translate(6)" fill="#ffb714"/>
    </g>
    <g id="Grupo_1503" data-name="Grupo 1503" transform="translate(18.609 11.57)">
      <path id="Trazado_641" data-name="Trazado 641" d="M1004.416,670.645h23.9a4.709,4.709,0,0,1,1,.723q5.416,5.434,10.852,10.848a2.284,2.284,0,0,1,.717,1.735q-.018,16.157-.008,32.315c0,1.406-.6,2-2.01,2H1005.11c-1.406,0-2-.595-2-2.012q0-21.784-.011-43.568A1.885,1.885,0,0,1,1004.416,670.645Zm33.184,41.019c0-.1.011-.174.011-.249q0-12.881.01-25.763c0-.39-.157-.411-.464-.41q-4.488.013-8.975,0a1.685,1.685,0,0,1-1.907-1.916c0-2.961-.012-5.922.012-8.882,0-.466-.135-.548-.568-.547q-9.371.022-18.741.011c-.673,0-.6-.08-.6.591q0,19.95,0,39.9c0,.67-.079.594.595.594q15.021,0,30.042,0c.124,0,.248,0,.372,0,.156,0,.224-.066.223-.222,0-.469,0-.937,0-1.469-1.056,1.112-1.907,1.115-2.947.075-.723-.723-1.457-1.438-2.164-2.177a1.07,1.07,0,0,0-.855-.347q-9.952.013-19.9.006a6.583,6.583,0,0,1-.7-.026,1.581,1.581,0,0,1-1.425-1.472,1.61,1.61,0,0,1,1.252-1.719,4.109,4.109,0,0,1,.926-.058h2a13.6,13.6,0,0,1-2.241-2.684c-.1-.167-.269-.119-.417-.135a1.6,1.6,0,0,1-1.4-1,1.52,1.52,0,0,1,.247-1.655.548.548,0,0,0,.114-.583,10.887,10.887,0,0,1-.385-2.379,12.28,12.28,0,0,1,1.007-5.664c.068-.153.211-.325-.091-.439a1.6,1.6,0,0,1-.974-1.888,1.677,1.677,0,0,1,1.747-1.244c.418-.007.838-.017,1.255,0a.9.9,0,0,0,.737-.292,11.776,11.776,0,0,1,3.8-2.545c.115-.048.27-.062.346-.249h-.483q-2.767,0-5.534,0a3,3,0,0,1-.647-.043,1.628,1.628,0,0,1,.351-3.214c1.4-.018,2.79-.007,4.186-.007,2.465,0,4.93-.007,7.394,0a1.639,1.639,0,0,1,1.7,1.831,2.707,2.707,0,0,1-.334.847,1.405,1.405,0,0,0,.2.079,12.114,12.114,0,0,1,6.332,3.391.705.705,0,0,0,.539.2,10.562,10.562,0,0,1,1.856.056,1.6,1.6,0,0,1,1.267,1.324,1.553,1.553,0,0,1-.839,1.665c-.355.156-.357.3-.224.614a12.085,12.085,0,0,1,.588,7.954.629.629,0,0,0,.148.619,1.57,1.57,0,0,1-.917,2.544,1.593,1.593,0,0,0-1.088.781c-.219.294-.2.46.063.721C1033.928,708,1035.745,709.818,1037.6,711.664Zm-15.6-4.225a9.043,9.043,0,1,0-9.035-9.014A9.053,9.053,0,0,0,1022,707.439Zm7.543-31.067c0,1.774.007,3.537-.007,5.3,0,.349.2.313.419.313q2.484,0,4.968,0c.085,0,.189.039.218-.013Z" transform="translate(-1003.103 -670.645)" fill="#8e5207"/>
      <path id="Trazado_642" data-name="Trazado 642" d="M1034.41,698.858c1.922,0,3.844-.016,5.767.006a1.609,1.609,0,0,1,1.5,2.249,1.631,1.631,0,0,1-1.632,1.009q-2.6,0-5.208,0c-2.077,0-4.154.011-6.231,0a1.632,1.632,0,1,1,.04-3.26c1.922-.006,3.844,0,5.766,0Z" transform="translate(-1020.402 -691.149)" fill="#8e5207"/>
    </g>
  </g>
</svg>
