<?xml version="1.0" encoding="utf-8"?>
<!-- Generator: Adobe Illustrator 24.0.0, SVG Export Plug-In . SVG Version: 6.00 Build 0)  -->
<svg version="1.1" id="Capa_1" xmlns="http://www.w3.org/2000/svg" xmlns:xlink="http://www.w3.org/1999/xlink" x="0px" y="0px"
	 viewBox="0 0 56.5 55.6" style="enable-background:new 0 0 56.5 55.6;" xml:space="preserve">
<style type="text/css">
	.st0{fill:#8E5207;}
</style>
<title>botonAceptar</title>
<path class="st0" d="M28.1,24.1c3.2-1.4,6.3-2.4,9.7-0.6c1.7,0.9,3.5,1.7,5.3,2.3c1.9,0.7,3.7,1.4,5.5,2.2c2.6,1.1,4.8,2.9,6.4,5.1
	c1.5,1.9,1.9,4.5,1.1,6.8c-1,2.9-2.8,5.4-5.2,7.2c-0.8,0.7-2,0.9-2.9,0.4c-2.1-1-4.6-0.8-6.6,0.4c-2.3,1.1-4.4,2.8-5.9,4.9
	c-2.5,3.8-11.9,3.8-14.7-0.4c-1.3-1.9-1.9-4.2-1.7-6.6c0.3-4.5,0.9-9,1.9-13.5C22,28.7,24.6,25.6,28.1,24.1z"/>
<path class="st0" d="M5.7,21.1c-1.1-2-1.6-4.3-1.5-6.6c0.4-3.6,2.9-5.4,6.4-4.5c3.7,1,6.2,3.5,8.2,6.6c1.3,1.9,2.1,4,2.2,6.3
	c0.3,3-1.9,5.7-4.9,6c-0.6,0.1-1.2,0-1.8-0.1c-3.7-0.7-6-3.1-7.9-6.1C6.2,22.1,5.9,21.6,5.7,21.1z"/>
<path class="st0" d="M22.8,14.7c-1.5-3.5-2.3-7.1-1-10.8s4.6-4.9,8-2.9c1.5,0.9,2.7,2.1,3.7,3.6c1.9,2.6,2.8,5.8,2.5,9.1
	c-0.2,1.8-0.9,3.5-2.2,4.8c-2,2.3-5.5,2.6-7.9,0.6c-0.1-0.1-0.2-0.2-0.3-0.2C24.4,17.6,23.4,16.2,22.8,14.7z"/>
<path class="st0" d="M52.8,12c1.2,2.5,1.5,5.3,0.8,8c-0.5,2.2-2.1,4-4.3,4.6c-2.4,0.7-5-0.3-6.3-2.5c-2.5-3.8-3.3-8-1.5-12.4
	c1.5-3.8,5.2-4.6,8.3-2C51.1,8.9,52.1,10.3,52.8,12z"/>
<path class="st0" d="M16.4,37.2c0.8,1.6,1,3.5,0.3,5.2c-0.7,2.3-2.9,3.9-5.3,3.7C7,45.8,1.7,41.7,0.3,37.6c-1-3,0.3-5.5,3.4-6.3
	C8,30.2,14.5,33.2,16.4,37.2z"/>
</svg>
