<svg xmlns="http://www.w3.org/2000/svg" width="34.298" height="48.553" viewBox="0 0 34.298 48.553">
  <g id="iconTitle" transform="translate(0 0)">
    <path id="Trazado_1545" data-name="Trazado 1545" d="M1988.832,3420.265c-.4,3.318-2.6,4.5-6.084,3.044-1.717,6.329,1.248,11.3,7.574,12.833,4.792,1.164,9.224.026,13.558-1.913.808-.361,1.594-.769,2.467-1.192-1.395,4.158-7.832,9.274-14,9.261-8.731-.019-15.022-5.789-15.627-14.691a20.669,20.669,0,0,1,3.488-13.636,11.765,11.765,0,0,1,2.314-2.481c.946-.76,1.159-1.207-.107-1.979a9.479,9.479,0,0,1-3.993-10.634,6.528,6.528,0,0,1,5.844-5.08,7.858,7.858,0,0,1,7.966,4.149c2.441,4.1,2.01,7.664-1.369,11.83,1.814-.5,2.7-1.768,3.6-2.981.324-.438.508-.834,1.168-.923,4.958-.678,12.005,3.2,14.152,7.847,2.538,5.491.913,11.685-4.343,16.068-3.975,3.315-8.658,4.415-13.754,4.061-1.03-.072-.938-.531-.726-1.305,1.068-3.9,3.773-6.091,7.459-7.294a11.2,11.2,0,0,1,1.2-.369c3.762-.781,5.831-2.892,6.412-6.874.54-3.7.7-3.821-3.083-3.34-2.509.319-4.928.65-7.11-1.28-1.018-.9-2.593-.633-3.825-.287a11.4,11.4,0,0,1-4.389.616,2.526,2.526,0,0,0-2.282,1.174,9.169,9.169,0,0,0-1.678,5.029,1.987,1.987,0,0,0,.972,2.148,2.236,2.236,0,0,0,2.372-.29A19.979,19.979,0,0,0,1988.832,3420.265Z" transform="translate(-1976.656 -3393.746)" fill="#8e5207"/>
    <path id="Trazado_1546" data-name="Trazado 1546" d="M2027.878,3452.424c-.09.89-.793.915-1.31,1.023-.385.08-.634-.308-.412-.7.248-.443,0-1.334.923-1.2A.841.841,0,0,1,2027.878,3452.424Z" transform="translate(-2008.289 -3430.734)" fill="#8e5207"/>
  </g>
</svg>
