<?xml version="1.0" encoding="utf-8"?>
<!-- Generator: Adobe Illustrator 24.0.0, SVG Export Plug-In . SVG Version: 6.00 Build 0)  -->
<svg version="1.1" id="logotwitter" xmlns="http://www.w3.org/2000/svg" xmlns:xlink="http://www.w3.org/1999/xlink" x="0px"
	 y="0px" viewBox="0 0 36.4 29.5" style="enable-background:new 0 0 36.4 29.5;" xml:space="preserve">
<style type="text/css">
	.st0{fill:#8E5207;}
</style>
<path id="Trazado_444" class="st0" d="M36.4,3.5c-0.3,0.4-0.5,0.8-0.8,1.1c-0.8,1-1.7,1.8-2.7,2.6l-0.1,0.2c0,1.1,0,2.2-0.2,3.3
	c-0.6,4.7-2.7,9.1-6,12.5c-2.8,2.9-6.4,4.9-10.3,5.7c-1.4,0.3-2.8,0.5-4.2,0.5c-0.2,0-0.4,0-0.7,0c-4,0-7.9-1.1-11.2-3.2L0,26.2
	c0.6,0.1,1.2,0.1,1.8,0.1c2,0,3.9-0.4,5.7-1.1c1.3-0.5,2.5-1.2,3.6-2.1c-3.2-0.1-5.9-2.1-6.9-5.2C4.6,18,5.1,18,5.5,18
	c0.6,0,1.2-0.1,1.8-0.2l0.1-0.1C4,17,1.5,13.9,1.6,10.4c1,0.6,2.1,0.9,3.3,0.9C1.7,9.1,0.7,4.7,2.7,1.4C6.4,6,12,8.9,18,9.2
	c0-0.3-0.1-0.6-0.1-0.8C17.6,6.6,18,4.9,19,3.5c1.1-1.8,3-3.1,5.1-3.4C24.5,0,24.9,0,25.4,0c1.9,0,3.8,0.8,5.1,2.2
	c0.1,0.1,0.2,0.1,0.3,0.1c0,0,0.1,0,0.1,0c1.5-0.3,3-0.9,4.3-1.7l0.1-0.1c-0.5,1.7-1.7,3.1-3.2,4.1C33.6,4.5,35,4.1,36.4,3.5"/>
</svg>
