<svg xmlns="http://www.w3.org/2000/svg" xmlns:xlink="http://www.w3.org/1999/xlink" width="91" height="91" viewBox="0 0 91 91">
  <defs>
    <filter id="Elipse_7" x="0" y="0" width="91" height="91" filterUnits="userSpaceOnUse">
      <feOffset dx="3" dy="9" input="SourceAlpha"/>
      <feGaussianBlur stdDeviation="3" result="blur"/>
      <feFlood flood-opacity="0.161"/>
      <feComposite operator="in" in2="blur"/>
      <feComposite in="SourceGraphic"/>
    </filter>
  </defs>
  <g id="Seguros" transform="translate(6)">
    <g transform="matrix(1, 0, 0, 1, -6, 0)" filter="url(#Elipse_7)">
      <circle id="Elipse_7-2" data-name="Elipse 7" cx="36.5" cy="36.5" r="36.5" transform="translate(6)" fill="#ffb714"/>
    </g>
    <g id="Grupo_1508" data-name="Grupo 1508" transform="translate(10.761 8.98)">
      <path id="Trazado_663" data-name="Trazado 663" d="M1496.025,1638.256q0-3.9,0-7.8c0-.8.4-1.177,1.207-1.228,1.8-.113,3.592-.238,5.386-.387.859-.072,1.281.127,1.51.976.151.557.409.6.913.509a22.852,22.852,0,0,1,4.982-.589,16.922,16.922,0,0,1,5.326,1.213,28.209,28.209,0,0,1,7.091,3.844.528.528,0,0,0,.746.01c2.112-1.511,4.244-2.993,6.362-4.5a4.358,4.358,0,0,1,5.351-.107.367.367,0,0,0,.5-.021,4.312,4.312,0,0,1,5.3-.024.51.51,0,0,0,.523.043,4.324,4.324,0,0,1,4.834,1.162.581.581,0,0,0,.667.181,3.7,3.7,0,0,1,4.6,2.852,1.7,1.7,0,0,1-.554,1.812c-1.79,1.586-3.605,3.138-5.537,4.55-.207.151-.3.266-.17.542a5.362,5.362,0,0,1,.426,1.486,1.134,1.134,0,0,1-1.157,1.507c-1.053.077-2.088.327-3.136.386a13.772,13.772,0,0,0-5.476,1.872,57.065,57.065,0,0,1-11.738,4.445,12.69,12.69,0,0,1-8.462-.717c-1.676-.737-3.317-1.55-4.969-2.339-.25-.119-.382-.176-.528.162a.947.947,0,0,1-1.036.539c-2.577-.284-5.152-.583-7.729-.87q-2.061-.229-4.125-.434a1.092,1.092,0,0,1-1.108-1.223Q1496.023,1642.182,1496.025,1638.256Zm36.189,7.546a34.544,34.544,0,0,1-5.218-.448,1.044,1.044,0,0,1-.9-1.142,1.018,1.018,0,0,1,1.053-.937,11.81,11.81,0,0,1,1.446.129,26.063,26.063,0,0,0,7.144-.063c1.815-.227,3.621-.528,5.431-.8.653-.1,1.3-.2,2-.31a3.42,3.42,0,0,0-2.458-2.076,29.127,29.127,0,0,0-3.2-.328c-3.255-.3-6.509-.624-9.765-.908a13.174,13.174,0,0,1-6.663-2.483,30.7,30.7,0,0,0-5.212-2.989,13.958,13.958,0,0,0-10.77-.854c0-.044-.009-.007,0,.023q2.072,6.045,4.144,12.089a.747.747,0,0,0,.436.464c2.221,1.042,4.427,2.117,6.659,3.135a10.556,10.556,0,0,0,6.69.714,41.782,41.782,0,0,0,5.676-1.754A35.551,35.551,0,0,0,1532.214,1645.8Zm2.385-8.385a18.851,18.851,0,0,1,1.961.168,3.271,3.271,0,0,0,2.816-.68c1.591-1.223,3.244-2.366,4.787-3.651.445-.37.44-.441-.028-.787a2.26,2.26,0,0,0-2.792.1c-1.1.87-2.244,1.68-3.392,2.483C1536.865,1635.81,1535.786,1636.578,1534.6,1637.417Zm6.735.691a5.43,5.43,0,0,1,2.072,1.023.292.292,0,0,0,.432.01,62.818,62.818,0,0,0,5.173-4.239c.2-.186.169-.334.056-.538a1.587,1.587,0,0,0-2.409-.441c-.432.345-.84.719-1.264,1.075C1544.111,1636.071,1542.777,1637.078,1541.333,1638.107Zm-11.806-1.2c.244.047.378.077.514.1a2.663,2.663,0,0,0,2.157-.486c1.946-1.462,3.968-2.824,5.958-4.228.285-.2.56-.418.871-.651a2.155,2.155,0,0,0-2.225.152c-.547.363-1.077.751-1.613,1.129Zm-4.543-.774a4.064,4.064,0,0,1,.534.179,1.253,1.253,0,0,0,1.463-.206c1.32-.978,2.68-1.9,4.022-2.847.726-.512,1.449-1.028,2.251-1.6a2.337,2.337,0,0,0-2.132.165c-.478.313-.942.645-1.409.973C1528.162,1633.9,1526.612,1634.991,1524.984,1636.138Z" transform="translate(-1496.025 -1600.244)" fill="#8e5207"/>
      <path id="Trazado_664" data-name="Trazado 664" d="M1566.753,1554.338q0,2.131,0,4.262a13.4,13.4,0,0,1-10.35,12.8,3.251,3.251,0,0,1-1.719-.166,13.129,13.129,0,0,1-9.583-10.651,10.585,10.585,0,0,1-.194-2.062q.008-4.392,0-8.785c0-.872.251-1.181,1.095-1.344a41.145,41.145,0,0,0,9.124-2.806,1.567,1.567,0,0,1,1.386-.008,40.66,40.66,0,0,0,9.225,2.823,1.082,1.082,0,0,1,1.013,1.209Q1566.756,1551.973,1566.753,1554.338Zm-11.969-6.242a1.185,1.185,0,0,0-.2.034,39.666,39.666,0,0,1-7.231,2.143c-.279.054-.313.2-.312.433q.009,3.146,0,6.293c0,.264.064.359.347.358q3.536-.015,7.073,0c.244,0,.332-.068.332-.322C1554.782,1554.071,1554.784,1551.107,1554.784,1548.1Zm2.093,20.9a4.273,4.273,0,0,0,1.287-.462,11.023,11.023,0,0,0,6.333-8.426c.1-.585-.075-.6-.541-.6q-3.3.029-6.595,0c-.384,0-.5.087-.494.484.022,1.869.01,3.739.01,5.608Z" transform="translate(-1528.156 -1545.418)" fill="#8e5207"/>
    </g>
  </g>
</svg>
