<svg xmlns="http://www.w3.org/2000/svg" width="37.62" height="36.331" viewBox="0 0 37.62 36.331">
  <g id="visitar" transform="translate(0.5 0.5)">
    <path id="Trazado_1235" data-name="Trazado 1235" d="M-1665.08-3907.192C-1665.032-3917.653-1665.129-3896.762-1665.08-3907.192Zm1.273.049a17.717,17.717,0,0,0,17.615,17.7,17.708,17.708,0,0,0,17.717-17.708,17.714,17.714,0,0,0-17.695-17.624A17.735,17.735,0,0,0-1663.807-3907.143Z" transform="translate(1665.094 3924.772)" fill="#ffb714" stroke="#ffb714" stroke-width="1"/>
    <path id="Icon_awesome-share-square" data-name="Icon awesome-share-square" d="M20.717,6.467l-5.248,4.956a.875.875,0,0,1-1.475-.636V8.164c-5.269.035-7.491,1.28-6,6.245a.583.583,0,0,1-.911.632,7.015,7.015,0,0,1-2.7-5.225c0-5.246,4.286-6.286,9.621-6.316V.875A.875.875,0,0,1,15.469.239L20.717,5.2A.875.875,0,0,1,20.717,6.467Zm-6.723,7.35v2.51H2.332V4.665H4.188A.437.437,0,0,0,4.5,4.53,7.1,7.1,0,0,1,6.362,3.157a.437.437,0,0,0-.2-.825H1.749A1.749,1.749,0,0,0,0,4.082V16.91a1.749,1.749,0,0,0,1.749,1.749H14.577a1.749,1.749,0,0,0,1.749-1.749V13.673a.437.437,0,0,0-.583-.412,2.618,2.618,0,0,1-1.246.123A.438.438,0,0,0,13.994,13.817Z" transform="translate(9.605 8.332)" fill="#8e5207"/>
  </g>
</svg>
