<?xml version="1.0" encoding="utf-8"?>
<!-- Generator: Adobe Illustrator 24.0.0, SVG Export Plug-In . SVG Version: 6.00 Build 0)  -->
<svg version="1.1" id="Capa_1" xmlns="http://www.w3.org/2000/svg" xmlns:xlink="http://www.w3.org/1999/xlink" x="0px" y="0px"
	 viewBox="0 0 60.4 60.8" style="enable-background:new 0 0 60.4 60.8;" xml:space="preserve">
<style type="text/css">
	.st0{opacity:0.6;}
	.st1{opacity:0.12;}
	.st2{opacity:0.56;fill:#FFFFFF;enable-background:new    ;}
	.st3{opacity:0.8;fill:#FFFFFF;enable-background:new    ;}
	.st4{opacity:0.76;fill:#FFFFFF;enable-background:new    ;}
	.st5{opacity:0.66;fill:#FFFFFF;enable-background:new    ;}
	.st6{opacity:0.89;}
	.st7{fill:#FFFFFF;}
	.st8{opacity:0.73;fill:#FFFFFF;enable-background:new    ;}
	.st9{opacity:0.42;fill:#FFFFFF;enable-background:new    ;}
	.st10{opacity:0.64;fill:#FFFFFF;enable-background:new    ;}
	.st11{opacity:0.4;fill:#FFFFFF;enable-background:new    ;}
	.st12{opacity:0.44;fill:#FFFFFF;enable-background:new    ;}
	.st13{opacity:0.82;fill:#FFFFFF;enable-background:new    ;}
</style>
<g id="Layer_3">
</g>
<g id="Layer_4">
</g>
<g id="Layer_1" class="st0">
	<g class="st1">
		<path class="st2" d="M1,37.1H0.3C2.9,48.8,12.2,58,24,60.4v-0.7C12.6,57.3,3.6,48.4,1,37.1z"/>
		<path class="st3" d="M37.8,59.4v0.7c11.1-2.8,19.8-11.7,22.3-23h-0.7C56.9,48,48.5,56.6,37.8,59.4z"/>
		<path class="st4" d="M24,1.1V0.4C12.4,2.8,3.1,11.8,0.4,23.3h0.7C3.8,12.2,12.7,3.5,24,1.1z"/>
		<rect x="23.7" y="0" class="st5" width="1.1" height="1.4"/>
		<g class="st6">
			<rect x="36.9" y="0.2" class="st7" width="1.1" height="1.4"/>
			<g>
				<path class="st7" d="M59.3,23.3H60c-2.6-11-11.3-19.8-22.2-22.6v0.7C48.4,4.2,56.7,12.7,59.3,23.3z"/>
				
					<rect x="59" y="23.2" transform="matrix(0.9999 -1.117820e-02 1.117820e-02 0.9999 -0.2617 0.6688)" class="st7" width="1.4" height="1.1"/>
			</g>
		</g>
		<polygon class="st8" points="60.4,36.3 60.4,37.4 59,37.4 59,36.3 		"/>
		
			<rect x="0" y="36.3" transform="matrix(0.9999 -1.156688e-02 1.156688e-02 0.9999 -0.4262 1.056030e-02)" class="st9" width="1.4" height="1.1"/>
		
			<rect x="23.6" y="59.3" transform="matrix(0.9999 -1.665268e-02 1.665268e-02 0.9999 -0.9958 0.4105)" class="st10" width="1.1" height="1.4"/>
		
			<rect x="36.9" y="59.1" transform="matrix(0.9999 -1.654402e-02 1.654402e-02 0.9999 -0.9842 0.6278)" class="st11" width="1.1" height="1.4"/>
		
			<rect x="0" y="23" transform="matrix(0.9999 -1.154609e-02 1.154609e-02 0.9999 -0.2719 9.654700e-03)" class="st12" width="1.4" height="1.1"/>
		<path class="st13" d="M28.2,57.5c-0.7,0-1.3-0.1-2-0.2l0.4-2.9c0.6,0.1,1.2,0.1,1.7,0.2L28.2,57.5z M34,57.3l-0.4-2.9
			c0.3,0,0.7-0.1,1-0.2l0.5,2.9C34.8,57.2,34.4,57.3,34,57.3z M23.5,56.8c-2.8-0.7-5.5-1.9-7.9-3.4l1.6-2.5c2.2,1.4,4.5,2.4,7,3
			L23.5,56.8z M37.1,56.7l-0.8-2.9c2.5-0.7,4.8-1.7,7-3.1l1.6,2.5C42.6,54.8,39.9,56,37.1,56.7z M14,52.2c-0.3-0.2-0.6-0.5-0.9-0.7
			l1.9-2.3c0.3,0.2,0.5,0.4,0.8,0.6L14,52.2z M47.2,51.6l-1.9-2.3c0.5-0.4,0.9-0.7,1.3-1.1l2,2.2C48.2,50.8,47.7,51.2,47.2,51.6z
			 M8.9,47.3c-0.4-0.5-0.8-1-1.2-1.6l2.5-1.7c0.3,0.5,0.7,1,1,1.4L8.9,47.3z M52.6,45.9l-2.4-1.7c0.2-0.3,0.4-0.6,0.6-0.9l2.5,1.6
			C53,45.2,52.8,45.6,52.6,45.9z M6.3,43.4c-1.4-2.5-2.4-5.3-2.9-8.1l2.9-0.5c0.5,2.5,1.3,5,2.6,7.2L6.3,43.4z M54.2,43.2l-2.6-1.4
			c1.2-2.3,2.1-4.7,2.5-7.2l2.9,0.5C56.5,37.9,55.6,40.7,54.2,43.2z M3.2,33.3c0-0.4-0.1-0.8-0.1-1.2L6,32c0,0.4,0.1,0.7,0.1,1
			L3.2,33.3z M57.4,32.3l-3-0.2c0-0.6,0.1-1.2,0.1-1.7h3C57.4,31,57.4,31.7,57.4,32.3z M54.4,29.6c-0.1-2.6-0.6-5.1-1.4-7.5l2.8-1
			c1,2.7,1.5,5.6,1.6,8.5H54.4z M6.2,26.7l-2.9-0.4c0.1-0.6,0.2-1.3,0.4-1.9L6.6,25C6.4,25.6,6.3,26.2,6.2,26.7z M7.2,22.7l-2.8-0.9
			c0.9-2.7,2.3-5.3,4-7.6l2.4,1.8C9.2,17.9,8,20.2,7.2,22.7z M52,19.8c-0.3-0.5-0.5-1-0.8-1.5l2.6-1.5c0.3,0.6,0.6,1.2,0.9,1.7
			L52,19.8z M11.9,14.5l-2.2-1.9c0.3-0.3,0.5-0.6,0.8-0.9l2.2,2C12.4,14,12.1,14.3,11.9,14.5z M48.1,14.1c-0.2-0.3-0.5-0.5-0.7-0.8
			l2.1-2.1c0.3,0.3,0.6,0.6,0.8,0.9L48.1,14.1z M46.1,12.1C44.2,10.4,42,9,39.6,8l1.2-2.7c2.7,1.1,5.1,2.7,7.3,4.6L46.1,12.1z
			 M16.6,10.3l-1.7-2.5c0.5-0.4,1.1-0.7,1.7-1l1.5,2.6C17.6,9.7,17.1,10,16.6,10.3z M20.2,8.3L19,5.6c2.6-1.2,5.4-1.9,8.3-2.3l0.3,3
			C25.1,6.5,22.6,7.2,20.2,8.3z M37.3,7.2c-0.6-0.2-1.1-0.3-1.7-0.5l0.7-2.9c0.6,0.1,1.3,0.3,1.9,0.5L37.3,7.2z M29.4,6.2l-0.1-3
			c0.3,0,0.6,0,0.9,0h0.3v3h-0.2C29.9,6.1,29.7,6.1,29.4,6.2z"/>
	</g>
</g>
<g id="Layer_5">
</g>
</svg>
