<svg id="Capa_1" data-name="Capa 1" xmlns="http://www.w3.org/2000/svg" viewBox="0 0 276 276"><defs><style>.cls-1{fill:#ffb714;}.cls-2{fill:none;stroke:#ffb714;stroke-miterlimit:10;stroke-width:0.75px;}</style></defs><title>circulo</title><path class="cls-1" d="M138.5,17.75a120.75,120.75,0,0,1,85.38,206.13A120.75,120.75,0,1,1,53.12,53.12,119.94,119.94,0,0,1,138.5,17.75m0-.75A121.5,121.5,0,1,0,260,138.5,121.5,121.5,0,0,0,138.5,17Z" transform="translate(-0.5 -0.5)"/><line class="cls-2" x1="138" x2="138" y2="17"/><line class="cls-2" x1="130" y1="5" x2="131" y2="17.5"/><line class="cls-2" x1="112.71" y1="7.18" x2="115.33" y2="19.44"/><line class="cls-2" x1="95.85" y1="11.6" x2="100.05" y2="23.42"/><line class="cls-2" x1="79.71" y1="18.19" x2="85.42" y2="29.35"/><line class="cls-2" x1="64.57" y1="26.82" x2="71.69" y2="37.14"/><line class="cls-2" x1="50.69" y1="37.35" x2="59.09" y2="46.66"/><line class="cls-2" x1="38.3" y1="49.61" x2="47.84" y2="57.74"/><line class="cls-2" x1="27.61" y1="63.38" x2="38.14" y2="70.2"/><line class="cls-2" x1="18.82" y1="78.43" x2="30.14" y2="83.81"/><line class="cls-2" x1="12.06" y1="94.49" x2="23.99" y2="98.35"/><line class="cls-2" x1="7.46" y1="111.3" x2="19.79" y2="113.57"/><line class="cls-2" x1="5.09" y1="128.57" x2="17.62" y2="129.21"/><line class="cls-2" x1="5" y1="146" x2="17.5" y2="145"/><line class="cls-2" x1="7.18" y1="163.29" x2="19.44" y2="160.67"/><line class="cls-2" x1="11.6" y1="180.15" x2="23.42" y2="175.95"/><line class="cls-2" x1="18.19" y1="196.29" x2="29.35" y2="190.58"/><line class="cls-2" x1="26.82" y1="211.43" x2="37.14" y2="204.31"/><line class="cls-2" x1="37.35" y1="225.31" x2="46.66" y2="216.91"/><line class="cls-2" x1="49.61" y1="237.7" x2="57.74" y2="228.16"/><line class="cls-2" x1="63.38" y1="248.39" x2="70.2" y2="237.86"/><line class="cls-2" x1="78.43" y1="257.18" x2="83.81" y2="245.86"/><line class="cls-2" x1="94.49" y1="263.94" x2="98.35" y2="252.01"/><line class="cls-2" x1="111.3" y1="268.54" x2="113.57" y2="256.21"/><line class="cls-2" x1="128.57" y1="270.91" x2="129.21" y2="258.38"/><line class="cls-2" x1="146" y1="271" x2="145" y2="258.5"/><line class="cls-2" x1="163.29" y1="268.82" x2="160.67" y2="256.56"/><line class="cls-2" x1="180.15" y1="264.4" x2="175.95" y2="252.58"/><line class="cls-2" x1="196.29" y1="257.81" x2="190.58" y2="246.65"/><line class="cls-2" x1="211.43" y1="249.18" x2="204.31" y2="238.86"/><line class="cls-2" x1="225.31" y1="238.65" x2="216.91" y2="229.34"/><line class="cls-2" x1="237.7" y1="226.39" x2="228.16" y2="218.26"/><line class="cls-2" x1="248.39" y1="212.62" x2="237.86" y2="205.8"/><line class="cls-2" x1="257.18" y1="197.57" x2="245.86" y2="192.19"/><line class="cls-2" x1="263.94" y1="181.51" x2="252.01" y2="177.65"/><line class="cls-2" x1="268.54" y1="164.7" x2="256.21" y2="162.43"/><line class="cls-2" x1="270.91" y1="147.43" x2="258.38" y2="146.79"/><line class="cls-2" x1="271" y1="130" x2="258.5" y2="131"/><line class="cls-2" x1="268.82" y1="112.71" x2="256.56" y2="115.33"/><line class="cls-2" x1="264.4" y1="95.85" x2="252.58" y2="100.05"/><line class="cls-2" x1="257.81" y1="79.71" x2="246.65" y2="85.42"/><line class="cls-2" x1="249.18" y1="64.57" x2="238.86" y2="71.69"/><line class="cls-2" x1="238.65" y1="50.69" x2="229.34" y2="59.09"/><line class="cls-2" x1="226.39" y1="38.3" x2="218.26" y2="47.84"/><line class="cls-2" x1="212.62" y1="27.61" x2="205.8" y2="38.14"/><line class="cls-2" x1="197.57" y1="18.82" x2="192.19" y2="30.14"/><line class="cls-2" x1="181.51" y1="12.06" x2="177.65" y2="23.99"/><line class="cls-2" x1="164.7" y1="7.46" x2="162.43" y2="19.79"/><line class="cls-2" x1="147.43" y1="5.09" x2="146.79" y2="17.62"/><line class="cls-2" x1="119.99" y1="1.18" x2="122.21" y2="18.04"/><line class="cls-2" x1="102.28" y1="4.7" x2="106.68" y2="21.12"/><line class="cls-2" x1="85.19" y1="10.5" x2="91.7" y2="26.21"/><line class="cls-2" x1="69" y1="18.49" x2="77.5" y2="33.21"/><line class="cls-2" x1="53.99" y1="28.52" x2="64.34" y2="42"/><line class="cls-2" x1="40.42" y1="40.42" x2="52.44" y2="52.44"/><line class="cls-2" x1="28.52" y1="53.99" x2="42" y2="64.34"/><line class="cls-2" x1="18.49" y1="69" x2="33.21" y2="77.5"/><line class="cls-2" x1="10.5" y1="85.19" x2="26.21" y2="91.7"/><line class="cls-2" x1="4.7" y1="102.28" x2="21.12" y2="106.68"/><line class="cls-2" x1="1.18" y1="119.99" x2="18.04" y2="122.21"/><line class="cls-2" y1="138" x2="17" y2="138"/><line class="cls-2" x1="1.18" y1="156.01" x2="18.04" y2="153.79"/><line class="cls-2" x1="4.7" y1="173.72" x2="21.12" y2="169.32"/><line class="cls-2" x1="10.5" y1="190.81" x2="26.21" y2="184.3"/><line class="cls-2" x1="18.49" y1="207" x2="33.21" y2="198.5"/><line class="cls-2" x1="28.52" y1="222.01" x2="42" y2="211.66"/><line class="cls-2" x1="40.42" y1="235.58" x2="52.44" y2="223.56"/><line class="cls-2" x1="53.99" y1="247.48" x2="64.34" y2="234"/><line class="cls-2" x1="69" y1="257.51" x2="77.5" y2="242.79"/><line class="cls-2" x1="85.19" y1="265.5" x2="91.7" y2="249.79"/><line class="cls-2" x1="102.28" y1="271.3" x2="106.68" y2="254.88"/><line class="cls-2" x1="119.99" y1="274.82" x2="122.21" y2="257.96"/><line class="cls-2" x1="138" y1="276" x2="138" y2="259"/><line class="cls-2" x1="156.01" y1="274.82" x2="153.79" y2="257.96"/><line class="cls-2" x1="173.72" y1="271.3" x2="169.32" y2="254.88"/><line class="cls-2" x1="190.81" y1="265.5" x2="184.3" y2="249.79"/><line class="cls-2" x1="207" y1="257.51" x2="198.5" y2="242.79"/><line class="cls-2" x1="222.01" y1="247.48" x2="211.66" y2="234"/><line class="cls-2" x1="235.58" y1="235.58" x2="223.56" y2="223.56"/><line class="cls-2" x1="247.48" y1="222.01" x2="234" y2="211.66"/><line class="cls-2" x1="257.51" y1="207" x2="242.79" y2="198.5"/><line class="cls-2" x1="265.5" y1="190.81" x2="249.79" y2="184.3"/><line class="cls-2" x1="271.3" y1="173.72" x2="254.88" y2="169.32"/><line class="cls-2" x1="274.82" y1="156.01" x2="257.96" y2="153.79"/><line class="cls-2" x1="276" y1="138" x2="259" y2="138"/><line class="cls-2" x1="274.82" y1="119.99" x2="257.96" y2="122.21"/><line class="cls-2" x1="271.3" y1="102.28" x2="254.88" y2="106.68"/><line class="cls-2" x1="265.5" y1="85.19" x2="249.79" y2="91.7"/><line class="cls-2" x1="257.51" y1="69" x2="242.79" y2="77.5"/><line class="cls-2" x1="247.48" y1="53.99" x2="234" y2="64.34"/><line class="cls-2" x1="235.58" y1="40.42" x2="223.56" y2="52.44"/><line class="cls-2" x1="222.01" y1="28.52" x2="211.66" y2="42"/><line class="cls-2" x1="207" y1="18.49" x2="198.5" y2="33.21"/><line class="cls-2" x1="190.81" y1="10.5" x2="184.3" y2="26.21"/><line class="cls-2" x1="173.72" y1="4.7" x2="169.32" y2="21.12"/><line class="cls-2" x1="156.01" y1="1.18" x2="153.79" y2="18.04"/></svg>