<svg xmlns="http://www.w3.org/2000/svg" xmlns:xlink="http://www.w3.org/1999/xlink" width="74" height="74" viewBox="0 0 74 74">
  <defs>
    <filter id="Trazado_1573" x="0" y="0" width="74" height="74" filterUnits="userSpaceOnUse">
      <feOffset dx="3" dy="9" input="SourceAlpha"/>
      <feGaussianBlur stdDeviation="3" result="blur"/>
      <feFlood flood-opacity="0.161"/>
      <feComposite operator="in" in2="blur"/>
      <feComposite in="SourceGraphic"/>
    </filter>
  </defs>
  <g id="huellaHumano" transform="translate(-1099 -114)">
    <g transform="matrix(1, 0, 0, 1, 1099, 114)" filter="url(#Trazado_1573)">
      <path id="Trazado_1573-2" data-name="Trazado 1573" d="M28,0A28,28,0,1,1,0,28,28,28,0,0,1,28,0Z" transform="translate(6)" fill="#ffb714"/>
    </g>
    <g id="Grupo_2171" data-name="Grupo 2171" transform="translate(384.868 3289.072)">
      <path id="Trazado_1574" data-name="Trazado 1574" d="M725.588-3146.91c.009-11.113,8.025-20.652,18.694-22.222,9.67-1.423,17.13,2.293,22.534,10.293a22.751,22.751,0,0,1,3.756,12c.051,1.171.119,2.341.1,3.515-.006.434-.044.858-.607.844s-.58-.449-.578-.876a31.5,31.5,0,0,0-.83-8.5c-2.136-7.86-8.674-14.918-17.834-16.247a21.272,21.272,0,0,0-23.594,16.612,21.588,21.588,0,0,0-.132,8.131c.067.386.081.765-.407.867-.5.105-.678-.222-.752-.65A25.107,25.107,0,0,1,725.588-3146.91Z" transform="translate(0 0)" fill="#814904"/>
      <path id="Trazado_1575" data-name="Trazado 1575" d="M821.407-3087.283a13.131,13.131,0,0,1,13.128,10.837c.133.756.229,1.519.336,2.279.056.4-.067.722-.5.763s-.6-.236-.651-.644a15.933,15.933,0,0,0-1.1-4.85,11.736,11.736,0,0,0-9.381-7.086,12.091,12.091,0,0,0-13.68,10.7c-.017.146-.055.289-.062.435-.02.415-.207.673-.644.637-.459-.038-.538-.369-.508-.756a12.657,12.657,0,0,1,.391-2.268,13.239,13.239,0,0,1,11.3-9.965C820.534-3087.265,821.05-3087.262,821.407-3087.283Z" transform="translate(-73.646 -73.115)" fill="#814904"/>
      <path id="Trazado_1576" data-name="Trazado 1576" d="M952.268-3092.989a59.174,59.174,0,0,1-.868,9.782c-.019.108-.055.213-.074.321a.546.546,0,0,1-.711.5c-.383-.073-.48-.369-.429-.712.113-.76.257-1.516.36-2.277a48.345,48.345,0,0,0,.059-14.286,16.826,16.826,0,0,0-3.484-8.416,14.984,14.984,0,0,0-10.029-5.426q-.164-.019-.327-.042c-.383-.054-.616-.255-.568-.661s.342-.546.713-.506a15.018,15.018,0,0,1,2.219.367c6.487,1.7,10.526,5.836,12.174,12.318A34.937,34.937,0,0,1,952.268-3092.989Z" transform="translate(-187.446 -48.693)" fill="#814904"/>
      <path id="Trazado_1577" data-name="Trazado 1577" d="M781.374-3114.233c-.011.476-.291.6-.655.63a14.783,14.783,0,0,0-3.7.767,15.413,15.413,0,0,0-8.993,8.206,14.878,14.878,0,0,0-1.366,8.167,19.424,19.424,0,0,1-1.027,9.509c-.208.506-.444,1-.681,1.5a.6.6,0,0,1-.851.36c-.385-.192-.4-.536-.205-.893a16.5,16.5,0,0,0,1.614-9.98,16.7,16.7,0,0,1,4.127-13.268,15.7,15.7,0,0,1,10.174-5.436,8.7,8.7,0,0,1,.983-.1A.517.517,0,0,1,781.374-3114.233Z" transform="translate(-33.989 -48.65)" fill="#814904"/>
      <path id="Trazado_1578" data-name="Trazado 1578" d="M877.556-3020.292c.025-1.758.107-3.517-.006-5.273a5.876,5.876,0,0,0-4.384-5.308,6.27,6.27,0,0,0-6.814,2.494,4.612,4.612,0,0,0-.707,2.828c.029.433-.038.8-.553.822s-.616-.375-.625-.788a6.069,6.069,0,0,1,3.419-5.816,7.247,7.247,0,0,1,10.73,4.92,7.8,7.8,0,0,1,.157,1.637c-.019,3.241.076,6.484-.1,9.724,0,.073,0,.146-.006.219-.022.393-.231.63-.623.612a.541.541,0,0,1-.536-.633c.015-.6.042-1.208.045-1.812C877.561-3017.875,877.556-3019.084,877.556-3020.292Z" transform="translate(-123.607 -122.067)" fill="#814904"/>
      <path id="Trazado_1579" data-name="Trazado 1579" d="M800.33-3136.557a.728.728,0,0,1,.306-.557,18.784,18.784,0,0,1,10.748-5.513,19.286,19.286,0,0,1,15.249,4.036,18.079,18.079,0,0,1,2.056,1.9c.387.411.452.811.139,1.045-.4.3-.708.1-1-.214a17.37,17.37,0,0,0-8.365-5.114,17.9,17.9,0,0,0-17.92,4.62c-.243.231-.464.49-.85.346A.514.514,0,0,1,800.33-3136.557Z" transform="translate(-66.523 -23.641)" fill="#814904"/>
      <path id="Trazado_1580" data-name="Trazado 1580" d="M832.988-3037.371c.152-1.046.323-2.037.383-3.043.13-2.179-.012-4.356-.062-6.532a10.749,10.749,0,0,1,1.873-6.689,10.118,10.118,0,0,1,6.094-4.1c.436-.1.85-.135.98.378.136.538-.293.662-.706.771a8.94,8.94,0,0,0-6.9,7.168,19.085,19.085,0,0,0-.112,4.982,30.651,30.651,0,0,1-.373,7.054c-.075.4-.237.656-.676.619C833.1-3036.8,832.993-3037.074,832.988-3037.371Z" transform="translate(-95.591 -99.356)" fill="#814904"/>
      <path id="Trazado_1581" data-name="Trazado 1581" d="M1068.446-3055.052c.014,1.815-.11,3.624-.227,5.434,0,.073-.014.146-.024.218-.055.4-.26.657-.693.594-.411-.06-.519-.365-.48-.733.176-1.641.23-3.29.255-4.937a29.39,29.39,0,0,0-1.366-10.722,20.185,20.185,0,0,0-2.271-4.433c-.093-.136-.192-.269-.276-.41a.561.561,0,0,1,.123-.826.565.565,0,0,1,.855.178,21.4,21.4,0,0,1,2.269,4.067,25.843,25.843,0,0,1,1.833,9.7C1068.458-3056.3,1068.446-3055.675,1068.446-3055.052Z" transform="translate(-300.525 -87.614)" fill="#814904"/>
      <path id="Trazado_1582" data-name="Trazado 1582" d="M745.669-3053.2a.528.528,0,0,1-.558-.732c1.176-2.893.812-5.91.743-8.9a19.154,19.154,0,0,1,3.757-11.864c.032-.045.068-.086.1-.13a.588.588,0,0,1,.9-.177c.326.247.278.568.052.871a18.174,18.174,0,0,0-1.706,2.747,18.41,18.41,0,0,0-1.916,9.622,21.227,21.227,0,0,1-.374,6.826c-.119.458-.293.9-.457,1.348A.543.543,0,0,1,745.669-3053.2Z" transform="translate(-17.335 -83.917)" fill="#814904"/>
      <path id="Trazado_1583" data-name="Trazado 1583" d="M928.628-2947.808a42.528,42.528,0,0,1-2.005,12.852,17.486,17.486,0,0,1-1.554,3.382c-.213.354-.488.587-.9.34s-.319-.606-.112-.954a24.3,24.3,0,0,0,2.745-8.4,60.64,60.64,0,0,0,.681-10.34c0-.128,0-.257,0-.385.024-.379.2-.633.608-.625a.542.542,0,0,1,.561.611c0,.732-.021,1.464-.029,2.2C928.624-2948.687,928.628-2948.247,928.628-2947.808Z" transform="translate(-176.494 -193.582)" fill="#814904"/>
      <path id="Trazado_1584" data-name="Trazado 1584" d="M892.415-2993.483a23.831,23.831,0,0,0-.321-4.864,4.97,4.97,0,0,1,.586-3.8,4.223,4.223,0,0,1,4.515-1.61,4.252,4.252,0,0,1,3,3.688c.026.415.007.823-.5.873s-.607-.312-.658-.747a3.068,3.068,0,0,0-2.292-2.714,2.983,2.983,0,0,0-3.154,1.278,3.5,3.5,0,0,0-.366,2.655,31.583,31.583,0,0,1,.372,7.276c-.019.285-.042.556-.315.715-.429.25-.863-.057-.863-.607Q892.414-2992.412,892.415-2993.483Z" transform="translate(-148.093 -147.323)" fill="#814904"/>
      <path id="Trazado_1585" data-name="Trazado 1585" d="M941.8-3046.622c0,.549,0,1.1,0,1.648,0,.4-.151.694-.593.692s-.579-.306-.582-.7a31.111,31.111,0,0,0-.371-5.2c-.8-4.548-3.487-7.155-8.057-7.76-.41-.054-.67-.249-.622-.67.051-.444.39-.514.779-.481a9.709,9.709,0,0,1,8.789,7.47A27.957,27.957,0,0,1,941.8-3046.622Z" transform="translate(-183.332 -98.199)" fill="#814904"/>
      <path id="Trazado_1586" data-name="Trazado 1586" d="M839.19-2944.7a29.859,29.859,0,0,1-1.374,8.97,33.724,33.724,0,0,1-2.142,4.86.631.631,0,0,1-.754.4.54.54,0,0,1-.417-.515.923.923,0,0,1,.2-.558,26.455,26.455,0,0,0,2.742-7.318,40.836,40.836,0,0,0,.586-8.364c0-.256-.016-.512-.017-.769a.574.574,0,0,1,.587-.653c.367-.008.553.241.577.6A30.041,30.041,0,0,1,839.19-2944.7Z" transform="translate(-96.935 -196.505)" fill="#814904"/>
      <path id="Trazado_1587" data-name="Trazado 1587" d="M1032.8-2935.532a71.615,71.615,0,0,1-1.168,11.462c-.016.09-.031.18-.046.271-.07.418-.233.776-.738.674s-.493-.5-.415-.913a70.065,70.065,0,0,0,1.195-14.1c0-.092-.01-.184-.006-.275.02-.38.189-.639.6-.636a.543.543,0,0,1,.575.6C1032.809-2937.473,1032.8-2936.5,1032.8-2935.532Z" transform="translate(-271.29 -205.053)" fill="#814904"/>
      <path id="Trazado_1588" data-name="Trazado 1588" d="M788.827-2948.646A18.332,18.332,0,0,1,786.4-2938a2.217,2.217,0,0,1-.266.413.538.538,0,0,1-.7.115.509.509,0,0,1-.274-.6,1.787,1.787,0,0,1,.216-.5,17.03,17.03,0,0,0,2.329-8.968c-.032-1.189-.047-2.379-.071-3.569-.008-.409.025-.8.554-.84.414-.033.628.254.631.832C788.831-2950.22,788.827-2949.323,788.827-2948.646Z" transform="translate(-53.014 -193.566)" fill="#814904"/>
      <path id="Trazado_1589" data-name="Trazado 1589" d="M998.151-2906.812A50.428,50.428,0,0,1,996.8-2896.5c-.15.583-.359,1.151-.527,1.729-.116.4-.362.605-.771.486-.437-.126-.472-.481-.345-.843a32.156,32.156,0,0,0,1.434-6.741c.247-1.98.357-3.97.452-5.962.037-.779.217-1.026.652-.993s.566.323.527,1.08C998.2-2907.432,998.173-2907.122,998.151-2906.812Z" transform="translate(-239.867 -231.95)" fill="#814904"/>
      <path id="Trazado_1590" data-name="Trazado 1590" d="M866.252-2867.933a22.864,22.864,0,0,1-2.609,8.086c-.268.477-.57.936-.866,1.4-.214.334-.514.5-.878.258s-.333-.575-.105-.909a20.736,20.736,0,0,0,3.266-8.753c.011-.072.034-.143.041-.216.04-.391.261-.627.648-.581A.567.567,0,0,1,866.252-2867.933Z" transform="translate(-121.079 -267.703)" fill="#814904"/>
      <path id="Trazado_1591" data-name="Trazado 1591" d="M917.9-2909.649a43.8,43.8,0,0,1-1.115,7.862c-.017.071-.031.143-.048.214-.091.371-.317.6-.707.514a.575.575,0,0,1-.435-.8,37.558,37.558,0,0,0,.87-4.8c.134-1.126.246-2.254.291-3.388a3.749,3.749,0,0,1,.034-.547.55.55,0,0,1,.612-.5.537.537,0,0,1,.546.57A8.126,8.126,0,0,1,917.9-2909.649Z" transform="translate(-169.083 -229.929)" fill="#814904"/>
      <path id="Trazado_1592" data-name="Trazado 1592" d="M958.354-2844.274c.035-.1.088-.272.158-.439a33.9,33.9,0,0,0,2.283-7.809c.068-.421.222-.774.729-.682s.5.476.431.895a36.262,36.262,0,0,1-2.323,7.972,2.311,2.311,0,0,1-.244.486.517.517,0,0,1-.632.193A.592.592,0,0,1,958.354-2844.274Z" transform="translate(-207.172 -281.442)" fill="#814904"/>
      <path id="Trazado_1593" data-name="Trazado 1593" d="M811.049-2850.255c-.021.072-.063.229-.114.383a22.7,22.7,0,0,1-1.883,4.065c-.208.364-.5.575-.9.348-.372-.213-.347-.56-.148-.906a22.092,22.092,0,0,0,1.9-4.117.572.572,0,0,1,.721-.424C810.922-2850.846,811.049-2850.639,811.049-2850.255Z" transform="translate(-73.229 -283.486)" fill="#814904"/>
      <path id="Trazado_1594" data-name="Trazado 1594" d="M893.788-2803.212a.549.549,0,0,1-.532-.839,21.342,21.342,0,0,0,1.69-3.486.511.511,0,0,1,.728-.287.534.534,0,0,1,.336.712,16.013,16.013,0,0,1-1.745,3.637A.511.511,0,0,1,893.788-2803.212Z" transform="translate(-149.151 -321.796)" fill="#814904"/>
      <path id="Trazado_1595" data-name="Trazado 1595" d="M925.563-2967.8c0,.238.008.477,0,.714a.558.558,0,0,1-.583.6.526.526,0,0,1-.564-.55,32.489,32.489,0,0,0-.331-3.828.519.519,0,0,1,.514-.645c.364-.032.568.191.639.545A25.888,25.888,0,0,1,925.563-2967.8Z" transform="translate(-176.659 -176.152)" fill="#814904"/>
    </g>
  </g>
</svg>
