<svg xmlns="http://www.w3.org/2000/svg" xmlns:xlink="http://www.w3.org/1999/xlink" width="92" height="92" viewBox="0 0 92 92">
  <defs>
    <filter id="Elipse_147" x="0" y="0" width="92" height="92" filterUnits="userSpaceOnUse">
      <feOffset dx="3" dy="9" input="SourceAlpha"/>
      <feGaussianBlur stdDeviation="3" result="blur"/>
      <feFlood flood-opacity="0.161"/>
      <feComposite operator="in" in2="blur"/>
      <feComposite in="SourceGraphic"/>
    </filter>
  </defs>
  <g id="Componente_108_2" data-name="Componente 108 – 2" transform="translate(6)">
    <g transform="matrix(1, 0, 0, 1, -6, 0)" filter="url(#Elipse_147)">
      <circle id="Elipse_147-2" data-name="Elipse 147" cx="37" cy="37" r="37" transform="translate(6)" fill="#ffb714"/>
    </g>
    <g id="Grupo_2105" data-name="Grupo 2105" transform="translate(-2946.742 3289.346)">
      <path id="Trazado_1516" data-name="Trazado 1516" d="M3001.532-3274.245a2.979,2.979,0,0,1,1.834,2.255,17.48,17.48,0,0,1,.61,5.039c0,.347.116.806-.059,1.011-.208.244-.683.072-1.041.079q-1.157.021-2.315,0c-.243,0-.306.057-.307.313-.01,2.645-.014,5.291-.125,7.934-.081,1.933-.177,3.864-.324,5.793-.141,1.855-.3,3.706-.548,5.548a35.544,35.544,0,0,1-2.035,8.859,6.412,6.412,0,0,1-1.7,2.544,3.142,3.142,0,0,1-2.133.732c-2.067,0-4.135,0-6.2-.021-.328,0-.464.068-.547.424a3.9,3.9,0,0,1-2.141,2.9,4.881,4.881,0,0,1-2.077.391q-8.386-.007-16.772-.009c-1.995,0-3.989-.009-5.984.007-.339,0-.462-.081-.433-.43.032-.391.012-.786.011-1.179,0-.144.009-.245.2-.251,1.434-.045,2.026-.864,2.245-2.491.189-1.406.039-2.82.105-4.229a9.816,9.816,0,0,1,.328-2.452,2.7,2.7,0,0,1,2.68-2.01c2.723,0,5.446-.008,8.169.009.332,0,.448-.107.5-.412.281-1.835.536-3.674.731-5.521q.314-2.971.489-5.953c.142-2.439.241-4.881.31-7.325.072-2.562.053-5.124.08-7.685a5.2,5.2,0,0,1,.669-2.578,2.733,2.733,0,0,1,1.761-1.292Zm-2.823,1.857h-.439l-19.831-.008c-.9,0-1.159.215-1.375,1.107a8.675,8.675,0,0,0-.092,2.041q-.026,5.632-.261,11.259c-.065,1.54-.152,3.08-.277,4.617-.142,1.751-.287,3.5-.5,5.247-.166,1.383-.341,2.763-.58,4.135-.088.5-.1.5.413.5q6.2,0,12.407,0a2.679,2.679,0,0,1,2.884,2.582c.111.931.025,1.862.079,2.791.043.72.12,1.5.917,1.783,1.526.547,2.219.46,2.994-.857a13.523,13.523,0,0,0,1.406-3.858,66.293,66.293,0,0,0,1.33-9.248c.246-2.8.385-5.6.488-8.4.124-3.361.137-6.724.108-10.087A8.788,8.788,0,0,1,2998.709-3272.388Zm-35.834,40.063c.1.009.163.02.23.02q9.786,0,19.573,0a1.978,1.978,0,0,0,2.073-1.576,12.37,12.37,0,0,0,.29-3.635,15.052,15.052,0,0,1,.263-3.685c.094-.391.044-.445-.337-.443-3.7.013-7.394.007-11.091.009q-4.346,0-8.693.007c-.971,0-1.253.259-1.4,1.21a17.2,17.2,0,0,0-.1,2.477C2963.658-3236.046,2963.763-3234.131,2962.875-3232.324Zm26.855-3.723a5.126,5.126,0,0,1-.439-1.854q-.018-1.392-.086-2.785c-.017-.348-.085-.734-.486-.841-.8-.216-1.435-.135-1.61.816-.026.141-.062.282-.083.425-.195,1.314-.031,2.637-.1,3.955-.013.242.095.29.308.287C2988.044-3236.052,2988.857-3236.047,2989.73-3236.047Zm10.506-33.382c0,.48.005.96,0,1.44,0,.2.073.29.281.285.436-.011.873-.017,1.309-.007.24.005.238-.122.239-.3a13.492,13.492,0,0,0-.208-2.164,7.055,7.055,0,0,0-.481-1.842c-.064-.141-.121-.314-.312-.324a.49.49,0,0,0-.457.282,2.7,2.7,0,0,0-.3.767A8.522,8.522,0,0,0,3000.236-3269.429Z" transform="translate(0)" fill="#8e5207"/>
      <path id="Trazado_1517" data-name="Trazado 1517" d="M3190.89-2965.136q3.1,0,6.2,0a1.424,1.424,0,0,1,.795.176.855.855,0,0,1,.415.851.878.878,0,0,1-.6.788,1.785,1.785,0,0,1-.6.083q-6.247,0-12.494,0a2.273,2.273,0,0,1-.305-.009.928.928,0,0,1-.907-.977.94.94,0,0,1,.983-.9c.465-.017.931,0,1.4,0Z" transform="translate(-204.584 -282.095)" fill="#8e5207"/>
      <path id="Trazado_1518" data-name="Trazado 1518" d="M3201.393-3050.277h6.377c.665,0,1.062.351,1.063.933s-.377.924-1.065.924q-6.354,0-12.709,0c-.884,0-1.374-.655-1.018-1.344a.942.942,0,0,1,.93-.515C3197.113-3050.274,3199.253-3050.277,3201.393-3050.277Z" transform="translate(-214.192 -204.395)" fill="#8e5207"/>
      <path id="Trazado_1519" data-name="Trazado 1519" d="M3201.165-3091.212q-2.9,0-5.8,0c-.618,0-1.039-.3-1.1-.766a.939.939,0,0,1,.915-1.125c.087-.007.174,0,.261,0q5.782,0,11.563,0a1.149,1.149,0,0,1,1.044.413.873.873,0,0,1,.071.948.954.954,0,0,1-.886.532c-.538.011-1.076,0-1.615,0Z" transform="translate(-214.49 -165.309)" fill="#8e5207"/>
      <path id="Trazado_1520" data-name="Trazado 1520" d="M3200.561-3005.627q-2.773,0-5.545,0a.888.888,0,0,1-.865-.549.909.909,0,0,1,.1-.949.909.909,0,0,1,.8-.356c2.459,0,4.918,0,7.378,0q1.812,0,3.624.007c.682,0,1.071.347,1.062.931a.961.961,0,0,1-1.091.918Z" transform="translate(-214.315 -243.453)" fill="#8e5207"/>
      <path id="Trazado_1521" data-name="Trazado 1521" d="M3232.094-3133.574q-2.555,0-5.11,0a.886.886,0,0,1-.88-.593.9.9,0,0,1,.175-.977.893.893,0,0,1,.7-.283q5.088,0,10.175,0a.869.869,0,0,1,.979.957.912.912,0,0,1-1.019.889Q3234.6-3133.572,3232.094-3133.574Z" transform="translate(-243.493 -126.69)" fill="#8e5207"/>
      <path id="Trazado_1522" data-name="Trazado 1522" d="M3207.4-3178.265c.61,0,1.22-.006,1.83,0a.9.9,0,0,1,.942.917.866.866,0,0,1-.918.931q-1.851.021-3.7,0a.937.937,0,0,1-.968-.954.955.955,0,0,1,1.03-.895C3206.2-3178.268,3206.8-3178.265,3207.4-3178.265Z" transform="translate(-223.915 -87.592)" fill="#8e5207"/>
    </g>
  </g>
</svg>
