<svg xmlns="http://www.w3.org/2000/svg" xmlns:xlink="http://www.w3.org/1999/xlink" width="92" height="92" viewBox="0 0 92 92">
  <defs>
    <filter id="Elipse_148" x="0" y="0" width="92" height="92" filterUnits="userSpaceOnUse">
      <feOffset dx="3" dy="9" input="SourceAlpha"/>
      <feGaussianBlur stdDeviation="3" result="blur"/>
      <feFlood flood-opacity="0.161"/>
      <feComposite operator="in" in2="blur"/>
      <feComposite in="SourceGraphic"/>
    </filter>
  </defs>
  <g id="Componente_106_2" data-name="Componente 106 – 2" transform="translate(6)">
    <g transform="matrix(1, 0, 0, 1, -6, 0)" filter="url(#Elipse_148)">
      <circle id="Elipse_148-2" data-name="Elipse 148" cx="37" cy="37" r="37" transform="translate(6)" fill="#ffb714"/>
    </g>
    <g id="Grupo_2103" data-name="Grupo 2103" transform="matrix(0.052, 0.999, -0.999, 0.052, -3364.726, 1214.854)" style="isolation: isolate">
      <path id="Trazado_1376" data-name="Trazado 1376" d="M-815.927-3466.03A13.039,13.039,0,0,1-829.307-3453a13.062,13.062,0,0,1-12.663-13.343A13.018,13.018,0,0,1-828.5-3479.05,13.077,13.077,0,0,1-815.927-3466.03Zm-12.913,7.83a4.877,4.877,0,0,1,2,.349c1.494.589,2.488.356,3.278-.74a3.843,3.843,0,0,0-.241-4.458,2.042,2.042,0,0,0-1.59-.77.634.634,0,0,1-.661-.408,6.111,6.111,0,0,0-1.034-1.495,2.607,2.607,0,0,0-3.9-.019,6.2,6.2,0,0,0-1.079,1.593.5.5,0,0,1-.488.326,2.184,2.184,0,0,0-1.737,1.02,3.546,3.546,0,0,0-.58,2.915c.345,1.558,1.4,2.8,3.334,2.195A7.275,7.275,0,0,1-828.839-3458.2Zm5.708-13.159a3.621,3.621,0,0,0-.342-1.668,2.36,2.36,0,0,0-3.928-.8,4.044,4.044,0,0,0-.55,4.934,2.275,2.275,0,0,0,3.448.545A3.764,3.764,0,0,0-823.131-3471.359Zm-6.246.382a4.054,4.054,0,0,0-.831-2.446,2.368,2.368,0,0,0-4.241.563,3.871,3.871,0,0,0,.646,4.122,2.325,2.325,0,0,0,3.995-.436A3.871,3.871,0,0,0-829.377-3470.977Zm10.156,4.38a3.573,3.573,0,0,0-.237-1.379,2.068,2.068,0,0,0-2.791-1.243,3.423,3.423,0,0,0-1.186,5.068,2,2,0,0,0,2.582.4A3.386,3.386,0,0,0-819.222-3466.6Zm-19.459-.112a3.4,3.4,0,0,0,1.417,2.826,2.057,2.057,0,0,0,3.2-.922,3.408,3.408,0,0,0-.631-3.7,2.131,2.131,0,0,0-2.342-.808,2.333,2.333,0,0,0-1.6,2.032A5.434,5.434,0,0,0-838.681-3466.709Z" transform="translate(-160.905 0)" fill="#8e5207"/>
      <path id="Trazado_1377" data-name="Trazado 1377" d="M-1004.052-3453.324a2.232,2.232,0,0,1-.64,1.658c-.243.247-.207.4.028.605a6.508,6.508,0,0,1,.675.69.712.712,0,0,1-.036,1.055.7.7,0,0,1-1.015.044,3.476,3.476,0,0,1-.617-.594c-.307-.393-.53-.3-.845.017q-3.721,3.757-7.476,7.479c-.267.264-.289.414-.008.678.674.636,1.324,1.3,1.969,1.964.2.211.336.236.553.006.563-.6,1.153-1.171,1.734-1.751.492-.493.938-.565,1.3-.219s.32.765-.191,1.3c-.567.591-1.141,1.177-1.738,1.739-.259.244-.2.4.019.607.465.445.927.9,1.368,1.364.227.24.387.231.612,0,.581-.606,1.181-1.2,1.777-1.789.448-.446.917-.484,1.263-.11a.77.77,0,0,1-.1,1.144c-.6.616-1.2,1.232-1.823,1.82-.285.267-.255.44.012.686.434.4.854.816,1.253,1.252.268.293.455.354.759.019.553-.609,1.153-1.174,1.742-1.75.425-.415.894-.448,1.223-.106s.29.777-.148,1.22c-.591.6-1.18,1.2-1.786,1.782-.229.22-.257.379-.013.611.481.454.944.928,1.4,1.406.208.216.361.209.571-.008.622-.643,1.262-1.268,1.9-1.9a.792.792,0,0,1,.885-.21.732.732,0,0,1,.474.6.828.828,0,0,1-.317.757c-.593.6-1.179,1.2-1.787,1.78-.259.248-.311.416-.013.682.466.417.9.87,1.328,1.328.238.256.4.261.648,0,.577-.61,1.179-1.2,1.782-1.785.44-.428.888-.464,1.222-.125s.285.8-.136,1.228c-.578.586-1.15,1.179-1.752,1.739-.3.28-.286.459.014.724.4.354.755.762,1.14,1.136a1.357,1.357,0,0,0,2.048.01c2.068-2.055,4.124-4.123,6.187-6.182a1.413,1.413,0,0,0,.355-1.619.775.775,0,0,1,.422-1.1.8.8,0,0,1,1.037.589,2.766,2.766,0,0,1-.706,3.194c-.424.4-.415.643.018,1a11.912,11.912,0,0,1,1.024,1.023,2.084,2.084,0,0,1-.012,3.175c-.391.378-.4.577,0,.961,1.693,1.645,3.349,3.331,5.022,5a.941.941,0,0,1,.382.839.745.745,0,0,1-.53.616.787.787,0,0,1-.865-.275l-3.832-3.834c-.468-.468-.951-.921-1.4-1.4-.241-.257-.418-.267-.653,0a2.28,2.28,0,0,1-1.451.845,2.084,2.084,0,0,1-1.773-.583c-.423-.413-.851-.82-1.246-1.258-.282-.313-.477-.3-.765.005a2.889,2.889,0,0,1-3.223.84,2.826,2.826,0,0,1-1.117-.721q-6.943-6.947-13.888-13.895-1.587-1.588-3.163-3.187c-.267-.271-.46-.386-.828-.061a2.388,2.388,0,0,1-3.3-.169,2.363,2.363,0,0,1-.052-3.3c1.5-1.561,3.037-3.084,4.581-4.6.321-.315.331-.492,0-.8-.656-.607-1.284-1.247-1.9-1.9-.271-.29-.446-.3-.728-.009-.87.9-1.764,1.778-2.654,2.659a1.357,1.357,0,0,1-2,.151,1.344,1.344,0,0,1,.119-2q3.58-3.6,7.173-7.176a1.313,1.313,0,0,1,1.956-.083,1.3,1.3,0,0,1-.094,1.95c-.9.918-1.812,1.833-2.737,2.729-.258.25-.248.4,0,.644.659.631,1.311,1.271,1.929,1.941.306.331.5.321.807,0q2.18-2.223,4.4-4.4a2.417,2.417,0,0,1,3.466-.149A2.323,2.323,0,0,1-1004.052-3453.324Z" transform="translate(0 -18.613)" fill="#8e5207"/>
      <path id="Trazado_1378" data-name="Trazado 1378" d="M-980.167-3241.2a.719.719,0,0,1-.57-.248c-.337-.378-.226-.822.34-1.379.479-.471.891-.537,1.264-.207a.7.7,0,0,1,.245.516A1.657,1.657,0,0,1-980.167-3241.2Z" transform="translate(-36.875 -210.482)" fill="#8e5207"/>
      <path id="Trazado_1379" data-name="Trazado 1379" d="M-1005.517-3241.172a1.743,1.743,0,0,1-1.289-1.264.749.749,0,0,1,.783-.773,1.757,1.757,0,0,1,1.257,1.235A.752.752,0,0,1-1005.517-3241.172Z" transform="translate(-13.776 -210.511)" fill="#8e5207"/>
      <path id="Trazado_1380" data-name="Trazado 1380" d="M-1005.5-3217.315a.733.733,0,0,1,.721.99,1.834,1.834,0,0,1-1,1,.732.732,0,0,1-.992-.716A1.688,1.688,0,0,1-1005.5-3217.315Z" transform="translate(-13.808 -233.625)" fill="#8e5207"/>
      <path id="Trazado_1381" data-name="Trazado 1381" d="M-978.871-3216.053a.776.776,0,0,1-.791.771,1.765,1.765,0,0,1-1.246-1.254.732.732,0,0,1,.76-.786A1.68,1.68,0,0,1-978.871-3216.053Z" transform="translate(-36.892 -233.619)" fill="#8e5207"/>
      <path id="Trazado_1382" data-name="Trazado 1382" d="M-903.353-3147.937a.822.822,0,0,1-.784.788,1.039,1.039,0,0,1-.919-.948.8.8,0,0,1,.749-.764A1.09,1.09,0,0,1-903.353-3147.937Z" transform="translate(-104.596 -294.725)" fill="#8e5207"/>
      <path id="Trazado_1383" data-name="Trazado 1383" d="M-882.932-3127.251a.984.984,0,0,1,.928.92.788.788,0,0,1-.736.773,1.058,1.058,0,0,1-.959-.911A.754.754,0,0,1-882.932-3127.251Z" transform="translate(-123.661 -314.015)" fill="#8e5207"/>
      <path id="Trazado_1384" data-name="Trazado 1384" d="M-903.33-3126.532a1.081,1.081,0,0,1-.928.952.767.767,0,0,1-.772-.729.985.985,0,0,1,.885-.966A.776.776,0,0,1-903.33-3126.532Z" transform="translate(-104.62 -313.993)" fill="#8e5207"/>
      <path id="Trazado_1385" data-name="Trazado 1385" d="M-882-3148.032a1,1,0,0,1-.934.919.765.765,0,0,1-.762-.737,1.028,1.028,0,0,1,.908-.954A.785.785,0,0,1-882-3148.032Z" transform="translate(-123.665 -294.778)" fill="#8e5207"/>
    </g>
  </g>
</svg>
