<svg xmlns="http://www.w3.org/2000/svg" xmlns:xlink="http://www.w3.org/1999/xlink" width="92" height="92" viewBox="0 0 92 92">
  <defs>
    <filter id="Elipse_146" x="0" y="0" width="92" height="92" filterUnits="userSpaceOnUse">
      <feOffset dx="3" dy="9" input="SourceAlpha"/>
      <feGaussianBlur stdDeviation="3" result="blur"/>
      <feFlood flood-opacity="0.161"/>
      <feComposite operator="in" in2="blur"/>
      <feComposite in="SourceGraphic"/>
    </filter>
  </defs>
  <g id="Componente_105_2" data-name="Componente 105 – 2" transform="translate(6)">
    <g transform="matrix(1, 0, 0, 1, -6, 0)" filter="url(#Elipse_146)">
      <circle id="Elipse_146-2" data-name="Elipse 146" cx="37" cy="37" r="37" transform="translate(6)" fill="#ffb714"/>
    </g>
    <g id="Grupo_2102" data-name="Grupo 2102" transform="translate(820.512 3641.152)">
      <path id="Trazado_1386" data-name="Trazado 1386" d="M-787.806-3592.132a33.54,33.54,0,0,1,.453-6.01c.066-.412-.053-.541-.4-.674a26.565,26.565,0,0,1-8.5-5.2c-.285-.262-.656-.478-.557-.989.037-.188-.2-.309-.332-.447a18.983,18.983,0,0,1-4.676-8.214,11.355,11.355,0,0,1,.581-8.292,7.271,7.271,0,0,1,6.733-4.319,6.219,6.219,0,0,1,1.761.255,7.451,7.451,0,0,0,1.658.273,4.482,4.482,0,0,1,2.7,1.266c.421.381.351.96-.078,1.578a1.076,1.076,0,0,1-1.432.4,5.057,5.057,0,0,1-2.3-1.75c-.1-.174-.275-.2-.434-.266a5.832,5.832,0,0,0-7.011,2.536,9.146,9.146,0,0,0-1.154,6.321,16.932,16.932,0,0,0,4.713,9.3c.145.156.277.292.538.206s.453.116.634.285a25.016,25.016,0,0,0,8.271,5.067,1.3,1.3,0,0,0,1.005.006,25.042,25.042,0,0,0,8.235-5.029c.2-.189.387-.42.722-.324.17.049.253-.084.346-.185a16.268,16.268,0,0,0,4.837-10.436c.138-2.752-.585-5.22-2.893-6.971a5.467,5.467,0,0,0-5.418-.757c-.127.044-.276.063-.352.2a4.987,4.987,0,0,1-2.234,1.753,1.124,1.124,0,0,1-1.609-.5,1.107,1.107,0,0,1,.28-1.693,8.925,8.925,0,0,1,2.072-1,.3.3,0,0,1,.153-.03c.917.209,1.723-.281,2.585-.411a7.261,7.261,0,0,1,7.51,3.718,10.693,10.693,0,0,1,1.165,7.211,18.293,18.293,0,0,1-4.933,9.726c-.193.21-.44.373-.288.754.092.229-.176.4-.338.549a25.731,25.731,0,0,1-7.225,4.792c-.605.274-1.227.512-1.841.764-.162.067-.312.112-.346.337-.635,4.268-.934,8.527.322,12.745a9.342,9.342,0,0,0,.977,2.2,6.075,6.075,0,0,0,10.447.437,12.275,12.275,0,0,0,2.035-5.123c.071-.379-.119-.47-.4-.591a5.127,5.127,0,0,1-3.139-4.8,5.154,5.154,0,0,1,3.536-4.791,5.137,5.137,0,0,1,6.522,3.46,5.1,5.1,0,0,1-3.7,6.375.881.881,0,0,0-.807.854,12.615,12.615,0,0,1-3.123,6.759,7.787,7.787,0,0,1-6.823,2.664,8.33,8.33,0,0,1-6.677-4.757,18.329,18.329,0,0,1-1.777-7.6C-787.831-3591.045-787.806-3591.589-787.806-3592.132Zm17.976,2.3a3.536,3.536,0,0,0,3.556-3.571,3.533,3.533,0,0,0-3.549-3.521,3.55,3.55,0,0,0-3.565,3.514A3.566,3.566,0,0,0-769.83-3589.832Z" transform="translate(0 -0.001)" fill="#8e5207"/>
      <path id="Trazado_1387" data-name="Trazado 1387" d="M-692.719-3510.364a5.261,5.261,0,0,1,3.862,2.6,5,5,0,0,1,.95,2.789,2.4,2.4,0,0,1-3.261,2.528,3.685,3.685,0,0,1-1.2-.514,1.16,1.16,0,0,0-1.491,0,3.872,3.872,0,0,1-1.711.618,2.327,2.327,0,0,1-2.723-2.061C-698.668-3507.145-695.866-3510.365-692.719-3510.364Z" transform="translate(-93.075 -103.742)" fill="#8e5207"/>
      <path id="Trazado_1388" data-name="Trazado 1388" d="M-642.435-3560.509a2.584,2.584,0,0,1,.9-2.04,1.5,1.5,0,0,1,2.223.235,2.835,2.835,0,0,1-.3,3.64,1.527,1.527,0,0,1-2.34-.212A2.522,2.522,0,0,1-642.435-3560.509Z" transform="translate(-143.096 -56.693)" fill="#8e5207"/>
      <path id="Trazado_1389" data-name="Trazado 1389" d="M-686.025-3560.419a2.364,2.364,0,0,1-.681,1.756,1.491,1.491,0,0,1-2,.119,2.79,2.79,0,0,1-.394-3.814,1.5,1.5,0,0,1,2.153-.195A2.592,2.592,0,0,1-686.025-3560.419Z" transform="translate(-100.813 -56.707)" fill="#8e5207"/>
      <path id="Trazado_1390" data-name="Trazado 1390" d="M-602.227-3528.819a2.687,2.687,0,0,1-1.009,2.125,1.458,1.458,0,0,1-2.2-.449,2.66,2.66,0,0,1,.544-3.164,1.449,1.449,0,0,1,1.647-.307A1.948,1.948,0,0,1-602.227-3528.819Z" transform="translate(-175.939 -85.494)" fill="#8e5207"/>
      <path id="Trazado_1391" data-name="Trazado 1391" d="M-722.918-3526.283c-.024,0-.093-.008-.162-.016a2.155,2.155,0,0,1-1.664-1.748,2.209,2.209,0,0,1,.759-2.389,1.457,1.457,0,0,1,1.666.1,2.616,2.616,0,0,1,.625,3.384A1.415,1.415,0,0,1-722.918-3526.283Z" transform="translate(-69.366 -85.585)" fill="#8e5207"/>
      <path id="Trazado_1392" data-name="Trazado 1392" d="M-511.608-3329.407a2.171,2.171,0,0,1-2.166-2.226,2.188,2.188,0,0,1,2.219-2.127,2.153,2.153,0,0,1,2.153,2.23A2.153,2.153,0,0,1-511.608-3329.407Z" transform="translate(-258.244 -261.798)" fill="#8e5207"/>
    </g>
  </g>
</svg>
