<svg xmlns="http://www.w3.org/2000/svg" width="461.966" height="464.27" viewBox="0 0 461.966 464.27">
  <g id="profundidad" transform="translate(-677.066 -308.219)">
    <g id="profundidad-2" data-name="profundidad" transform="translate(677.072 308.219)">
      <g id="Grupo_3" data-name="Grupo 3" transform="translate(-0.006)" opacity="0.12">
        <path id="Trazado_1" data-name="Trazado 1" d="M5.653,37.1H.3c19.883,89.472,91,159.825,181.237,178.179v-5.353C94.36,191.572,25.536,123.513,5.653,37.1Z" transform="translate(2.042 246.609)" fill="#fff" opacity="0.56"/>
        <path id="Trazado_2" data-name="Trazado 2" d="M37.8,207.631v5.353A233.7,233.7,0,0,0,208.331,37.1h-5.353A229.7,229.7,0,0,1,37.8,207.631Z" transform="translate(251.31 246.609)" fill="#fff" opacity="0.8"/>
        <path id="Trazado_3" data-name="Trazado 3" d="M180.873,5.753V.4C92.166,18.753,21.047,87.577.4,175.52H5.753A229.515,229.515,0,0,1,180.873,5.753Z" transform="translate(2.707 2.659)" fill="#fff" opacity="0.76"/>
        <rect id="Rectángulo_1" data-name="Rectángulo 1" width="8.412" height="10.706" transform="translate(181.285)" fill="#fff" opacity="0.66"/>
        <g id="Grupo_2" data-name="Grupo 2" transform="translate(282.228 1.529)" opacity="0.89">
          <rect id="Rectángulo_2" data-name="Rectángulo 2" width="8.412" height="10.706" fill="#fff"/>
          <g id="Grupo_1" data-name="Grupo 1" transform="translate(6.882 3.824)">
            <path id="Trazado_4" data-name="Trazado 4" d="M202.214,173.526h5.353C187.684,89.407,121.154,22.112,37.8.7V6.053C118.86,27.465,182.331,92.466,202.214,173.526Z" transform="translate(-37.8 -0.7)" fill="#fff"/>
            <rect id="Rectángulo_3" data-name="Rectángulo 3" width="10.706" height="8.412" transform="translate(162.057 172.113) rotate(-0.641)" fill="#fff"/>
          </g>
        </g>
        <path id="Trazado_5" data-name="Trazado 5" d="M69.706,36.3v8.412H59V36.3Z" transform="translate(392.23 241.291)" fill="#fff" opacity="0.73"/>
        <rect id="Rectángulo_4" data-name="Rectángulo 4" width="10.706" height="8.412" transform="translate(0 277.645) rotate(-0.663)" fill="#fff" opacity="0.42"/>
        <rect id="Rectángulo_5" data-name="Rectángulo 5" width="8.412" height="10.706" transform="translate(180.438 453.565) rotate(-0.954)" fill="#fff" opacity="0.64"/>
        <rect id="Rectángulo_6" data-name="Rectángulo 6" width="8.412" height="10.706" transform="translate(282.148 452.035) rotate(-0.948)" fill="#fff" opacity="0.4"/>
        <rect id="Rectángulo_7" data-name="Rectángulo 7" width="10.706" height="8.412" transform="translate(0 175.941) rotate(-0.662)" fill="#fff" opacity="0.44"/>
        <path id="Trazado_6" data-name="Trazado 6" d="M195.043,418.44a103.637,103.637,0,0,1-15.294-1.529l3.059-22.177c4.588.765,9.177.765,13,1.529Zm44.354-1.529-3.059-22.177a27.169,27.169,0,0,0,7.647-1.529l3.824,22.177A27.49,27.49,0,0,1,239.4,416.911Zm-80.3-3.824a212.432,212.432,0,0,1-60.412-26l12.235-19.118a174.445,174.445,0,0,0,53.53,22.941Zm104-.765-6.118-22.177a197.278,197.278,0,0,0,53.53-23.706l12.235,19.118A183.08,183.08,0,0,1,263.1,412.322ZM86.454,377.91c-2.294-1.529-4.588-3.824-6.882-5.353L94.1,354.969c2.294,1.529,3.824,3.059,6.118,4.588Zm253.885-4.588-14.53-17.588a114.408,114.408,0,0,0,9.941-8.412l15.294,16.824A133.147,133.147,0,0,1,340.339,373.322ZM47.453,340.439c-3.059-3.824-6.118-7.647-9.177-12.235l19.118-13a129.728,129.728,0,0,0,7.647,10.706Zm334.18-10.706-18.353-13,4.588-6.882,19.118,12.235C384.693,324.38,383.163,327.439,381.634,329.733ZM27.571,310.615A200.3,200.3,0,0,1,5.394,248.674l22.177-3.824c3.824,19.118,9.941,38.236,19.883,55.059Zm366.3-1.529L373.987,298.38c9.177-17.588,16.059-35.942,19.118-55.06l22.177,3.824C411.458,268.556,404.575,289.968,393.869,309.086Zm-390-75.707c0-3.059-.765-6.118-.765-9.177l22.177-.765c0,3.059.765,5.353.765,7.647Zm414.475-7.647L395.4,224.2c0-4.588.765-9.177.765-13H419.1A92.544,92.544,0,0,0,418.34,225.732ZM395.4,205.085a205.745,205.745,0,0,0-10.706-57.354l21.412-7.647c7.647,20.647,11.471,42.824,12.235,65ZM26.806,182.908,4.629,179.849c.765-4.588,1.529-9.941,3.059-14.53l22.177,4.588A104.272,104.272,0,0,0,26.806,182.908Zm7.647-30.589-21.412-6.882A211.538,211.538,0,0,1,43.63,87.319l18.353,13.765C49.748,115.613,40.571,133.2,34.453,152.319Zm342.592-22.177c-2.294-3.824-3.824-7.647-6.118-11.471L390.81,107.2c2.294,4.588,4.588,9.177,6.882,13ZM70.395,89.613,53.571,75.083c2.294-2.294,3.824-4.588,6.118-6.882L76.513,83.5Zm276.827-3.059c-1.529-2.294-3.824-3.824-5.353-6.118l16.059-16.059a49.476,49.476,0,0,1,6.118,6.882ZM331.927,71.26a176.524,176.524,0,0,0-49.706-31.353L291.4,19.259c20.647,8.412,39,20.647,55.824,35.177ZM106.337,57.495l-13-19.118c3.824-3.059,8.412-5.353,13-7.647l11.471,19.883ZM133.866,42.2,124.69,21.553c19.883-9.177,41.295-14.53,63.471-17.588l2.294,22.941C171.337,28.436,152.219,33.789,133.866,42.2Zm130.766-8.412c-4.588-1.529-8.412-2.294-13-3.824l5.353-22.177a101.874,101.874,0,0,1,14.53,3.824ZM204.22,26.141,203.455,3.2h9.177V26.141H211.1C208.044,25.377,206.514,25.377,204.22,26.141Z" transform="translate(20.654 21.271)" fill="#fff" opacity="0.82"/>
      </g>
    </g>
    <g id="profundidad-3" data-name="profundidad" transform="translate(677.072 308.219)">
      <g id="Grupo_3-2" data-name="Grupo 3" transform="translate(-0.006)" opacity="0.12">
        <path id="Trazado_1-2" data-name="Trazado 1" d="M5.653,37.1H.3c19.883,89.472,91,159.825,181.237,178.179v-5.353C94.36,191.572,25.536,123.513,5.653,37.1Z" transform="translate(2.042 246.609)" fill="#fff" opacity="0.56"/>
        <path id="Trazado_2-2" data-name="Trazado 2" d="M37.8,207.631v5.353A233.7,233.7,0,0,0,208.331,37.1h-5.353A229.7,229.7,0,0,1,37.8,207.631Z" transform="translate(251.31 246.609)" fill="#fff" opacity="0.8"/>
        <path id="Trazado_3-2" data-name="Trazado 3" d="M180.873,5.753V.4C92.166,18.753,21.047,87.577.4,175.52H5.753A229.515,229.515,0,0,1,180.873,5.753Z" transform="translate(2.707 2.659)" fill="#fff" opacity="0.76"/>
        <rect id="Rectángulo_1-2" data-name="Rectángulo 1" width="8.412" height="10.706" transform="translate(181.285)" fill="#fff" opacity="0.66"/>
        <g id="Grupo_2-2" data-name="Grupo 2" transform="translate(282.228 1.529)" opacity="0.89">
          <rect id="Rectángulo_2-2" data-name="Rectángulo 2" width="8.412" height="10.706" fill="#fff"/>
          <g id="Grupo_1-2" data-name="Grupo 1" transform="translate(6.882 3.824)">
            <path id="Trazado_4-2" data-name="Trazado 4" d="M202.214,173.526h5.353C187.684,89.407,121.154,22.112,37.8.7V6.053C118.86,27.465,182.331,92.466,202.214,173.526Z" transform="translate(-37.8 -0.7)" fill="#fff"/>
            <rect id="Rectángulo_3-2" data-name="Rectángulo 3" width="10.706" height="8.412" transform="translate(162.057 172.113) rotate(-0.641)" fill="#fff"/>
          </g>
        </g>
        <path id="Trazado_5-2" data-name="Trazado 5" d="M69.706,36.3v8.412H59V36.3Z" transform="translate(392.23 241.291)" fill="#fff" opacity="0.73"/>
        <rect id="Rectángulo_4-2" data-name="Rectángulo 4" width="10.706" height="8.412" transform="translate(0 277.645) rotate(-0.663)" fill="#fff" opacity="0.42"/>
        <rect id="Rectángulo_5-2" data-name="Rectángulo 5" width="8.412" height="10.706" transform="translate(180.438 453.565) rotate(-0.954)" fill="#fff" opacity="0.64"/>
        <rect id="Rectángulo_6-2" data-name="Rectángulo 6" width="8.412" height="10.706" transform="translate(282.148 452.035) rotate(-0.948)" fill="#fff" opacity="0.4"/>
        <rect id="Rectángulo_7-2" data-name="Rectángulo 7" width="10.706" height="8.412" transform="translate(0 175.941) rotate(-0.662)" fill="#fff" opacity="0.44"/>
        <path id="Trazado_6-2" data-name="Trazado 6" d="M195.043,418.44a103.637,103.637,0,0,1-15.294-1.529l3.059-22.177c4.588.765,9.177.765,13,1.529Zm44.354-1.529-3.059-22.177a27.169,27.169,0,0,0,7.647-1.529l3.824,22.177A27.49,27.49,0,0,1,239.4,416.911Zm-80.3-3.824a212.432,212.432,0,0,1-60.412-26l12.235-19.118a174.445,174.445,0,0,0,53.53,22.941Zm104-.765-6.118-22.177a197.278,197.278,0,0,0,53.53-23.706l12.235,19.118A183.08,183.08,0,0,1,263.1,412.322ZM86.454,377.91c-2.294-1.529-4.588-3.824-6.882-5.353L94.1,354.969c2.294,1.529,3.824,3.059,6.118,4.588Zm253.885-4.588-14.53-17.588a114.408,114.408,0,0,0,9.941-8.412l15.294,16.824A133.147,133.147,0,0,1,340.339,373.322ZM47.453,340.439c-3.059-3.824-6.118-7.647-9.177-12.235l19.118-13a129.728,129.728,0,0,0,7.647,10.706Zm334.18-10.706-18.353-13,4.588-6.882,19.118,12.235C384.693,324.38,383.163,327.439,381.634,329.733ZM27.571,310.615A200.3,200.3,0,0,1,5.394,248.674l22.177-3.824c3.824,19.118,9.941,38.236,19.883,55.059Zm366.3-1.529L373.987,298.38c9.177-17.588,16.059-35.942,19.118-55.06l22.177,3.824C411.458,268.556,404.575,289.968,393.869,309.086Zm-390-75.707c0-3.059-.765-6.118-.765-9.177l22.177-.765c0,3.059.765,5.353.765,7.647Zm414.475-7.647L395.4,224.2c0-4.588.765-9.177.765-13H419.1A92.544,92.544,0,0,0,418.34,225.732ZM395.4,205.085a205.745,205.745,0,0,0-10.706-57.354l21.412-7.647c7.647,20.647,11.471,42.824,12.235,65ZM26.806,182.908,4.629,179.849c.765-4.588,1.529-9.941,3.059-14.53l22.177,4.588A104.272,104.272,0,0,0,26.806,182.908Zm7.647-30.589-21.412-6.882A211.538,211.538,0,0,1,43.63,87.319l18.353,13.765C49.748,115.613,40.571,133.2,34.453,152.319Zm342.592-22.177c-2.294-3.824-3.824-7.647-6.118-11.471L390.81,107.2c2.294,4.588,4.588,9.177,6.882,13ZM70.395,89.613,53.571,75.083c2.294-2.294,3.824-4.588,6.118-6.882L76.513,83.5Zm276.827-3.059c-1.529-2.294-3.824-3.824-5.353-6.118l16.059-16.059a49.476,49.476,0,0,1,6.118,6.882ZM331.927,71.26a176.524,176.524,0,0,0-49.706-31.353L291.4,19.259c20.647,8.412,39,20.647,55.824,35.177ZM106.337,57.495l-13-19.118c3.824-3.059,8.412-5.353,13-7.647l11.471,19.883ZM133.866,42.2,124.69,21.553c19.883-9.177,41.295-14.53,63.471-17.588l2.294,22.941C171.337,28.436,152.219,33.789,133.866,42.2Zm130.766-8.412c-4.588-1.529-8.412-2.294-13-3.824l5.353-22.177a101.874,101.874,0,0,1,14.53,3.824ZM204.22,26.141,203.455,3.2h9.177V26.141H211.1C208.044,25.377,206.514,25.377,204.22,26.141Z" transform="translate(20.654 21.271)" fill="#fff" opacity="0.82"/>
      </g>
    </g>
  </g>
</svg>
